<?xml version="1.0" encoding="utf-8"?>
<!-- Generator: Adobe Illustrator 25.2.3, SVG Export Plug-In . SVG Version: 6.00 Build 0)  -->
<svg version="1.1" id="Layer_1" xmlns:svg="http://www.w3.org/2000/svg"
	 xmlns="http://www.w3.org/2000/svg" xmlns:xlink="http://www.w3.org/1999/xlink" x="0px" y="0px" viewBox="0 0 1224 792"
	 style="enable-background:new 0 0 1224 792;" xml:space="preserve">
<style type="text/css">
	.st0{fill:none;stroke:#C2C200;stroke-linecap:round;stroke-linejoin:round;stroke-miterlimit:10;}
</style>
<desc>Picture generated by PCBNEW</desc>
<g transform="translate(0 0) scale(1 1)">
</g>
<g>
	<g>
		<g>
			<path class="st0" d="M63.6,355.1c-1.6,0-2.8-1.3-2.8-2.8V45.8c0-1.6,1.3-2.8,2.8-2.8h678.9c1.6,0,2.8,1.3,2.8,2.8v306.5
				c0,1.6-1.3,2.8-2.8,2.8H63.6z"/>
		</g>
	</g>
</g>
<circle class="st0" cx="68.3" cy="51.9" r="4.7"/>
<circle class="st0" cx="68.3" cy="346.1" r="4.7"/>
<circle class="st0" cx="736.3" cy="51.9" r="4.7"/>
<circle class="st0" cx="736.3" cy="346.1" r="4.7"/>
<circle class="st0" cx="403" cy="51.9" r="4.7"/>
<circle class="st0" cx="403" cy="346.1" r="4.7"/>
<circle class="st0" cx="68.3" cy="199" r="4.7"/>
<circle class="st0" cx="736.3" cy="199" r="4.7"/>
<g>
	<g>
		<g>
			<line class="st0" x1="78.7" y1="675.5" x2="78.7" y2="399.4"/>
		</g>
		<g>
			<line class="st0" x1="727.3" y1="675.5" x2="78.7" y2="675.5"/>
		</g>
		<g>
			<line class="st0" x1="727.3" y1="399.4" x2="78.7" y2="399.4"/>
		</g>
		<g>
			<line class="st0" x1="727.3" y1="675.5" x2="727.3" y2="399.4"/>
		</g>
	</g>
</g>
<g>
	<g>
		<g>
			<path class="st0" d="M63.6,693.5c-1.6,0-2.8-1.3-2.8-2.8V384.2c0-1.6,1.3-2.8,2.8-2.8h678.9c1.6,0,2.8,1.3,2.8,2.8v306.5
				c0,1.6-1.3,2.8-2.8,2.8H63.6z"/>
		</g>
	</g>
</g>
<circle class="st0" cx="68.3" cy="390.4" r="4.7"/>
<circle class="st0" cx="68.3" cy="684.5" r="4.7"/>
<circle class="st0" cx="736.3" cy="390.4" r="4.7"/>
<circle class="st0" cx="736.3" cy="684.5" r="4.7"/>
<circle class="st0" cx="673" cy="315.9" r="4.7"/>
<circle class="st0" cx="214" cy="82.1" r="4.7"/>
<circle class="st0" cx="403" cy="390.4" r="4.7"/>
<circle class="st0" cx="403" cy="684.5" r="4.7"/>
<circle class="st0" cx="68.3" cy="537.4" r="4.7"/>
<circle class="st0" cx="592" cy="82.1" r="4.7"/>
<circle class="st0" cx="736.3" cy="537.4" r="4.7"/>
<circle class="st0" cx="133" cy="315.9" r="4.7"/>
</svg>
