%TF.GenerationSoftware,KiCad,Pcbnew,(5.1.10-32-g011b4027db)-1*%
%TF.CreationDate,2021-11-07T01:09:16-04:00*%
%TF.ProjectId,keyboard,6b657962-6f61-4726-942e-6b696361645f,rev?*%
%TF.SameCoordinates,Original*%
%TF.FileFunction,Paste,Top*%
%TF.FilePolarity,Positive*%
%FSLAX46Y46*%
G04 Gerber Fmt 4.6, Leading zero omitted, Abs format (unit mm)*
G04 Created by KiCad (PCBNEW (5.1.10-32-g011b4027db)-1) date 2021-11-07 01:09:16*
%MOMM*%
%LPD*%
G01*
G04 APERTURE LIST*
%ADD10C,1.143000*%
%ADD11O,1.016000X2.032000*%
%ADD12O,2.748280X1.998980*%
G04 APERTURE END LIST*
D10*
%TO.C,C1*%
X303132553Y-93568335D03*
X300592553Y-93568335D03*
X303132553Y-91028335D03*
X300592553Y-91028335D03*
D11*
X303143750Y-108032522D03*
X300593750Y-108032522D03*
D12*
X293726870Y-91714702D03*
X293726870Y-94254702D03*
X293726870Y-96794702D03*
X293726870Y-99334702D03*
X293726870Y-101874702D03*
X293726870Y-104414702D03*
X293726870Y-106954702D03*
X309891430Y-106954702D03*
X309891430Y-104414702D03*
X309891430Y-101874702D03*
X309891430Y-99334702D03*
X309891430Y-96794702D03*
X309891430Y-94254702D03*
X309891430Y-91714702D03*
%TD*%
%TO.C,R2*%
G36*
G01*
X283887500Y-93854702D02*
X284437500Y-93854702D01*
G75*
G02*
X284637500Y-94054702I0J-200000D01*
G01*
X284637500Y-94454702D01*
G75*
G02*
X284437500Y-94654702I-200000J0D01*
G01*
X283887500Y-94654702D01*
G75*
G02*
X283687500Y-94454702I0J200000D01*
G01*
X283687500Y-94054702D01*
G75*
G02*
X283887500Y-93854702I200000J0D01*
G01*
G37*
G36*
G01*
X283887500Y-92204702D02*
X284437500Y-92204702D01*
G75*
G02*
X284637500Y-92404702I0J-200000D01*
G01*
X284637500Y-92804702D01*
G75*
G02*
X284437500Y-93004702I-200000J0D01*
G01*
X283887500Y-93004702D01*
G75*
G02*
X283687500Y-92804702I0J200000D01*
G01*
X283687500Y-92404702D01*
G75*
G02*
X283887500Y-92204702I200000J0D01*
G01*
G37*
%TD*%
%TO.C,R1*%
G36*
G01*
X287612500Y-90062500D02*
X287062500Y-90062500D01*
G75*
G02*
X286862500Y-89862500I0J200000D01*
G01*
X286862500Y-89462500D01*
G75*
G02*
X287062500Y-89262500I200000J0D01*
G01*
X287612500Y-89262500D01*
G75*
G02*
X287812500Y-89462500I0J-200000D01*
G01*
X287812500Y-89862500D01*
G75*
G02*
X287612500Y-90062500I-200000J0D01*
G01*
G37*
G36*
G01*
X287612500Y-91712500D02*
X287062500Y-91712500D01*
G75*
G02*
X286862500Y-91512500I0J200000D01*
G01*
X286862500Y-91112500D01*
G75*
G02*
X287062500Y-90912500I200000J0D01*
G01*
X287612500Y-90912500D01*
G75*
G02*
X287812500Y-91112500I0J-200000D01*
G01*
X287812500Y-91512500D01*
G75*
G02*
X287612500Y-91712500I-200000J0D01*
G01*
G37*
%TD*%
M02*
