%TF.GenerationSoftware,KiCad,Pcbnew,(5.1.10)-1*%
%TF.CreationDate,2021-10-30T02:48:04-04:00*%
%TF.ProjectId,keyboard,6b657962-6f61-4726-942e-6b696361645f,rev?*%
%TF.SameCoordinates,Original*%
%TF.FileFunction,Legend,Top*%
%TF.FilePolarity,Positive*%
%FSLAX46Y46*%
G04 Gerber Fmt 4.6, Leading zero omitted, Abs format (unit mm)*
G04 Created by KiCad (PCBNEW (5.1.10)-1) date 2021-10-30 02:48:04*
%MOMM*%
%LPD*%
G01*
G04 APERTURE LIST*
%ADD10C,0.100000*%
%ADD11C,0.127000*%
%ADD12C,0.066040*%
%ADD13C,0.200000*%
%ADD14C,0.152400*%
%ADD15C,0.120000*%
%ADD16C,0.101600*%
%ADD17C,0.076200*%
%ADD18C,0.150000*%
G04 APERTURE END LIST*
D10*
%TO.C,C1*%
X77326091Y-101155500D02*
G75*
G03*
X77326091Y-101155500I-254000J0D01*
G01*
D11*
X77961091Y-98988880D02*
X77961091Y-119316500D01*
X78631651Y-98318320D02*
X77961091Y-98988880D01*
X95758871Y-98318320D02*
X78631651Y-98318320D01*
X95758871Y-119316500D02*
X95758871Y-98318320D01*
X77961091Y-119316500D02*
X95758871Y-119316500D01*
D12*
X90280091Y-100901500D02*
X90280091Y-98234500D01*
X90280091Y-98234500D02*
X92058091Y-98234500D01*
X92058091Y-100901500D02*
X92058091Y-98234500D01*
X90280091Y-100901500D02*
X92058091Y-100901500D01*
X90280091Y-104968040D02*
X90280091Y-102298500D01*
X90280091Y-102298500D02*
X92058091Y-102298500D01*
X92058091Y-104968040D02*
X92058091Y-102298500D01*
X90280091Y-104968040D02*
X92058091Y-104968040D01*
X81644091Y-104968040D02*
X81644091Y-102298500D01*
X81644091Y-102298500D02*
X83422091Y-102298500D01*
X83422091Y-104968040D02*
X83422091Y-102298500D01*
X81644091Y-104968040D02*
X83422091Y-104968040D01*
X81644091Y-100901500D02*
X81644091Y-98234500D01*
X81644091Y-98234500D02*
X83422091Y-98234500D01*
X83422091Y-100901500D02*
X83422091Y-98234500D01*
X81644091Y-100901500D02*
X83422091Y-100901500D01*
X84311091Y-118681500D02*
X84311091Y-116141500D01*
X84311091Y-116141500D02*
X90026091Y-116141500D01*
X90026091Y-118681500D02*
X90026091Y-116141500D01*
X84311091Y-118681500D02*
X90026091Y-118681500D01*
X84311091Y-101536500D02*
X84311091Y-98996500D01*
X84311091Y-98996500D02*
X89391091Y-98996500D01*
X89391091Y-101536500D02*
X89391091Y-98996500D01*
X84311091Y-101536500D02*
X89391091Y-101536500D01*
D13*
%TO.C,U3*%
X81650500Y-158349500D02*
G75*
G03*
X81650500Y-158349500I-200000J0D01*
G01*
D14*
X82740500Y-158407100D02*
X82740500Y-158584900D01*
X86245700Y-158407100D02*
X82740500Y-158407100D01*
X86855300Y-158407100D02*
X86245700Y-158407100D01*
X90360500Y-158407100D02*
X86855300Y-158407100D01*
X90360500Y-176491900D02*
X90360500Y-176314100D01*
X82740500Y-176491900D02*
X90360500Y-176491900D01*
X82740500Y-176314100D02*
X82740500Y-176491900D01*
X90360500Y-158584900D02*
X90360500Y-158407100D01*
D10*
X86855300Y-158407100D02*
G75*
G02*
X86245700Y-158407100I-304800J0D01*
G01*
D15*
%TO.C,M42*%
X223000000Y-169112500D02*
X208800000Y-169112500D01*
X223000000Y-183312500D02*
X223000000Y-169112500D01*
X208800000Y-183312500D02*
X223000000Y-183312500D01*
X208800000Y-169112500D02*
X208800000Y-183312500D01*
%TO.C,M41*%
X194425000Y-169112500D02*
X180225000Y-169112500D01*
X194425000Y-183312500D02*
X194425000Y-169112500D01*
X180225000Y-183312500D02*
X194425000Y-183312500D01*
X180225000Y-169112500D02*
X180225000Y-183312500D01*
%TO.C,M29*%
X194425000Y-150062500D02*
X180225000Y-150062500D01*
X194425000Y-164262500D02*
X194425000Y-150062500D01*
X180225000Y-164262500D02*
X194425000Y-164262500D01*
X180225000Y-150062500D02*
X180225000Y-164262500D01*
%TO.C,M28*%
X175375000Y-150062500D02*
X161175000Y-150062500D01*
X175375000Y-164262500D02*
X175375000Y-150062500D01*
X161175000Y-164262500D02*
X175375000Y-164262500D01*
X161175000Y-150062500D02*
X161175000Y-164262500D01*
%TO.C,M15*%
X156325000Y-131012500D02*
X142125000Y-131012500D01*
X156325000Y-145212500D02*
X156325000Y-131012500D01*
X142125000Y-145212500D02*
X156325000Y-145212500D01*
X142125000Y-131012500D02*
X142125000Y-145212500D01*
%TO.C,M14*%
X137275000Y-131012500D02*
X123075000Y-131012500D01*
X137275000Y-145212500D02*
X137275000Y-131012500D01*
X123075000Y-145212500D02*
X137275000Y-145212500D01*
X123075000Y-131012500D02*
X123075000Y-145212500D01*
%TO.C,M1*%
X118240900Y-111930750D02*
X104040900Y-111930750D01*
X118240900Y-126130750D02*
X118240900Y-111930750D01*
X104040900Y-126130750D02*
X118240900Y-126130750D01*
X104040900Y-111930750D02*
X104040900Y-126130750D01*
%TO.C,R2*%
X74946242Y-183945000D02*
X75420758Y-183945000D01*
X74946242Y-184990000D02*
X75420758Y-184990000D01*
%TO.C,R1*%
X76182758Y-181688000D02*
X75708242Y-181688000D01*
X76182758Y-180643000D02*
X75708242Y-180643000D01*
D13*
%TO.C,U2*%
X81650500Y-139299500D02*
G75*
G03*
X81650500Y-139299500I-200000J0D01*
G01*
D14*
X82740500Y-139357100D02*
X82740500Y-139534900D01*
X86245700Y-139357100D02*
X82740500Y-139357100D01*
X86855300Y-139357100D02*
X86245700Y-139357100D01*
X90360500Y-139357100D02*
X86855300Y-139357100D01*
X90360500Y-157441900D02*
X90360500Y-157264100D01*
X82740500Y-157441900D02*
X90360500Y-157441900D01*
X82740500Y-157264100D02*
X82740500Y-157441900D01*
X90360500Y-139534900D02*
X90360500Y-139357100D01*
D10*
X86855300Y-139357100D02*
G75*
G02*
X86245700Y-139357100I-304800J0D01*
G01*
D13*
%TO.C,U4*%
X81650500Y-177399500D02*
G75*
G03*
X81650500Y-177399500I-200000J0D01*
G01*
D14*
X82740500Y-177457100D02*
X82740500Y-177634900D01*
X86245700Y-177457100D02*
X82740500Y-177457100D01*
X86855300Y-177457100D02*
X86245700Y-177457100D01*
X90360500Y-177457100D02*
X86855300Y-177457100D01*
X90360500Y-195541900D02*
X90360500Y-195364100D01*
X82740500Y-195541900D02*
X90360500Y-195541900D01*
X82740500Y-195364100D02*
X82740500Y-195541900D01*
X90360500Y-177634900D02*
X90360500Y-177457100D01*
D10*
X86855300Y-177457100D02*
G75*
G02*
X86245700Y-177457100I-304800J0D01*
G01*
D13*
%TO.C,U1*%
X81650500Y-120249500D02*
G75*
G03*
X81650500Y-120249500I-200000J0D01*
G01*
D14*
X82740500Y-120307100D02*
X82740500Y-120484900D01*
X86245700Y-120307100D02*
X82740500Y-120307100D01*
X86855300Y-120307100D02*
X86245700Y-120307100D01*
X90360500Y-120307100D02*
X86855300Y-120307100D01*
X90360500Y-138391900D02*
X90360500Y-138214100D01*
X82740500Y-138391900D02*
X90360500Y-138391900D01*
X82740500Y-138214100D02*
X82740500Y-138391900D01*
X90360500Y-120484900D02*
X90360500Y-120307100D01*
D10*
X86855300Y-120307100D02*
G75*
G02*
X86245700Y-120307100I-304800J0D01*
G01*
D15*
%TO.C,M44*%
X270625000Y-169112500D02*
X256425000Y-169112500D01*
X270625000Y-183312500D02*
X270625000Y-169112500D01*
X256425000Y-183312500D02*
X270625000Y-183312500D01*
X256425000Y-169112500D02*
X256425000Y-183312500D01*
%TO.C,M47*%
X327775000Y-169112500D02*
X313575000Y-169112500D01*
X327775000Y-183312500D02*
X327775000Y-169112500D01*
X313575000Y-183312500D02*
X327775000Y-183312500D01*
X313575000Y-169112500D02*
X313575000Y-183312500D01*
%TO.C,M46*%
X308725000Y-169112500D02*
X294525000Y-169112500D01*
X308725000Y-183312500D02*
X308725000Y-169112500D01*
X294525000Y-183312500D02*
X308725000Y-183312500D01*
X294525000Y-169112500D02*
X294525000Y-183312500D01*
%TO.C,M45*%
X289675000Y-169112500D02*
X275475000Y-169112500D01*
X289675000Y-183312500D02*
X289675000Y-169112500D01*
X275475000Y-183312500D02*
X289675000Y-183312500D01*
X275475000Y-169112500D02*
X275475000Y-183312500D01*
%TO.C,M43*%
X251575000Y-169112500D02*
X237375000Y-169112500D01*
X251575000Y-183312500D02*
X251575000Y-169112500D01*
X237375000Y-183312500D02*
X251575000Y-183312500D01*
X237375000Y-169112500D02*
X237375000Y-183312500D01*
%TO.C,M40*%
X175375000Y-169112500D02*
X161175000Y-169112500D01*
X175375000Y-183312500D02*
X175375000Y-169112500D01*
X161175000Y-183312500D02*
X175375000Y-183312500D01*
X161175000Y-169112500D02*
X161175000Y-183312500D01*
%TO.C,M39*%
X156325000Y-169112500D02*
X142125000Y-169112500D01*
X156325000Y-183312500D02*
X156325000Y-169112500D01*
X142125000Y-183312500D02*
X156325000Y-183312500D01*
X142125000Y-169112500D02*
X142125000Y-183312500D01*
%TO.C,M38*%
X137275000Y-169112500D02*
X123075000Y-169112500D01*
X137275000Y-183312500D02*
X137275000Y-169112500D01*
X123075000Y-183312500D02*
X137275000Y-183312500D01*
X123075000Y-169112500D02*
X123075000Y-183312500D01*
%TO.C,M37*%
X118225000Y-169112500D02*
X104025000Y-169112500D01*
X118225000Y-183312500D02*
X118225000Y-169112500D01*
X104025000Y-183312500D02*
X118225000Y-183312500D01*
X104025000Y-169112500D02*
X104025000Y-183312500D01*
%TO.C,M36*%
X327775000Y-150030750D02*
X313575000Y-150030750D01*
X327775000Y-164230750D02*
X327775000Y-150030750D01*
X313575000Y-164230750D02*
X327775000Y-164230750D01*
X313575000Y-150030750D02*
X313575000Y-164230750D01*
%TO.C,M35*%
X308725000Y-150030750D02*
X294525000Y-150030750D01*
X308725000Y-164230750D02*
X308725000Y-150030750D01*
X294525000Y-164230750D02*
X308725000Y-164230750D01*
X294525000Y-150030750D02*
X294525000Y-164230750D01*
%TO.C,M34*%
X289675000Y-150030750D02*
X275475000Y-150030750D01*
X289675000Y-164230750D02*
X289675000Y-150030750D01*
X275475000Y-164230750D02*
X289675000Y-164230750D01*
X275475000Y-150030750D02*
X275475000Y-164230750D01*
%TO.C,M33*%
X270625000Y-150030750D02*
X256425000Y-150030750D01*
X270625000Y-164230750D02*
X270625000Y-150030750D01*
X256425000Y-164230750D02*
X270625000Y-164230750D01*
X256425000Y-150030750D02*
X256425000Y-164230750D01*
%TO.C,M32*%
X251575000Y-150062500D02*
X237375000Y-150062500D01*
X251575000Y-164262500D02*
X251575000Y-150062500D01*
X237375000Y-164262500D02*
X251575000Y-164262500D01*
X237375000Y-150062500D02*
X237375000Y-164262500D01*
%TO.C,M31*%
X232525000Y-150062500D02*
X218325000Y-150062500D01*
X232525000Y-164262500D02*
X232525000Y-150062500D01*
X218325000Y-164262500D02*
X232525000Y-164262500D01*
X218325000Y-150062500D02*
X218325000Y-164262500D01*
%TO.C,M30*%
X213475000Y-150030750D02*
X199275000Y-150030750D01*
X213475000Y-164230750D02*
X213475000Y-150030750D01*
X199275000Y-164230750D02*
X213475000Y-164230750D01*
X199275000Y-150030750D02*
X199275000Y-164230750D01*
%TO.C,M27*%
X156325000Y-150030750D02*
X142125000Y-150030750D01*
X156325000Y-164230750D02*
X156325000Y-150030750D01*
X142125000Y-164230750D02*
X156325000Y-164230750D01*
X142125000Y-150030750D02*
X142125000Y-164230750D01*
%TO.C,M26*%
X137275000Y-150030750D02*
X123075000Y-150030750D01*
X137275000Y-164230750D02*
X137275000Y-150030750D01*
X123075000Y-164230750D02*
X137275000Y-164230750D01*
X123075000Y-150030750D02*
X123075000Y-164230750D01*
%TO.C,M25*%
X118225000Y-150030750D02*
X104025000Y-150030750D01*
X118225000Y-164230750D02*
X118225000Y-150030750D01*
X104025000Y-164230750D02*
X118225000Y-164230750D01*
X104025000Y-150030750D02*
X104025000Y-164230750D01*
%TO.C,M24*%
X327775000Y-131012500D02*
X313575000Y-131012500D01*
X327775000Y-145212500D02*
X327775000Y-131012500D01*
X313575000Y-145212500D02*
X327775000Y-145212500D01*
X313575000Y-131012500D02*
X313575000Y-145212500D01*
%TO.C,M23*%
X308725000Y-131012500D02*
X294525000Y-131012500D01*
X308725000Y-145212500D02*
X308725000Y-131012500D01*
X294525000Y-145212500D02*
X308725000Y-145212500D01*
X294525000Y-131012500D02*
X294525000Y-145212500D01*
%TO.C,M22*%
X289675000Y-131012500D02*
X275475000Y-131012500D01*
X289675000Y-145212500D02*
X289675000Y-131012500D01*
X275475000Y-145212500D02*
X289675000Y-145212500D01*
X275475000Y-131012500D02*
X275475000Y-145212500D01*
%TO.C,M21*%
X270625000Y-131012500D02*
X256425000Y-131012500D01*
X270625000Y-145212500D02*
X270625000Y-131012500D01*
X256425000Y-145212500D02*
X270625000Y-145212500D01*
X256425000Y-131012500D02*
X256425000Y-145212500D01*
%TO.C,M20*%
X251575000Y-131012500D02*
X237375000Y-131012500D01*
X251575000Y-145212500D02*
X251575000Y-131012500D01*
X237375000Y-145212500D02*
X251575000Y-145212500D01*
X237375000Y-131012500D02*
X237375000Y-145212500D01*
%TO.C,M19*%
X232525000Y-130980750D02*
X218325000Y-130980750D01*
X232525000Y-145180750D02*
X232525000Y-130980750D01*
X218325000Y-145180750D02*
X232525000Y-145180750D01*
X218325000Y-130980750D02*
X218325000Y-145180750D01*
%TO.C,M18*%
X213475000Y-131012500D02*
X199275000Y-131012500D01*
X213475000Y-145212500D02*
X213475000Y-131012500D01*
X199275000Y-145212500D02*
X213475000Y-145212500D01*
X199275000Y-131012500D02*
X199275000Y-145212500D01*
%TO.C,M17*%
X194425000Y-131012500D02*
X180225000Y-131012500D01*
X194425000Y-145212500D02*
X194425000Y-131012500D01*
X180225000Y-145212500D02*
X194425000Y-145212500D01*
X180225000Y-131012500D02*
X180225000Y-145212500D01*
%TO.C,M16*%
X175375000Y-131012500D02*
X161175000Y-131012500D01*
X175375000Y-145212500D02*
X175375000Y-131012500D01*
X161175000Y-145212500D02*
X175375000Y-145212500D01*
X161175000Y-131012500D02*
X161175000Y-145212500D01*
%TO.C,M13*%
X118225000Y-131012500D02*
X104025000Y-131012500D01*
X118225000Y-145212500D02*
X118225000Y-131012500D01*
X104025000Y-145212500D02*
X118225000Y-145212500D01*
X104025000Y-131012500D02*
X104025000Y-145212500D01*
%TO.C,M12*%
X327790900Y-111930750D02*
X313590900Y-111930750D01*
X327790900Y-126130750D02*
X327790900Y-111930750D01*
X313590900Y-126130750D02*
X327790900Y-126130750D01*
X313590900Y-111930750D02*
X313590900Y-126130750D01*
%TO.C,M11*%
X308740900Y-111930750D02*
X294540900Y-111930750D01*
X308740900Y-126130750D02*
X308740900Y-111930750D01*
X294540900Y-126130750D02*
X308740900Y-126130750D01*
X294540900Y-111930750D02*
X294540900Y-126130750D01*
%TO.C,M10*%
X289690900Y-111930750D02*
X275490900Y-111930750D01*
X289690900Y-126130750D02*
X289690900Y-111930750D01*
X275490900Y-126130750D02*
X289690900Y-126130750D01*
X275490900Y-111930750D02*
X275490900Y-126130750D01*
%TO.C,M9*%
X270640900Y-111930750D02*
X256440900Y-111930750D01*
X270640900Y-126130750D02*
X270640900Y-111930750D01*
X256440900Y-126130750D02*
X270640900Y-126130750D01*
X256440900Y-111930750D02*
X256440900Y-126130750D01*
%TO.C,M8*%
X251590900Y-111930750D02*
X237390900Y-111930750D01*
X251590900Y-126130750D02*
X251590900Y-111930750D01*
X237390900Y-126130750D02*
X251590900Y-126130750D01*
X237390900Y-111930750D02*
X237390900Y-126130750D01*
%TO.C,M7*%
X232540900Y-111930750D02*
X218340900Y-111930750D01*
X232540900Y-126130750D02*
X232540900Y-111930750D01*
X218340900Y-126130750D02*
X232540900Y-126130750D01*
X218340900Y-111930750D02*
X218340900Y-126130750D01*
%TO.C,M6*%
X213490900Y-111930750D02*
X199290900Y-111930750D01*
X213490900Y-126130750D02*
X213490900Y-111930750D01*
X199290900Y-126130750D02*
X213490900Y-126130750D01*
X199290900Y-111930750D02*
X199290900Y-126130750D01*
%TO.C,M5*%
X194440900Y-111930750D02*
X180240900Y-111930750D01*
X194440900Y-126130750D02*
X194440900Y-111930750D01*
X180240900Y-126130750D02*
X194440900Y-126130750D01*
X180240900Y-111930750D02*
X180240900Y-126130750D01*
%TO.C,M4*%
X175390900Y-111930750D02*
X161190900Y-111930750D01*
X175390900Y-126130750D02*
X175390900Y-111930750D01*
X161190900Y-126130750D02*
X175390900Y-126130750D01*
X161190900Y-111930750D02*
X161190900Y-126130750D01*
%TO.C,M3*%
X156340900Y-111930750D02*
X142140900Y-111930750D01*
X156340900Y-126130750D02*
X156340900Y-111930750D01*
X142140900Y-126130750D02*
X156340900Y-126130750D01*
X142140900Y-111930750D02*
X142140900Y-126130750D01*
%TO.C,M2*%
X137290900Y-111930750D02*
X123090900Y-111930750D01*
X137290900Y-126130750D02*
X137290900Y-111930750D01*
X123090900Y-126130750D02*
X137290900Y-126130750D01*
X123090900Y-111930750D02*
X123090900Y-126130750D01*
%TO.C,C1*%
D16*
X87164333Y-112236250D02*
X87122000Y-112278583D01*
X86995000Y-112320916D01*
X86910333Y-112320916D01*
X86783333Y-112278583D01*
X86698666Y-112193916D01*
X86656333Y-112109250D01*
X86614000Y-111939916D01*
X86614000Y-111812916D01*
X86656333Y-111643583D01*
X86698666Y-111558916D01*
X86783333Y-111474250D01*
X86910333Y-111431916D01*
X86995000Y-111431916D01*
X87122000Y-111474250D01*
X87164333Y-111516583D01*
X88011000Y-112320916D02*
X87503000Y-112320916D01*
X87757000Y-112320916D02*
X87757000Y-111431916D01*
X87672333Y-111558916D01*
X87587666Y-111643583D01*
X87503000Y-111685916D01*
D17*
X85327091Y-108797271D02*
X85327091Y-108187671D01*
X85559319Y-108187671D01*
X85617376Y-108216700D01*
X85646405Y-108245728D01*
X85675433Y-108303785D01*
X85675433Y-108390871D01*
X85646405Y-108448928D01*
X85617376Y-108477957D01*
X85559319Y-108506985D01*
X85327091Y-108506985D01*
X85936691Y-108797271D02*
X85936691Y-108390871D01*
X85936691Y-108187671D02*
X85907662Y-108216700D01*
X85936691Y-108245728D01*
X85965719Y-108216700D01*
X85936691Y-108187671D01*
X85936691Y-108245728D01*
X86691433Y-108797271D02*
X86691433Y-108187671D01*
X86923662Y-108187671D01*
X86981719Y-108216700D01*
X87010748Y-108245728D01*
X87039776Y-108303785D01*
X87039776Y-108390871D01*
X87010748Y-108448928D01*
X86981719Y-108477957D01*
X86923662Y-108506985D01*
X86691433Y-108506985D01*
X87301033Y-108797271D02*
X87301033Y-108390871D01*
X87301033Y-108187671D02*
X87272005Y-108216700D01*
X87301033Y-108245728D01*
X87330062Y-108216700D01*
X87301033Y-108187671D01*
X87301033Y-108245728D01*
X87852576Y-108768242D02*
X87794519Y-108797271D01*
X87678405Y-108797271D01*
X87620348Y-108768242D01*
X87591319Y-108739214D01*
X87562291Y-108681157D01*
X87562291Y-108506985D01*
X87591319Y-108448928D01*
X87620348Y-108419900D01*
X87678405Y-108390871D01*
X87794519Y-108390871D01*
X87852576Y-108419900D01*
X88200919Y-108797271D02*
X88142862Y-108768242D01*
X88113833Y-108739214D01*
X88084805Y-108681157D01*
X88084805Y-108506985D01*
X88113833Y-108448928D01*
X88142862Y-108419900D01*
X88200919Y-108390871D01*
X88288005Y-108390871D01*
X88346062Y-108419900D01*
X88375091Y-108448928D01*
X88404119Y-108506985D01*
X88404119Y-108681157D01*
X88375091Y-108739214D01*
X88346062Y-108768242D01*
X88288005Y-108797271D01*
X88200919Y-108797271D01*
%TO.C,H4*%
D18*
X200850595Y-193333630D02*
X200850595Y-192333630D01*
X200850595Y-192809821D02*
X201422023Y-192809821D01*
X201422023Y-193333630D02*
X201422023Y-192333630D01*
X202326785Y-192666964D02*
X202326785Y-193333630D01*
X202088690Y-192286011D02*
X201850595Y-193000297D01*
X202469642Y-193000297D01*
X214344345Y-102052380D02*
X214344345Y-101052380D01*
X214344345Y-101528571D02*
X214915773Y-101528571D01*
X214915773Y-102052380D02*
X214915773Y-101052380D01*
X215820535Y-101385714D02*
X215820535Y-102052380D01*
X215582440Y-101004761D02*
X215344345Y-101719047D01*
X215963392Y-101719047D01*
X104013095Y-102052380D02*
X104013095Y-101052380D01*
X104013095Y-101528571D02*
X104584523Y-101528571D01*
X104584523Y-102052380D02*
X104584523Y-101052380D01*
X105489285Y-101385714D02*
X105489285Y-102052380D01*
X105251190Y-101004761D02*
X105013095Y-101719047D01*
X105632142Y-101719047D01*
%TO.C,H3*%
X71469345Y-193333630D02*
X71469345Y-192333630D01*
X71469345Y-192809821D02*
X72040773Y-192809821D01*
X72040773Y-193333630D02*
X72040773Y-192333630D01*
X72421726Y-192333630D02*
X73040773Y-192333630D01*
X72707440Y-192714583D01*
X72850297Y-192714583D01*
X72945535Y-192762202D01*
X72993154Y-192809821D01*
X73040773Y-192905059D01*
X73040773Y-193143154D01*
X72993154Y-193238392D01*
X72945535Y-193286011D01*
X72850297Y-193333630D01*
X72564583Y-193333630D01*
X72469345Y-193286011D01*
X72421726Y-193238392D01*
%TO.C,H2*%
X333406845Y-101258630D02*
X333406845Y-100258630D01*
X333406845Y-100734821D02*
X333978273Y-100734821D01*
X333978273Y-101258630D02*
X333978273Y-100258630D01*
X334406845Y-100353869D02*
X334454464Y-100306250D01*
X334549702Y-100258630D01*
X334787797Y-100258630D01*
X334883035Y-100306250D01*
X334930654Y-100353869D01*
X334978273Y-100449107D01*
X334978273Y-100544345D01*
X334930654Y-100687202D01*
X334359226Y-101258630D01*
X334978273Y-101258630D01*
%TO.C,H1*%
X333406845Y-193333630D02*
X333406845Y-192333630D01*
X333406845Y-192809821D02*
X333978273Y-192809821D01*
X333978273Y-193333630D02*
X333978273Y-192333630D01*
X334978273Y-193333630D02*
X334406845Y-193333630D01*
X334692559Y-193333630D02*
X334692559Y-192333630D01*
X334597321Y-192476488D01*
X334502083Y-192571726D01*
X334406845Y-192619345D01*
%TO.C,U3*%
X85788595Y-175029880D02*
X85788595Y-175839404D01*
X85836214Y-175934642D01*
X85883833Y-175982261D01*
X85979071Y-176029880D01*
X86169547Y-176029880D01*
X86264785Y-175982261D01*
X86312404Y-175934642D01*
X86360023Y-175839404D01*
X86360023Y-175029880D01*
X86740976Y-175029880D02*
X87360023Y-175029880D01*
X87026690Y-175410833D01*
X87169547Y-175410833D01*
X87264785Y-175458452D01*
X87312404Y-175506071D01*
X87360023Y-175601309D01*
X87360023Y-175839404D01*
X87312404Y-175934642D01*
X87264785Y-175982261D01*
X87169547Y-176029880D01*
X86883833Y-176029880D01*
X86788595Y-175982261D01*
X86740976Y-175934642D01*
%TO.C,M42*%
X214614285Y-168664880D02*
X214614285Y-167664880D01*
X214947619Y-168379166D01*
X215280952Y-167664880D01*
X215280952Y-168664880D01*
X216185714Y-167998214D02*
X216185714Y-168664880D01*
X215947619Y-167617261D02*
X215709523Y-168331547D01*
X216328571Y-168331547D01*
X216661904Y-167760119D02*
X216709523Y-167712500D01*
X216804761Y-167664880D01*
X217042857Y-167664880D01*
X217138095Y-167712500D01*
X217185714Y-167760119D01*
X217233333Y-167855357D01*
X217233333Y-167950595D01*
X217185714Y-168093452D01*
X216614285Y-168664880D01*
X217233333Y-168664880D01*
%TO.C,M41*%
X186039285Y-168664880D02*
X186039285Y-167664880D01*
X186372619Y-168379166D01*
X186705952Y-167664880D01*
X186705952Y-168664880D01*
X187610714Y-167998214D02*
X187610714Y-168664880D01*
X187372619Y-167617261D02*
X187134523Y-168331547D01*
X187753571Y-168331547D01*
X188658333Y-168664880D02*
X188086904Y-168664880D01*
X188372619Y-168664880D02*
X188372619Y-167664880D01*
X188277380Y-167807738D01*
X188182142Y-167902976D01*
X188086904Y-167950595D01*
%TO.C,M29*%
X186039285Y-149614880D02*
X186039285Y-148614880D01*
X186372619Y-149329166D01*
X186705952Y-148614880D01*
X186705952Y-149614880D01*
X187134523Y-148710119D02*
X187182142Y-148662500D01*
X187277380Y-148614880D01*
X187515476Y-148614880D01*
X187610714Y-148662500D01*
X187658333Y-148710119D01*
X187705952Y-148805357D01*
X187705952Y-148900595D01*
X187658333Y-149043452D01*
X187086904Y-149614880D01*
X187705952Y-149614880D01*
X188182142Y-149614880D02*
X188372619Y-149614880D01*
X188467857Y-149567261D01*
X188515476Y-149519642D01*
X188610714Y-149376785D01*
X188658333Y-149186309D01*
X188658333Y-148805357D01*
X188610714Y-148710119D01*
X188563095Y-148662500D01*
X188467857Y-148614880D01*
X188277380Y-148614880D01*
X188182142Y-148662500D01*
X188134523Y-148710119D01*
X188086904Y-148805357D01*
X188086904Y-149043452D01*
X188134523Y-149138690D01*
X188182142Y-149186309D01*
X188277380Y-149233928D01*
X188467857Y-149233928D01*
X188563095Y-149186309D01*
X188610714Y-149138690D01*
X188658333Y-149043452D01*
%TO.C,M28*%
X166989285Y-149614880D02*
X166989285Y-148614880D01*
X167322619Y-149329166D01*
X167655952Y-148614880D01*
X167655952Y-149614880D01*
X168084523Y-148710119D02*
X168132142Y-148662500D01*
X168227380Y-148614880D01*
X168465476Y-148614880D01*
X168560714Y-148662500D01*
X168608333Y-148710119D01*
X168655952Y-148805357D01*
X168655952Y-148900595D01*
X168608333Y-149043452D01*
X168036904Y-149614880D01*
X168655952Y-149614880D01*
X169227380Y-149043452D02*
X169132142Y-148995833D01*
X169084523Y-148948214D01*
X169036904Y-148852976D01*
X169036904Y-148805357D01*
X169084523Y-148710119D01*
X169132142Y-148662500D01*
X169227380Y-148614880D01*
X169417857Y-148614880D01*
X169513095Y-148662500D01*
X169560714Y-148710119D01*
X169608333Y-148805357D01*
X169608333Y-148852976D01*
X169560714Y-148948214D01*
X169513095Y-148995833D01*
X169417857Y-149043452D01*
X169227380Y-149043452D01*
X169132142Y-149091071D01*
X169084523Y-149138690D01*
X169036904Y-149233928D01*
X169036904Y-149424404D01*
X169084523Y-149519642D01*
X169132142Y-149567261D01*
X169227380Y-149614880D01*
X169417857Y-149614880D01*
X169513095Y-149567261D01*
X169560714Y-149519642D01*
X169608333Y-149424404D01*
X169608333Y-149233928D01*
X169560714Y-149138690D01*
X169513095Y-149091071D01*
X169417857Y-149043452D01*
%TO.C,M15*%
X147939285Y-130564880D02*
X147939285Y-129564880D01*
X148272619Y-130279166D01*
X148605952Y-129564880D01*
X148605952Y-130564880D01*
X149605952Y-130564880D02*
X149034523Y-130564880D01*
X149320238Y-130564880D02*
X149320238Y-129564880D01*
X149225000Y-129707738D01*
X149129761Y-129802976D01*
X149034523Y-129850595D01*
X150510714Y-129564880D02*
X150034523Y-129564880D01*
X149986904Y-130041071D01*
X150034523Y-129993452D01*
X150129761Y-129945833D01*
X150367857Y-129945833D01*
X150463095Y-129993452D01*
X150510714Y-130041071D01*
X150558333Y-130136309D01*
X150558333Y-130374404D01*
X150510714Y-130469642D01*
X150463095Y-130517261D01*
X150367857Y-130564880D01*
X150129761Y-130564880D01*
X150034523Y-130517261D01*
X149986904Y-130469642D01*
%TO.C,M14*%
X128889285Y-130564880D02*
X128889285Y-129564880D01*
X129222619Y-130279166D01*
X129555952Y-129564880D01*
X129555952Y-130564880D01*
X130555952Y-130564880D02*
X129984523Y-130564880D01*
X130270238Y-130564880D02*
X130270238Y-129564880D01*
X130175000Y-129707738D01*
X130079761Y-129802976D01*
X129984523Y-129850595D01*
X131413095Y-129898214D02*
X131413095Y-130564880D01*
X131175000Y-129517261D02*
X130936904Y-130231547D01*
X131555952Y-130231547D01*
%TO.C,M1*%
X110331376Y-111483130D02*
X110331376Y-110483130D01*
X110664709Y-111197416D01*
X110998042Y-110483130D01*
X110998042Y-111483130D01*
X111998042Y-111483130D02*
X111426614Y-111483130D01*
X111712328Y-111483130D02*
X111712328Y-110483130D01*
X111617090Y-110625988D01*
X111521852Y-110721226D01*
X111426614Y-110768845D01*
%TO.C,R2*%
X76731833Y-183489880D02*
X76398500Y-183013690D01*
X76160404Y-183489880D02*
X76160404Y-182489880D01*
X76541357Y-182489880D01*
X76636595Y-182537500D01*
X76684214Y-182585119D01*
X76731833Y-182680357D01*
X76731833Y-182823214D01*
X76684214Y-182918452D01*
X76636595Y-182966071D01*
X76541357Y-183013690D01*
X76160404Y-183013690D01*
X77112785Y-182585119D02*
X77160404Y-182537500D01*
X77255642Y-182489880D01*
X77493738Y-182489880D01*
X77588976Y-182537500D01*
X77636595Y-182585119D01*
X77684214Y-182680357D01*
X77684214Y-182775595D01*
X77636595Y-182918452D01*
X77065166Y-183489880D01*
X77684214Y-183489880D01*
%TO.C,R1*%
X76731833Y-180093880D02*
X76398500Y-179617690D01*
X76160404Y-180093880D02*
X76160404Y-179093880D01*
X76541357Y-179093880D01*
X76636595Y-179141500D01*
X76684214Y-179189119D01*
X76731833Y-179284357D01*
X76731833Y-179427214D01*
X76684214Y-179522452D01*
X76636595Y-179570071D01*
X76541357Y-179617690D01*
X76160404Y-179617690D01*
X77684214Y-180093880D02*
X77112785Y-180093880D01*
X77398500Y-180093880D02*
X77398500Y-179093880D01*
X77303261Y-179236738D01*
X77208023Y-179331976D01*
X77112785Y-179379595D01*
%TO.C,U2*%
X85788595Y-155979880D02*
X85788595Y-156789404D01*
X85836214Y-156884642D01*
X85883833Y-156932261D01*
X85979071Y-156979880D01*
X86169547Y-156979880D01*
X86264785Y-156932261D01*
X86312404Y-156884642D01*
X86360023Y-156789404D01*
X86360023Y-155979880D01*
X86788595Y-156075119D02*
X86836214Y-156027500D01*
X86931452Y-155979880D01*
X87169547Y-155979880D01*
X87264785Y-156027500D01*
X87312404Y-156075119D01*
X87360023Y-156170357D01*
X87360023Y-156265595D01*
X87312404Y-156408452D01*
X86740976Y-156979880D01*
X87360023Y-156979880D01*
%TO.C,U4*%
X85788595Y-194079880D02*
X85788595Y-194889404D01*
X85836214Y-194984642D01*
X85883833Y-195032261D01*
X85979071Y-195079880D01*
X86169547Y-195079880D01*
X86264785Y-195032261D01*
X86312404Y-194984642D01*
X86360023Y-194889404D01*
X86360023Y-194079880D01*
X87264785Y-194413214D02*
X87264785Y-195079880D01*
X87026690Y-194032261D02*
X86788595Y-194746547D01*
X87407642Y-194746547D01*
%TO.C,U1*%
X85788595Y-136929880D02*
X85788595Y-137739404D01*
X85836214Y-137834642D01*
X85883833Y-137882261D01*
X85979071Y-137929880D01*
X86169547Y-137929880D01*
X86264785Y-137882261D01*
X86312404Y-137834642D01*
X86360023Y-137739404D01*
X86360023Y-136929880D01*
X87360023Y-137929880D02*
X86788595Y-137929880D01*
X87074309Y-137929880D02*
X87074309Y-136929880D01*
X86979071Y-137072738D01*
X86883833Y-137167976D01*
X86788595Y-137215595D01*
%TO.C,M44*%
X262239285Y-168664880D02*
X262239285Y-167664880D01*
X262572619Y-168379166D01*
X262905952Y-167664880D01*
X262905952Y-168664880D01*
X263810714Y-167998214D02*
X263810714Y-168664880D01*
X263572619Y-167617261D02*
X263334523Y-168331547D01*
X263953571Y-168331547D01*
X264763095Y-167998214D02*
X264763095Y-168664880D01*
X264525000Y-167617261D02*
X264286904Y-168331547D01*
X264905952Y-168331547D01*
%TO.C,M47*%
X319389285Y-168664880D02*
X319389285Y-167664880D01*
X319722619Y-168379166D01*
X320055952Y-167664880D01*
X320055952Y-168664880D01*
X320960714Y-167998214D02*
X320960714Y-168664880D01*
X320722619Y-167617261D02*
X320484523Y-168331547D01*
X321103571Y-168331547D01*
X321389285Y-167664880D02*
X322055952Y-167664880D01*
X321627380Y-168664880D01*
%TO.C,M46*%
X300339285Y-168664880D02*
X300339285Y-167664880D01*
X300672619Y-168379166D01*
X301005952Y-167664880D01*
X301005952Y-168664880D01*
X301910714Y-167998214D02*
X301910714Y-168664880D01*
X301672619Y-167617261D02*
X301434523Y-168331547D01*
X302053571Y-168331547D01*
X302863095Y-167664880D02*
X302672619Y-167664880D01*
X302577380Y-167712500D01*
X302529761Y-167760119D01*
X302434523Y-167902976D01*
X302386904Y-168093452D01*
X302386904Y-168474404D01*
X302434523Y-168569642D01*
X302482142Y-168617261D01*
X302577380Y-168664880D01*
X302767857Y-168664880D01*
X302863095Y-168617261D01*
X302910714Y-168569642D01*
X302958333Y-168474404D01*
X302958333Y-168236309D01*
X302910714Y-168141071D01*
X302863095Y-168093452D01*
X302767857Y-168045833D01*
X302577380Y-168045833D01*
X302482142Y-168093452D01*
X302434523Y-168141071D01*
X302386904Y-168236309D01*
%TO.C,M45*%
X281289285Y-168664880D02*
X281289285Y-167664880D01*
X281622619Y-168379166D01*
X281955952Y-167664880D01*
X281955952Y-168664880D01*
X282860714Y-167998214D02*
X282860714Y-168664880D01*
X282622619Y-167617261D02*
X282384523Y-168331547D01*
X283003571Y-168331547D01*
X283860714Y-167664880D02*
X283384523Y-167664880D01*
X283336904Y-168141071D01*
X283384523Y-168093452D01*
X283479761Y-168045833D01*
X283717857Y-168045833D01*
X283813095Y-168093452D01*
X283860714Y-168141071D01*
X283908333Y-168236309D01*
X283908333Y-168474404D01*
X283860714Y-168569642D01*
X283813095Y-168617261D01*
X283717857Y-168664880D01*
X283479761Y-168664880D01*
X283384523Y-168617261D01*
X283336904Y-168569642D01*
%TO.C,M43*%
X243189285Y-168664880D02*
X243189285Y-167664880D01*
X243522619Y-168379166D01*
X243855952Y-167664880D01*
X243855952Y-168664880D01*
X244760714Y-167998214D02*
X244760714Y-168664880D01*
X244522619Y-167617261D02*
X244284523Y-168331547D01*
X244903571Y-168331547D01*
X245189285Y-167664880D02*
X245808333Y-167664880D01*
X245475000Y-168045833D01*
X245617857Y-168045833D01*
X245713095Y-168093452D01*
X245760714Y-168141071D01*
X245808333Y-168236309D01*
X245808333Y-168474404D01*
X245760714Y-168569642D01*
X245713095Y-168617261D01*
X245617857Y-168664880D01*
X245332142Y-168664880D01*
X245236904Y-168617261D01*
X245189285Y-168569642D01*
%TO.C,M40*%
X166989285Y-168664880D02*
X166989285Y-167664880D01*
X167322619Y-168379166D01*
X167655952Y-167664880D01*
X167655952Y-168664880D01*
X168560714Y-167998214D02*
X168560714Y-168664880D01*
X168322619Y-167617261D02*
X168084523Y-168331547D01*
X168703571Y-168331547D01*
X169275000Y-167664880D02*
X169370238Y-167664880D01*
X169465476Y-167712500D01*
X169513095Y-167760119D01*
X169560714Y-167855357D01*
X169608333Y-168045833D01*
X169608333Y-168283928D01*
X169560714Y-168474404D01*
X169513095Y-168569642D01*
X169465476Y-168617261D01*
X169370238Y-168664880D01*
X169275000Y-168664880D01*
X169179761Y-168617261D01*
X169132142Y-168569642D01*
X169084523Y-168474404D01*
X169036904Y-168283928D01*
X169036904Y-168045833D01*
X169084523Y-167855357D01*
X169132142Y-167760119D01*
X169179761Y-167712500D01*
X169275000Y-167664880D01*
%TO.C,M39*%
X147939285Y-168664880D02*
X147939285Y-167664880D01*
X148272619Y-168379166D01*
X148605952Y-167664880D01*
X148605952Y-168664880D01*
X148986904Y-167664880D02*
X149605952Y-167664880D01*
X149272619Y-168045833D01*
X149415476Y-168045833D01*
X149510714Y-168093452D01*
X149558333Y-168141071D01*
X149605952Y-168236309D01*
X149605952Y-168474404D01*
X149558333Y-168569642D01*
X149510714Y-168617261D01*
X149415476Y-168664880D01*
X149129761Y-168664880D01*
X149034523Y-168617261D01*
X148986904Y-168569642D01*
X150082142Y-168664880D02*
X150272619Y-168664880D01*
X150367857Y-168617261D01*
X150415476Y-168569642D01*
X150510714Y-168426785D01*
X150558333Y-168236309D01*
X150558333Y-167855357D01*
X150510714Y-167760119D01*
X150463095Y-167712500D01*
X150367857Y-167664880D01*
X150177380Y-167664880D01*
X150082142Y-167712500D01*
X150034523Y-167760119D01*
X149986904Y-167855357D01*
X149986904Y-168093452D01*
X150034523Y-168188690D01*
X150082142Y-168236309D01*
X150177380Y-168283928D01*
X150367857Y-168283928D01*
X150463095Y-168236309D01*
X150510714Y-168188690D01*
X150558333Y-168093452D01*
%TO.C,M38*%
X128889285Y-168664880D02*
X128889285Y-167664880D01*
X129222619Y-168379166D01*
X129555952Y-167664880D01*
X129555952Y-168664880D01*
X129936904Y-167664880D02*
X130555952Y-167664880D01*
X130222619Y-168045833D01*
X130365476Y-168045833D01*
X130460714Y-168093452D01*
X130508333Y-168141071D01*
X130555952Y-168236309D01*
X130555952Y-168474404D01*
X130508333Y-168569642D01*
X130460714Y-168617261D01*
X130365476Y-168664880D01*
X130079761Y-168664880D01*
X129984523Y-168617261D01*
X129936904Y-168569642D01*
X131127380Y-168093452D02*
X131032142Y-168045833D01*
X130984523Y-167998214D01*
X130936904Y-167902976D01*
X130936904Y-167855357D01*
X130984523Y-167760119D01*
X131032142Y-167712500D01*
X131127380Y-167664880D01*
X131317857Y-167664880D01*
X131413095Y-167712500D01*
X131460714Y-167760119D01*
X131508333Y-167855357D01*
X131508333Y-167902976D01*
X131460714Y-167998214D01*
X131413095Y-168045833D01*
X131317857Y-168093452D01*
X131127380Y-168093452D01*
X131032142Y-168141071D01*
X130984523Y-168188690D01*
X130936904Y-168283928D01*
X130936904Y-168474404D01*
X130984523Y-168569642D01*
X131032142Y-168617261D01*
X131127380Y-168664880D01*
X131317857Y-168664880D01*
X131413095Y-168617261D01*
X131460714Y-168569642D01*
X131508333Y-168474404D01*
X131508333Y-168283928D01*
X131460714Y-168188690D01*
X131413095Y-168141071D01*
X131317857Y-168093452D01*
%TO.C,M37*%
X109839285Y-168664880D02*
X109839285Y-167664880D01*
X110172619Y-168379166D01*
X110505952Y-167664880D01*
X110505952Y-168664880D01*
X110886904Y-167664880D02*
X111505952Y-167664880D01*
X111172619Y-168045833D01*
X111315476Y-168045833D01*
X111410714Y-168093452D01*
X111458333Y-168141071D01*
X111505952Y-168236309D01*
X111505952Y-168474404D01*
X111458333Y-168569642D01*
X111410714Y-168617261D01*
X111315476Y-168664880D01*
X111029761Y-168664880D01*
X110934523Y-168617261D01*
X110886904Y-168569642D01*
X111839285Y-167664880D02*
X112505952Y-167664880D01*
X112077380Y-168664880D01*
%TO.C,M36*%
X319389285Y-149583130D02*
X319389285Y-148583130D01*
X319722619Y-149297416D01*
X320055952Y-148583130D01*
X320055952Y-149583130D01*
X320436904Y-148583130D02*
X321055952Y-148583130D01*
X320722619Y-148964083D01*
X320865476Y-148964083D01*
X320960714Y-149011702D01*
X321008333Y-149059321D01*
X321055952Y-149154559D01*
X321055952Y-149392654D01*
X321008333Y-149487892D01*
X320960714Y-149535511D01*
X320865476Y-149583130D01*
X320579761Y-149583130D01*
X320484523Y-149535511D01*
X320436904Y-149487892D01*
X321913095Y-148583130D02*
X321722619Y-148583130D01*
X321627380Y-148630750D01*
X321579761Y-148678369D01*
X321484523Y-148821226D01*
X321436904Y-149011702D01*
X321436904Y-149392654D01*
X321484523Y-149487892D01*
X321532142Y-149535511D01*
X321627380Y-149583130D01*
X321817857Y-149583130D01*
X321913095Y-149535511D01*
X321960714Y-149487892D01*
X322008333Y-149392654D01*
X322008333Y-149154559D01*
X321960714Y-149059321D01*
X321913095Y-149011702D01*
X321817857Y-148964083D01*
X321627380Y-148964083D01*
X321532142Y-149011702D01*
X321484523Y-149059321D01*
X321436904Y-149154559D01*
%TO.C,M35*%
X300339285Y-149583130D02*
X300339285Y-148583130D01*
X300672619Y-149297416D01*
X301005952Y-148583130D01*
X301005952Y-149583130D01*
X301386904Y-148583130D02*
X302005952Y-148583130D01*
X301672619Y-148964083D01*
X301815476Y-148964083D01*
X301910714Y-149011702D01*
X301958333Y-149059321D01*
X302005952Y-149154559D01*
X302005952Y-149392654D01*
X301958333Y-149487892D01*
X301910714Y-149535511D01*
X301815476Y-149583130D01*
X301529761Y-149583130D01*
X301434523Y-149535511D01*
X301386904Y-149487892D01*
X302910714Y-148583130D02*
X302434523Y-148583130D01*
X302386904Y-149059321D01*
X302434523Y-149011702D01*
X302529761Y-148964083D01*
X302767857Y-148964083D01*
X302863095Y-149011702D01*
X302910714Y-149059321D01*
X302958333Y-149154559D01*
X302958333Y-149392654D01*
X302910714Y-149487892D01*
X302863095Y-149535511D01*
X302767857Y-149583130D01*
X302529761Y-149583130D01*
X302434523Y-149535511D01*
X302386904Y-149487892D01*
%TO.C,M34*%
X281289285Y-149583130D02*
X281289285Y-148583130D01*
X281622619Y-149297416D01*
X281955952Y-148583130D01*
X281955952Y-149583130D01*
X282336904Y-148583130D02*
X282955952Y-148583130D01*
X282622619Y-148964083D01*
X282765476Y-148964083D01*
X282860714Y-149011702D01*
X282908333Y-149059321D01*
X282955952Y-149154559D01*
X282955952Y-149392654D01*
X282908333Y-149487892D01*
X282860714Y-149535511D01*
X282765476Y-149583130D01*
X282479761Y-149583130D01*
X282384523Y-149535511D01*
X282336904Y-149487892D01*
X283813095Y-148916464D02*
X283813095Y-149583130D01*
X283575000Y-148535511D02*
X283336904Y-149249797D01*
X283955952Y-149249797D01*
%TO.C,M33*%
X262239285Y-149583130D02*
X262239285Y-148583130D01*
X262572619Y-149297416D01*
X262905952Y-148583130D01*
X262905952Y-149583130D01*
X263286904Y-148583130D02*
X263905952Y-148583130D01*
X263572619Y-148964083D01*
X263715476Y-148964083D01*
X263810714Y-149011702D01*
X263858333Y-149059321D01*
X263905952Y-149154559D01*
X263905952Y-149392654D01*
X263858333Y-149487892D01*
X263810714Y-149535511D01*
X263715476Y-149583130D01*
X263429761Y-149583130D01*
X263334523Y-149535511D01*
X263286904Y-149487892D01*
X264239285Y-148583130D02*
X264858333Y-148583130D01*
X264525000Y-148964083D01*
X264667857Y-148964083D01*
X264763095Y-149011702D01*
X264810714Y-149059321D01*
X264858333Y-149154559D01*
X264858333Y-149392654D01*
X264810714Y-149487892D01*
X264763095Y-149535511D01*
X264667857Y-149583130D01*
X264382142Y-149583130D01*
X264286904Y-149535511D01*
X264239285Y-149487892D01*
%TO.C,M32*%
X243189285Y-149614880D02*
X243189285Y-148614880D01*
X243522619Y-149329166D01*
X243855952Y-148614880D01*
X243855952Y-149614880D01*
X244236904Y-148614880D02*
X244855952Y-148614880D01*
X244522619Y-148995833D01*
X244665476Y-148995833D01*
X244760714Y-149043452D01*
X244808333Y-149091071D01*
X244855952Y-149186309D01*
X244855952Y-149424404D01*
X244808333Y-149519642D01*
X244760714Y-149567261D01*
X244665476Y-149614880D01*
X244379761Y-149614880D01*
X244284523Y-149567261D01*
X244236904Y-149519642D01*
X245236904Y-148710119D02*
X245284523Y-148662500D01*
X245379761Y-148614880D01*
X245617857Y-148614880D01*
X245713095Y-148662500D01*
X245760714Y-148710119D01*
X245808333Y-148805357D01*
X245808333Y-148900595D01*
X245760714Y-149043452D01*
X245189285Y-149614880D01*
X245808333Y-149614880D01*
%TO.C,M31*%
X224139285Y-149614880D02*
X224139285Y-148614880D01*
X224472619Y-149329166D01*
X224805952Y-148614880D01*
X224805952Y-149614880D01*
X225186904Y-148614880D02*
X225805952Y-148614880D01*
X225472619Y-148995833D01*
X225615476Y-148995833D01*
X225710714Y-149043452D01*
X225758333Y-149091071D01*
X225805952Y-149186309D01*
X225805952Y-149424404D01*
X225758333Y-149519642D01*
X225710714Y-149567261D01*
X225615476Y-149614880D01*
X225329761Y-149614880D01*
X225234523Y-149567261D01*
X225186904Y-149519642D01*
X226758333Y-149614880D02*
X226186904Y-149614880D01*
X226472619Y-149614880D02*
X226472619Y-148614880D01*
X226377380Y-148757738D01*
X226282142Y-148852976D01*
X226186904Y-148900595D01*
%TO.C,M30*%
X205089285Y-149583130D02*
X205089285Y-148583130D01*
X205422619Y-149297416D01*
X205755952Y-148583130D01*
X205755952Y-149583130D01*
X206136904Y-148583130D02*
X206755952Y-148583130D01*
X206422619Y-148964083D01*
X206565476Y-148964083D01*
X206660714Y-149011702D01*
X206708333Y-149059321D01*
X206755952Y-149154559D01*
X206755952Y-149392654D01*
X206708333Y-149487892D01*
X206660714Y-149535511D01*
X206565476Y-149583130D01*
X206279761Y-149583130D01*
X206184523Y-149535511D01*
X206136904Y-149487892D01*
X207375000Y-148583130D02*
X207470238Y-148583130D01*
X207565476Y-148630750D01*
X207613095Y-148678369D01*
X207660714Y-148773607D01*
X207708333Y-148964083D01*
X207708333Y-149202178D01*
X207660714Y-149392654D01*
X207613095Y-149487892D01*
X207565476Y-149535511D01*
X207470238Y-149583130D01*
X207375000Y-149583130D01*
X207279761Y-149535511D01*
X207232142Y-149487892D01*
X207184523Y-149392654D01*
X207136904Y-149202178D01*
X207136904Y-148964083D01*
X207184523Y-148773607D01*
X207232142Y-148678369D01*
X207279761Y-148630750D01*
X207375000Y-148583130D01*
%TO.C,M27*%
X147939285Y-149583130D02*
X147939285Y-148583130D01*
X148272619Y-149297416D01*
X148605952Y-148583130D01*
X148605952Y-149583130D01*
X149034523Y-148678369D02*
X149082142Y-148630750D01*
X149177380Y-148583130D01*
X149415476Y-148583130D01*
X149510714Y-148630750D01*
X149558333Y-148678369D01*
X149605952Y-148773607D01*
X149605952Y-148868845D01*
X149558333Y-149011702D01*
X148986904Y-149583130D01*
X149605952Y-149583130D01*
X149939285Y-148583130D02*
X150605952Y-148583130D01*
X150177380Y-149583130D01*
%TO.C,M26*%
X128889285Y-149583130D02*
X128889285Y-148583130D01*
X129222619Y-149297416D01*
X129555952Y-148583130D01*
X129555952Y-149583130D01*
X129984523Y-148678369D02*
X130032142Y-148630750D01*
X130127380Y-148583130D01*
X130365476Y-148583130D01*
X130460714Y-148630750D01*
X130508333Y-148678369D01*
X130555952Y-148773607D01*
X130555952Y-148868845D01*
X130508333Y-149011702D01*
X129936904Y-149583130D01*
X130555952Y-149583130D01*
X131413095Y-148583130D02*
X131222619Y-148583130D01*
X131127380Y-148630750D01*
X131079761Y-148678369D01*
X130984523Y-148821226D01*
X130936904Y-149011702D01*
X130936904Y-149392654D01*
X130984523Y-149487892D01*
X131032142Y-149535511D01*
X131127380Y-149583130D01*
X131317857Y-149583130D01*
X131413095Y-149535511D01*
X131460714Y-149487892D01*
X131508333Y-149392654D01*
X131508333Y-149154559D01*
X131460714Y-149059321D01*
X131413095Y-149011702D01*
X131317857Y-148964083D01*
X131127380Y-148964083D01*
X131032142Y-149011702D01*
X130984523Y-149059321D01*
X130936904Y-149154559D01*
%TO.C,M25*%
X109839285Y-149583130D02*
X109839285Y-148583130D01*
X110172619Y-149297416D01*
X110505952Y-148583130D01*
X110505952Y-149583130D01*
X110934523Y-148678369D02*
X110982142Y-148630750D01*
X111077380Y-148583130D01*
X111315476Y-148583130D01*
X111410714Y-148630750D01*
X111458333Y-148678369D01*
X111505952Y-148773607D01*
X111505952Y-148868845D01*
X111458333Y-149011702D01*
X110886904Y-149583130D01*
X111505952Y-149583130D01*
X112410714Y-148583130D02*
X111934523Y-148583130D01*
X111886904Y-149059321D01*
X111934523Y-149011702D01*
X112029761Y-148964083D01*
X112267857Y-148964083D01*
X112363095Y-149011702D01*
X112410714Y-149059321D01*
X112458333Y-149154559D01*
X112458333Y-149392654D01*
X112410714Y-149487892D01*
X112363095Y-149535511D01*
X112267857Y-149583130D01*
X112029761Y-149583130D01*
X111934523Y-149535511D01*
X111886904Y-149487892D01*
%TO.C,M24*%
X319389285Y-130564880D02*
X319389285Y-129564880D01*
X319722619Y-130279166D01*
X320055952Y-129564880D01*
X320055952Y-130564880D01*
X320484523Y-129660119D02*
X320532142Y-129612500D01*
X320627380Y-129564880D01*
X320865476Y-129564880D01*
X320960714Y-129612500D01*
X321008333Y-129660119D01*
X321055952Y-129755357D01*
X321055952Y-129850595D01*
X321008333Y-129993452D01*
X320436904Y-130564880D01*
X321055952Y-130564880D01*
X321913095Y-129898214D02*
X321913095Y-130564880D01*
X321675000Y-129517261D02*
X321436904Y-130231547D01*
X322055952Y-130231547D01*
%TO.C,M23*%
X300339285Y-130564880D02*
X300339285Y-129564880D01*
X300672619Y-130279166D01*
X301005952Y-129564880D01*
X301005952Y-130564880D01*
X301434523Y-129660119D02*
X301482142Y-129612500D01*
X301577380Y-129564880D01*
X301815476Y-129564880D01*
X301910714Y-129612500D01*
X301958333Y-129660119D01*
X302005952Y-129755357D01*
X302005952Y-129850595D01*
X301958333Y-129993452D01*
X301386904Y-130564880D01*
X302005952Y-130564880D01*
X302339285Y-129564880D02*
X302958333Y-129564880D01*
X302625000Y-129945833D01*
X302767857Y-129945833D01*
X302863095Y-129993452D01*
X302910714Y-130041071D01*
X302958333Y-130136309D01*
X302958333Y-130374404D01*
X302910714Y-130469642D01*
X302863095Y-130517261D01*
X302767857Y-130564880D01*
X302482142Y-130564880D01*
X302386904Y-130517261D01*
X302339285Y-130469642D01*
%TO.C,M22*%
X281289285Y-130564880D02*
X281289285Y-129564880D01*
X281622619Y-130279166D01*
X281955952Y-129564880D01*
X281955952Y-130564880D01*
X282384523Y-129660119D02*
X282432142Y-129612500D01*
X282527380Y-129564880D01*
X282765476Y-129564880D01*
X282860714Y-129612500D01*
X282908333Y-129660119D01*
X282955952Y-129755357D01*
X282955952Y-129850595D01*
X282908333Y-129993452D01*
X282336904Y-130564880D01*
X282955952Y-130564880D01*
X283336904Y-129660119D02*
X283384523Y-129612500D01*
X283479761Y-129564880D01*
X283717857Y-129564880D01*
X283813095Y-129612500D01*
X283860714Y-129660119D01*
X283908333Y-129755357D01*
X283908333Y-129850595D01*
X283860714Y-129993452D01*
X283289285Y-130564880D01*
X283908333Y-130564880D01*
%TO.C,M21*%
X262239285Y-130564880D02*
X262239285Y-129564880D01*
X262572619Y-130279166D01*
X262905952Y-129564880D01*
X262905952Y-130564880D01*
X263334523Y-129660119D02*
X263382142Y-129612500D01*
X263477380Y-129564880D01*
X263715476Y-129564880D01*
X263810714Y-129612500D01*
X263858333Y-129660119D01*
X263905952Y-129755357D01*
X263905952Y-129850595D01*
X263858333Y-129993452D01*
X263286904Y-130564880D01*
X263905952Y-130564880D01*
X264858333Y-130564880D02*
X264286904Y-130564880D01*
X264572619Y-130564880D02*
X264572619Y-129564880D01*
X264477380Y-129707738D01*
X264382142Y-129802976D01*
X264286904Y-129850595D01*
%TO.C,M20*%
X243189285Y-130564880D02*
X243189285Y-129564880D01*
X243522619Y-130279166D01*
X243855952Y-129564880D01*
X243855952Y-130564880D01*
X244284523Y-129660119D02*
X244332142Y-129612500D01*
X244427380Y-129564880D01*
X244665476Y-129564880D01*
X244760714Y-129612500D01*
X244808333Y-129660119D01*
X244855952Y-129755357D01*
X244855952Y-129850595D01*
X244808333Y-129993452D01*
X244236904Y-130564880D01*
X244855952Y-130564880D01*
X245475000Y-129564880D02*
X245570238Y-129564880D01*
X245665476Y-129612500D01*
X245713095Y-129660119D01*
X245760714Y-129755357D01*
X245808333Y-129945833D01*
X245808333Y-130183928D01*
X245760714Y-130374404D01*
X245713095Y-130469642D01*
X245665476Y-130517261D01*
X245570238Y-130564880D01*
X245475000Y-130564880D01*
X245379761Y-130517261D01*
X245332142Y-130469642D01*
X245284523Y-130374404D01*
X245236904Y-130183928D01*
X245236904Y-129945833D01*
X245284523Y-129755357D01*
X245332142Y-129660119D01*
X245379761Y-129612500D01*
X245475000Y-129564880D01*
%TO.C,M19*%
X224139285Y-130533130D02*
X224139285Y-129533130D01*
X224472619Y-130247416D01*
X224805952Y-129533130D01*
X224805952Y-130533130D01*
X225805952Y-130533130D02*
X225234523Y-130533130D01*
X225520238Y-130533130D02*
X225520238Y-129533130D01*
X225425000Y-129675988D01*
X225329761Y-129771226D01*
X225234523Y-129818845D01*
X226282142Y-130533130D02*
X226472619Y-130533130D01*
X226567857Y-130485511D01*
X226615476Y-130437892D01*
X226710714Y-130295035D01*
X226758333Y-130104559D01*
X226758333Y-129723607D01*
X226710714Y-129628369D01*
X226663095Y-129580750D01*
X226567857Y-129533130D01*
X226377380Y-129533130D01*
X226282142Y-129580750D01*
X226234523Y-129628369D01*
X226186904Y-129723607D01*
X226186904Y-129961702D01*
X226234523Y-130056940D01*
X226282142Y-130104559D01*
X226377380Y-130152178D01*
X226567857Y-130152178D01*
X226663095Y-130104559D01*
X226710714Y-130056940D01*
X226758333Y-129961702D01*
%TO.C,M18*%
X205089285Y-130564880D02*
X205089285Y-129564880D01*
X205422619Y-130279166D01*
X205755952Y-129564880D01*
X205755952Y-130564880D01*
X206755952Y-130564880D02*
X206184523Y-130564880D01*
X206470238Y-130564880D02*
X206470238Y-129564880D01*
X206375000Y-129707738D01*
X206279761Y-129802976D01*
X206184523Y-129850595D01*
X207327380Y-129993452D02*
X207232142Y-129945833D01*
X207184523Y-129898214D01*
X207136904Y-129802976D01*
X207136904Y-129755357D01*
X207184523Y-129660119D01*
X207232142Y-129612500D01*
X207327380Y-129564880D01*
X207517857Y-129564880D01*
X207613095Y-129612500D01*
X207660714Y-129660119D01*
X207708333Y-129755357D01*
X207708333Y-129802976D01*
X207660714Y-129898214D01*
X207613095Y-129945833D01*
X207517857Y-129993452D01*
X207327380Y-129993452D01*
X207232142Y-130041071D01*
X207184523Y-130088690D01*
X207136904Y-130183928D01*
X207136904Y-130374404D01*
X207184523Y-130469642D01*
X207232142Y-130517261D01*
X207327380Y-130564880D01*
X207517857Y-130564880D01*
X207613095Y-130517261D01*
X207660714Y-130469642D01*
X207708333Y-130374404D01*
X207708333Y-130183928D01*
X207660714Y-130088690D01*
X207613095Y-130041071D01*
X207517857Y-129993452D01*
%TO.C,M17*%
X186039285Y-130564880D02*
X186039285Y-129564880D01*
X186372619Y-130279166D01*
X186705952Y-129564880D01*
X186705952Y-130564880D01*
X187705952Y-130564880D02*
X187134523Y-130564880D01*
X187420238Y-130564880D02*
X187420238Y-129564880D01*
X187325000Y-129707738D01*
X187229761Y-129802976D01*
X187134523Y-129850595D01*
X188039285Y-129564880D02*
X188705952Y-129564880D01*
X188277380Y-130564880D01*
%TO.C,M16*%
X166989285Y-130564880D02*
X166989285Y-129564880D01*
X167322619Y-130279166D01*
X167655952Y-129564880D01*
X167655952Y-130564880D01*
X168655952Y-130564880D02*
X168084523Y-130564880D01*
X168370238Y-130564880D02*
X168370238Y-129564880D01*
X168275000Y-129707738D01*
X168179761Y-129802976D01*
X168084523Y-129850595D01*
X169513095Y-129564880D02*
X169322619Y-129564880D01*
X169227380Y-129612500D01*
X169179761Y-129660119D01*
X169084523Y-129802976D01*
X169036904Y-129993452D01*
X169036904Y-130374404D01*
X169084523Y-130469642D01*
X169132142Y-130517261D01*
X169227380Y-130564880D01*
X169417857Y-130564880D01*
X169513095Y-130517261D01*
X169560714Y-130469642D01*
X169608333Y-130374404D01*
X169608333Y-130136309D01*
X169560714Y-130041071D01*
X169513095Y-129993452D01*
X169417857Y-129945833D01*
X169227380Y-129945833D01*
X169132142Y-129993452D01*
X169084523Y-130041071D01*
X169036904Y-130136309D01*
%TO.C,M13*%
X109839285Y-130564880D02*
X109839285Y-129564880D01*
X110172619Y-130279166D01*
X110505952Y-129564880D01*
X110505952Y-130564880D01*
X111505952Y-130564880D02*
X110934523Y-130564880D01*
X111220238Y-130564880D02*
X111220238Y-129564880D01*
X111125000Y-129707738D01*
X111029761Y-129802976D01*
X110934523Y-129850595D01*
X111839285Y-129564880D02*
X112458333Y-129564880D01*
X112125000Y-129945833D01*
X112267857Y-129945833D01*
X112363095Y-129993452D01*
X112410714Y-130041071D01*
X112458333Y-130136309D01*
X112458333Y-130374404D01*
X112410714Y-130469642D01*
X112363095Y-130517261D01*
X112267857Y-130564880D01*
X111982142Y-130564880D01*
X111886904Y-130517261D01*
X111839285Y-130469642D01*
%TO.C,M12*%
X319405185Y-111483130D02*
X319405185Y-110483130D01*
X319738519Y-111197416D01*
X320071852Y-110483130D01*
X320071852Y-111483130D01*
X321071852Y-111483130D02*
X320500423Y-111483130D01*
X320786138Y-111483130D02*
X320786138Y-110483130D01*
X320690900Y-110625988D01*
X320595661Y-110721226D01*
X320500423Y-110768845D01*
X321452804Y-110578369D02*
X321500423Y-110530750D01*
X321595661Y-110483130D01*
X321833757Y-110483130D01*
X321928995Y-110530750D01*
X321976614Y-110578369D01*
X322024233Y-110673607D01*
X322024233Y-110768845D01*
X321976614Y-110911702D01*
X321405185Y-111483130D01*
X322024233Y-111483130D01*
%TO.C,M11*%
X300355185Y-111483130D02*
X300355185Y-110483130D01*
X300688519Y-111197416D01*
X301021852Y-110483130D01*
X301021852Y-111483130D01*
X302021852Y-111483130D02*
X301450423Y-111483130D01*
X301736138Y-111483130D02*
X301736138Y-110483130D01*
X301640900Y-110625988D01*
X301545661Y-110721226D01*
X301450423Y-110768845D01*
X302974233Y-111483130D02*
X302402804Y-111483130D01*
X302688519Y-111483130D02*
X302688519Y-110483130D01*
X302593280Y-110625988D01*
X302498042Y-110721226D01*
X302402804Y-110768845D01*
%TO.C,M10*%
X281305185Y-111483130D02*
X281305185Y-110483130D01*
X281638519Y-111197416D01*
X281971852Y-110483130D01*
X281971852Y-111483130D01*
X282971852Y-111483130D02*
X282400423Y-111483130D01*
X282686138Y-111483130D02*
X282686138Y-110483130D01*
X282590900Y-110625988D01*
X282495661Y-110721226D01*
X282400423Y-110768845D01*
X283590900Y-110483130D02*
X283686138Y-110483130D01*
X283781376Y-110530750D01*
X283828995Y-110578369D01*
X283876614Y-110673607D01*
X283924233Y-110864083D01*
X283924233Y-111102178D01*
X283876614Y-111292654D01*
X283828995Y-111387892D01*
X283781376Y-111435511D01*
X283686138Y-111483130D01*
X283590900Y-111483130D01*
X283495661Y-111435511D01*
X283448042Y-111387892D01*
X283400423Y-111292654D01*
X283352804Y-111102178D01*
X283352804Y-110864083D01*
X283400423Y-110673607D01*
X283448042Y-110578369D01*
X283495661Y-110530750D01*
X283590900Y-110483130D01*
%TO.C,M9*%
X262731376Y-111483130D02*
X262731376Y-110483130D01*
X263064709Y-111197416D01*
X263398042Y-110483130D01*
X263398042Y-111483130D01*
X263921852Y-111483130D02*
X264112328Y-111483130D01*
X264207566Y-111435511D01*
X264255185Y-111387892D01*
X264350423Y-111245035D01*
X264398042Y-111054559D01*
X264398042Y-110673607D01*
X264350423Y-110578369D01*
X264302804Y-110530750D01*
X264207566Y-110483130D01*
X264017090Y-110483130D01*
X263921852Y-110530750D01*
X263874233Y-110578369D01*
X263826614Y-110673607D01*
X263826614Y-110911702D01*
X263874233Y-111006940D01*
X263921852Y-111054559D01*
X264017090Y-111102178D01*
X264207566Y-111102178D01*
X264302804Y-111054559D01*
X264350423Y-111006940D01*
X264398042Y-110911702D01*
%TO.C,M8*%
X243681376Y-111483130D02*
X243681376Y-110483130D01*
X244014709Y-111197416D01*
X244348042Y-110483130D01*
X244348042Y-111483130D01*
X244967090Y-110911702D02*
X244871852Y-110864083D01*
X244824233Y-110816464D01*
X244776614Y-110721226D01*
X244776614Y-110673607D01*
X244824233Y-110578369D01*
X244871852Y-110530750D01*
X244967090Y-110483130D01*
X245157566Y-110483130D01*
X245252804Y-110530750D01*
X245300423Y-110578369D01*
X245348042Y-110673607D01*
X245348042Y-110721226D01*
X245300423Y-110816464D01*
X245252804Y-110864083D01*
X245157566Y-110911702D01*
X244967090Y-110911702D01*
X244871852Y-110959321D01*
X244824233Y-111006940D01*
X244776614Y-111102178D01*
X244776614Y-111292654D01*
X244824233Y-111387892D01*
X244871852Y-111435511D01*
X244967090Y-111483130D01*
X245157566Y-111483130D01*
X245252804Y-111435511D01*
X245300423Y-111387892D01*
X245348042Y-111292654D01*
X245348042Y-111102178D01*
X245300423Y-111006940D01*
X245252804Y-110959321D01*
X245157566Y-110911702D01*
%TO.C,M7*%
X224631376Y-111483130D02*
X224631376Y-110483130D01*
X224964709Y-111197416D01*
X225298042Y-110483130D01*
X225298042Y-111483130D01*
X225678995Y-110483130D02*
X226345661Y-110483130D01*
X225917090Y-111483130D01*
%TO.C,M6*%
X205581376Y-111483130D02*
X205581376Y-110483130D01*
X205914709Y-111197416D01*
X206248042Y-110483130D01*
X206248042Y-111483130D01*
X207152804Y-110483130D02*
X206962328Y-110483130D01*
X206867090Y-110530750D01*
X206819471Y-110578369D01*
X206724233Y-110721226D01*
X206676614Y-110911702D01*
X206676614Y-111292654D01*
X206724233Y-111387892D01*
X206771852Y-111435511D01*
X206867090Y-111483130D01*
X207057566Y-111483130D01*
X207152804Y-111435511D01*
X207200423Y-111387892D01*
X207248042Y-111292654D01*
X207248042Y-111054559D01*
X207200423Y-110959321D01*
X207152804Y-110911702D01*
X207057566Y-110864083D01*
X206867090Y-110864083D01*
X206771852Y-110911702D01*
X206724233Y-110959321D01*
X206676614Y-111054559D01*
%TO.C,M5*%
X186531376Y-111483130D02*
X186531376Y-110483130D01*
X186864709Y-111197416D01*
X187198042Y-110483130D01*
X187198042Y-111483130D01*
X188150423Y-110483130D02*
X187674233Y-110483130D01*
X187626614Y-110959321D01*
X187674233Y-110911702D01*
X187769471Y-110864083D01*
X188007566Y-110864083D01*
X188102804Y-110911702D01*
X188150423Y-110959321D01*
X188198042Y-111054559D01*
X188198042Y-111292654D01*
X188150423Y-111387892D01*
X188102804Y-111435511D01*
X188007566Y-111483130D01*
X187769471Y-111483130D01*
X187674233Y-111435511D01*
X187626614Y-111387892D01*
%TO.C,M4*%
X167481376Y-111483130D02*
X167481376Y-110483130D01*
X167814709Y-111197416D01*
X168148042Y-110483130D01*
X168148042Y-111483130D01*
X169052804Y-110816464D02*
X169052804Y-111483130D01*
X168814709Y-110435511D02*
X168576614Y-111149797D01*
X169195661Y-111149797D01*
%TO.C,M3*%
X148431376Y-111483130D02*
X148431376Y-110483130D01*
X148764709Y-111197416D01*
X149098042Y-110483130D01*
X149098042Y-111483130D01*
X149478995Y-110483130D02*
X150098042Y-110483130D01*
X149764709Y-110864083D01*
X149907566Y-110864083D01*
X150002804Y-110911702D01*
X150050423Y-110959321D01*
X150098042Y-111054559D01*
X150098042Y-111292654D01*
X150050423Y-111387892D01*
X150002804Y-111435511D01*
X149907566Y-111483130D01*
X149621852Y-111483130D01*
X149526614Y-111435511D01*
X149478995Y-111387892D01*
%TO.C,M2*%
X129381376Y-111483130D02*
X129381376Y-110483130D01*
X129714709Y-111197416D01*
X130048042Y-110483130D01*
X130048042Y-111483130D01*
X130476614Y-110578369D02*
X130524233Y-110530750D01*
X130619471Y-110483130D01*
X130857566Y-110483130D01*
X130952804Y-110530750D01*
X131000423Y-110578369D01*
X131048042Y-110673607D01*
X131048042Y-110768845D01*
X131000423Y-110911702D01*
X130428995Y-111483130D01*
X131048042Y-111483130D01*
%TD*%
M02*
