M48
; DRILL file {KiCad (5.1.10)-1} date 10/30/21 02:48:08
; FORMAT={-:-/ absolute / inch / decimal}
; #@! TF.CreationDate,2021-10-30T02:48:08-04:00
; #@! TF.GenerationSoftware,Kicad,Pcbnew,(5.1.10)-1
FMAT,2
INCH
T1C0.0157
T2C0.0472
T3C0.1260
T4C0.0472
T5C0.0709
T6C0.1260
%
G90
G05
T1
X2.75Y-4.75
X2.75Y-5.5312
X2.7812Y-6.2812
X2.7812Y-7.0312
X2.8075Y-4.8825
X2.8375Y-5.6625
X2.8675Y-6.4425
X2.8975Y-7.2225
X2.9275Y-5.1125
X2.9275Y-5.8525
X2.9275Y-6.6125
X2.9875Y-6.6666
X2.9934Y-5.9225
X3.0034Y-5.1825
X3.0312Y-4.75
X3.0312Y-5.5312
X3.0625Y-6.2812
X3.0625Y-7.0312
X3.1425Y-5.2175
X3.1525Y-5.9675
X3.1525Y-7.4675
X3.1625Y-6.7175
X3.2925Y-4.7675
X3.2925Y-4.8175
X3.2925Y-4.8675
X3.2925Y-4.9175
X3.2925Y-5.1675
X3.2925Y-5.5175
X3.2925Y-5.5675
X3.2925Y-5.6175
X3.2925Y-5.6675
X3.2925Y-5.9175
X3.3025Y-6.2675
X3.3025Y-6.3175
X3.3025Y-6.3675
X3.3025Y-6.4175
X3.3025Y-6.6675
X3.3125Y-7.0175
X3.3125Y-7.0675
X3.3125Y-7.1175
X3.3125Y-7.4175
X3.5025Y-6.0675
X3.5025Y-7.5675
X3.5125Y-5.3175
X3.5125Y-6.8175
X3.5125Y-6.9175
X3.9062Y-4.0842
T2
X4.375Y-5.2052
X4.375Y-5.954
X4.375Y-6.7052
X4.3756Y-4.454
X4.5719Y-5.2879
X4.5719Y-6.0366
X4.5719Y-6.7879
X4.5725Y-4.5366
X5.125Y-5.2052
X5.125Y-5.954
X5.125Y-6.7052
X5.1256Y-4.454
X5.3219Y-5.2879
X5.3219Y-6.0366
X5.3219Y-6.7879
X5.3225Y-4.5366
X5.875Y-5.2052
X5.875Y-5.954
X5.875Y-6.7052
X5.8756Y-4.454
X6.0719Y-5.2879
X6.0719Y-6.0366
X6.0719Y-6.7879
X6.0725Y-4.5366
X6.625Y-5.2052
X6.625Y-5.9552
X6.625Y-6.7052
X6.6256Y-4.454
X6.8219Y-5.2879
X6.8219Y-6.0379
X6.8219Y-6.7879
X6.8225Y-4.5366
X7.375Y-5.2052
X7.375Y-5.9552
X7.375Y-6.7052
X7.3756Y-4.454
X7.5719Y-5.2879
X7.5719Y-6.0379
X7.5719Y-6.7879
X7.5725Y-4.5366
X8.125Y-5.2052
X8.125Y-5.954
X8.1256Y-4.454
X8.3219Y-5.2879
X8.3219Y-6.0366
X8.3225Y-4.5366
X8.5Y-6.7052
X8.6969Y-6.7879
X8.875Y-5.204
X8.875Y-5.9552
X8.8756Y-4.454
X9.0719Y-5.2866
X9.0719Y-6.0379
X9.0725Y-4.5366
X9.625Y-5.2052
X9.625Y-5.9552
X9.625Y-6.7052
X9.6256Y-4.454
X9.8219Y-5.2879
X9.8219Y-6.0379
X9.8219Y-6.7879
X9.8225Y-4.5366
X10.375Y-5.2052
X10.375Y-5.954
X10.375Y-6.7052
X10.3756Y-4.454
X10.5719Y-5.2879
X10.5719Y-6.0366
X10.5719Y-6.7879
X10.5725Y-4.5366
X11.125Y-5.2052
X11.125Y-5.954
X11.125Y-6.7052
X11.1256Y-4.454
X11.3219Y-5.2879
X11.3219Y-6.0366
X11.3219Y-6.7879
X11.3225Y-4.5366
X11.875Y-5.2052
X11.875Y-5.954
X11.875Y-6.7052
X11.8756Y-4.454
X12.0719Y-5.2879
X12.0719Y-6.0366
X12.0719Y-6.7879
X12.0725Y-4.5366
X12.625Y-5.2052
X12.625Y-5.954
X12.625Y-6.7052
X12.6256Y-4.454
X12.8219Y-5.2879
X12.8219Y-6.0366
X12.8219Y-6.7879
X12.8225Y-4.5366
T3
X2.8438Y-7.5938
X4.125Y-4.0
X7.9375Y-7.5938
X8.4688Y-4.0
X13.1562Y-3.9688
X13.1562Y-7.5938
T4
X4.1695Y-5.6029
X4.1695Y-6.3516
X4.1695Y-7.1029
X4.1701Y-4.8516
X4.9195Y-5.6029
X4.9195Y-6.3516
X4.9195Y-7.1029
X4.9201Y-4.8516
X5.6695Y-5.6029
X5.6695Y-6.3516
X5.6695Y-7.1029
X5.6701Y-4.8516
X6.4195Y-5.6029
X6.4195Y-6.3529
X6.4195Y-7.1029
X6.4201Y-4.8516
X7.1695Y-5.6029
X7.1695Y-6.3529
X7.1695Y-7.1029
X7.1701Y-4.8516
X7.9195Y-5.6029
X7.9195Y-6.3516
X7.9201Y-4.8516
X8.2945Y-7.1029
X8.6695Y-5.6016
X8.6695Y-6.3529
X8.6701Y-4.8516
X9.4195Y-5.6029
X9.4195Y-6.3529
X9.4195Y-7.1029
X9.4201Y-4.8516
X10.1695Y-5.6029
X10.1695Y-6.3516
X10.1695Y-7.1029
X10.1701Y-4.8516
X10.9195Y-5.6029
X10.9195Y-6.3516
X10.9195Y-7.1029
X10.9201Y-4.8516
X11.6695Y-5.6029
X11.6695Y-6.3516
X11.6695Y-7.1029
X11.6701Y-4.8516
X12.4195Y-5.6029
X12.4195Y-6.3516
X12.4195Y-7.1029
X12.4201Y-4.8516
T5
X4.1585Y-5.4375
X4.1585Y-6.1863
X4.1585Y-6.9375
X4.1591Y-4.6863
X4.5915Y-5.4375
X4.5915Y-6.1863
X4.5915Y-6.9375
X4.5922Y-4.6863
X4.9085Y-5.4375
X4.9085Y-6.1863
X4.9085Y-6.9375
X4.9091Y-4.6863
X5.3415Y-5.4375
X5.3415Y-6.1863
X5.3415Y-6.9375
X5.3422Y-4.6863
X5.6585Y-5.4375
X5.6585Y-6.1863
X5.6585Y-6.9375
X5.6591Y-4.6863
X6.0915Y-5.4375
X6.0915Y-6.1863
X6.0915Y-6.9375
X6.0922Y-4.6863
X6.4085Y-5.4375
X6.4085Y-6.1875
X6.4085Y-6.9375
X6.4091Y-4.6863
X6.8415Y-5.4375
X6.8415Y-6.1875
X6.8415Y-6.9375
X6.8422Y-4.6863
X7.1585Y-5.4375
X7.1585Y-6.1875
X7.1585Y-6.9375
X7.1591Y-4.6863
X7.5915Y-5.4375
X7.5915Y-6.1875
X7.5915Y-6.9375
X7.5922Y-4.6863
X7.9085Y-5.4375
X7.9085Y-6.1863
X7.9091Y-4.6863
X8.2835Y-6.9375
X8.3415Y-5.4375
X8.3415Y-6.1863
X8.3422Y-4.6863
X8.6585Y-5.4363
X8.6585Y-6.1875
X8.6591Y-4.6863
X8.7165Y-6.9375
X9.0915Y-5.4363
X9.0915Y-6.1875
X9.0922Y-4.6863
X9.4085Y-5.4375
X9.4085Y-6.1875
X9.4085Y-6.9375
X9.4091Y-4.6863
X9.8415Y-5.4375
X9.8415Y-6.1875
X9.8415Y-6.9375
X9.8422Y-4.6863
X10.1585Y-5.4375
X10.1585Y-6.1863
X10.1585Y-6.9375
X10.1591Y-4.6863
X10.5915Y-5.4375
X10.5915Y-6.1863
X10.5915Y-6.9375
X10.5922Y-4.6863
X10.9085Y-5.4375
X10.9085Y-6.1863
X10.9085Y-6.9375
X10.9091Y-4.6863
X11.3415Y-5.4375
X11.3415Y-6.1863
X11.3415Y-6.9375
X11.3422Y-4.6863
X11.6585Y-5.4375
X11.6585Y-6.1863
X11.6585Y-6.9375
X11.6591Y-4.6863
X12.0915Y-5.4375
X12.0915Y-6.1863
X12.0915Y-6.9375
X12.0922Y-4.6863
X12.4085Y-5.4375
X12.4085Y-6.1863
X12.4085Y-6.9375
X12.4091Y-4.6863
X12.8415Y-5.4375
X12.8415Y-6.1863
X12.8415Y-6.9375
X12.8422Y-4.6863
T6
X4.375Y-5.4375
X4.375Y-6.1863
X4.375Y-6.9375
X4.3756Y-4.6863
X5.125Y-5.4375
X5.125Y-6.1863
X5.125Y-6.9375
X5.1256Y-4.6863
X5.875Y-5.4375
X5.875Y-6.1863
X5.875Y-6.9375
X5.8756Y-4.6863
X6.625Y-5.4375
X6.625Y-6.1875
X6.625Y-6.9375
X6.6256Y-4.6863
X7.375Y-5.4375
X7.375Y-6.1875
X7.375Y-6.9375
X7.3756Y-4.6863
X8.125Y-5.4375
X8.125Y-6.1863
X8.1256Y-4.6863
X8.5Y-6.9375
X8.875Y-5.4363
X8.875Y-6.1875
X8.8756Y-4.6863
X9.625Y-5.4375
X9.625Y-6.1875
X9.625Y-6.9375
X9.6256Y-4.6863
X10.375Y-5.4375
X10.375Y-6.1863
X10.375Y-6.9375
X10.3756Y-4.6863
X11.125Y-5.4375
X11.125Y-6.1863
X11.125Y-6.9375
X11.1256Y-4.6863
X11.875Y-5.4375
X11.875Y-6.1863
X11.875Y-6.9375
X11.8756Y-4.6863
X12.625Y-5.4375
X12.625Y-6.1863
X12.625Y-6.9375
X12.6256Y-4.6863
T0
M30
