%TF.GenerationSoftware,KiCad,Pcbnew,(5.1.10)-1*%
%TF.CreationDate,2021-10-30T01:15:37-04:00*%
%TF.ProjectId,keyboard,6b657962-6f61-4726-942e-6b696361645f,rev?*%
%TF.SameCoordinates,Original*%
%TF.FileFunction,Legend,Top*%
%TF.FilePolarity,Positive*%
%FSLAX46Y46*%
G04 Gerber Fmt 4.6, Leading zero omitted, Abs format (unit mm)*
G04 Created by KiCad (PCBNEW (5.1.10)-1) date 2021-10-30 01:15:37*
%MOMM*%
%LPD*%
G01*
G04 APERTURE LIST*
%ADD10C,0.100000*%
%ADD11C,0.127000*%
%ADD12C,0.066040*%
%ADD13C,0.200000*%
%ADD14C,0.152400*%
%ADD15C,0.120000*%
%ADD16C,0.101600*%
%ADD17C,0.076200*%
%ADD18C,0.150000*%
G04 APERTURE END LIST*
D10*
%TO.C,C1*%
X-16336409Y-48768000D02*
G75*
G03*
X-16336409Y-48768000I-254000J0D01*
G01*
D11*
X-15701409Y-46601380D02*
X-15701409Y-66929000D01*
X-15030849Y-45930820D02*
X-15701409Y-46601380D01*
X2096371Y-45930820D02*
X-15030849Y-45930820D01*
X2096371Y-66929000D02*
X2096371Y-45930820D01*
X-15701409Y-66929000D02*
X2096371Y-66929000D01*
D12*
X-3382409Y-48514000D02*
X-3382409Y-45847000D01*
X-3382409Y-45847000D02*
X-1604409Y-45847000D01*
X-1604409Y-48514000D02*
X-1604409Y-45847000D01*
X-3382409Y-48514000D02*
X-1604409Y-48514000D01*
X-3382409Y-52580540D02*
X-3382409Y-49911000D01*
X-3382409Y-49911000D02*
X-1604409Y-49911000D01*
X-1604409Y-52580540D02*
X-1604409Y-49911000D01*
X-3382409Y-52580540D02*
X-1604409Y-52580540D01*
X-12018409Y-52580540D02*
X-12018409Y-49911000D01*
X-12018409Y-49911000D02*
X-10240409Y-49911000D01*
X-10240409Y-52580540D02*
X-10240409Y-49911000D01*
X-12018409Y-52580540D02*
X-10240409Y-52580540D01*
X-12018409Y-48514000D02*
X-12018409Y-45847000D01*
X-12018409Y-45847000D02*
X-10240409Y-45847000D01*
X-10240409Y-48514000D02*
X-10240409Y-45847000D01*
X-12018409Y-48514000D02*
X-10240409Y-48514000D01*
X-9351409Y-66294000D02*
X-9351409Y-63754000D01*
X-9351409Y-63754000D02*
X-3636409Y-63754000D01*
X-3636409Y-66294000D02*
X-3636409Y-63754000D01*
X-9351409Y-66294000D02*
X-3636409Y-66294000D01*
X-9351409Y-49149000D02*
X-9351409Y-46609000D01*
X-9351409Y-46609000D02*
X-4271409Y-46609000D01*
X-4271409Y-49149000D02*
X-4271409Y-46609000D01*
X-9351409Y-49149000D02*
X-4271409Y-49149000D01*
D13*
%TO.C,U3*%
X-12012000Y-105962000D02*
G75*
G03*
X-12012000Y-105962000I-200000J0D01*
G01*
D14*
X-10922000Y-106019600D02*
X-10922000Y-106197400D01*
X-7416800Y-106019600D02*
X-10922000Y-106019600D01*
X-6807200Y-106019600D02*
X-7416800Y-106019600D01*
X-3302000Y-106019600D02*
X-6807200Y-106019600D01*
X-3302000Y-124104400D02*
X-3302000Y-123926600D01*
X-10922000Y-124104400D02*
X-3302000Y-124104400D01*
X-10922000Y-123926600D02*
X-10922000Y-124104400D01*
X-3302000Y-106197400D02*
X-3302000Y-106019600D01*
D10*
X-6807200Y-106019600D02*
G75*
G02*
X-7416800Y-106019600I-304800J0D01*
G01*
D15*
%TO.C,M42*%
X129337500Y-116725000D02*
X115137500Y-116725000D01*
X129337500Y-130925000D02*
X129337500Y-116725000D01*
X115137500Y-130925000D02*
X129337500Y-130925000D01*
X115137500Y-116725000D02*
X115137500Y-130925000D01*
%TO.C,M41*%
X100762500Y-116725000D02*
X86562500Y-116725000D01*
X100762500Y-130925000D02*
X100762500Y-116725000D01*
X86562500Y-130925000D02*
X100762500Y-130925000D01*
X86562500Y-116725000D02*
X86562500Y-130925000D01*
%TO.C,M29*%
X100762500Y-97675000D02*
X86562500Y-97675000D01*
X100762500Y-111875000D02*
X100762500Y-97675000D01*
X86562500Y-111875000D02*
X100762500Y-111875000D01*
X86562500Y-97675000D02*
X86562500Y-111875000D01*
%TO.C,M28*%
X81712500Y-97675000D02*
X67512500Y-97675000D01*
X81712500Y-111875000D02*
X81712500Y-97675000D01*
X67512500Y-111875000D02*
X81712500Y-111875000D01*
X67512500Y-97675000D02*
X67512500Y-111875000D01*
%TO.C,M15*%
X62662500Y-78625000D02*
X48462500Y-78625000D01*
X62662500Y-92825000D02*
X62662500Y-78625000D01*
X48462500Y-92825000D02*
X62662500Y-92825000D01*
X48462500Y-78625000D02*
X48462500Y-92825000D01*
%TO.C,M14*%
X43612500Y-78625000D02*
X29412500Y-78625000D01*
X43612500Y-92825000D02*
X43612500Y-78625000D01*
X29412500Y-92825000D02*
X43612500Y-92825000D01*
X29412500Y-78625000D02*
X29412500Y-92825000D01*
%TO.C,M1*%
X24578400Y-59543250D02*
X10378400Y-59543250D01*
X24578400Y-73743250D02*
X24578400Y-59543250D01*
X10378400Y-73743250D02*
X24578400Y-73743250D01*
X10378400Y-59543250D02*
X10378400Y-73743250D01*
%TO.C,R2*%
X-18716258Y-131557500D02*
X-18241742Y-131557500D01*
X-18716258Y-132602500D02*
X-18241742Y-132602500D01*
%TO.C,R1*%
X-17479742Y-129300500D02*
X-17954258Y-129300500D01*
X-17479742Y-128255500D02*
X-17954258Y-128255500D01*
D13*
%TO.C,U2*%
X-12012000Y-86912000D02*
G75*
G03*
X-12012000Y-86912000I-200000J0D01*
G01*
D14*
X-10922000Y-86969600D02*
X-10922000Y-87147400D01*
X-7416800Y-86969600D02*
X-10922000Y-86969600D01*
X-6807200Y-86969600D02*
X-7416800Y-86969600D01*
X-3302000Y-86969600D02*
X-6807200Y-86969600D01*
X-3302000Y-105054400D02*
X-3302000Y-104876600D01*
X-10922000Y-105054400D02*
X-3302000Y-105054400D01*
X-10922000Y-104876600D02*
X-10922000Y-105054400D01*
X-3302000Y-87147400D02*
X-3302000Y-86969600D01*
D10*
X-6807200Y-86969600D02*
G75*
G02*
X-7416800Y-86969600I-304800J0D01*
G01*
D13*
%TO.C,U4*%
X-12012000Y-125012000D02*
G75*
G03*
X-12012000Y-125012000I-200000J0D01*
G01*
D14*
X-10922000Y-125069600D02*
X-10922000Y-125247400D01*
X-7416800Y-125069600D02*
X-10922000Y-125069600D01*
X-6807200Y-125069600D02*
X-7416800Y-125069600D01*
X-3302000Y-125069600D02*
X-6807200Y-125069600D01*
X-3302000Y-143154400D02*
X-3302000Y-142976600D01*
X-10922000Y-143154400D02*
X-3302000Y-143154400D01*
X-10922000Y-142976600D02*
X-10922000Y-143154400D01*
X-3302000Y-125247400D02*
X-3302000Y-125069600D01*
D10*
X-6807200Y-125069600D02*
G75*
G02*
X-7416800Y-125069600I-304800J0D01*
G01*
D13*
%TO.C,U1*%
X-12012000Y-67862000D02*
G75*
G03*
X-12012000Y-67862000I-200000J0D01*
G01*
D14*
X-10922000Y-67919600D02*
X-10922000Y-68097400D01*
X-7416800Y-67919600D02*
X-10922000Y-67919600D01*
X-6807200Y-67919600D02*
X-7416800Y-67919600D01*
X-3302000Y-67919600D02*
X-6807200Y-67919600D01*
X-3302000Y-86004400D02*
X-3302000Y-85826600D01*
X-10922000Y-86004400D02*
X-3302000Y-86004400D01*
X-10922000Y-85826600D02*
X-10922000Y-86004400D01*
X-3302000Y-68097400D02*
X-3302000Y-67919600D01*
D10*
X-6807200Y-67919600D02*
G75*
G02*
X-7416800Y-67919600I-304800J0D01*
G01*
D15*
%TO.C,M44*%
X176962500Y-116725000D02*
X162762500Y-116725000D01*
X176962500Y-130925000D02*
X176962500Y-116725000D01*
X162762500Y-130925000D02*
X176962500Y-130925000D01*
X162762500Y-116725000D02*
X162762500Y-130925000D01*
%TO.C,M47*%
X234112500Y-116725000D02*
X219912500Y-116725000D01*
X234112500Y-130925000D02*
X234112500Y-116725000D01*
X219912500Y-130925000D02*
X234112500Y-130925000D01*
X219912500Y-116725000D02*
X219912500Y-130925000D01*
%TO.C,M46*%
X215062500Y-116725000D02*
X200862500Y-116725000D01*
X215062500Y-130925000D02*
X215062500Y-116725000D01*
X200862500Y-130925000D02*
X215062500Y-130925000D01*
X200862500Y-116725000D02*
X200862500Y-130925000D01*
%TO.C,M45*%
X196012500Y-116725000D02*
X181812500Y-116725000D01*
X196012500Y-130925000D02*
X196012500Y-116725000D01*
X181812500Y-130925000D02*
X196012500Y-130925000D01*
X181812500Y-116725000D02*
X181812500Y-130925000D01*
%TO.C,M43*%
X157912500Y-116725000D02*
X143712500Y-116725000D01*
X157912500Y-130925000D02*
X157912500Y-116725000D01*
X143712500Y-130925000D02*
X157912500Y-130925000D01*
X143712500Y-116725000D02*
X143712500Y-130925000D01*
%TO.C,M40*%
X81712500Y-116725000D02*
X67512500Y-116725000D01*
X81712500Y-130925000D02*
X81712500Y-116725000D01*
X67512500Y-130925000D02*
X81712500Y-130925000D01*
X67512500Y-116725000D02*
X67512500Y-130925000D01*
%TO.C,M39*%
X62662500Y-116725000D02*
X48462500Y-116725000D01*
X62662500Y-130925000D02*
X62662500Y-116725000D01*
X48462500Y-130925000D02*
X62662500Y-130925000D01*
X48462500Y-116725000D02*
X48462500Y-130925000D01*
%TO.C,M38*%
X43612500Y-116725000D02*
X29412500Y-116725000D01*
X43612500Y-130925000D02*
X43612500Y-116725000D01*
X29412500Y-130925000D02*
X43612500Y-130925000D01*
X29412500Y-116725000D02*
X29412500Y-130925000D01*
%TO.C,M37*%
X24562500Y-116725000D02*
X10362500Y-116725000D01*
X24562500Y-130925000D02*
X24562500Y-116725000D01*
X10362500Y-130925000D02*
X24562500Y-130925000D01*
X10362500Y-116725000D02*
X10362500Y-130925000D01*
%TO.C,M36*%
X234112500Y-97643250D02*
X219912500Y-97643250D01*
X234112500Y-111843250D02*
X234112500Y-97643250D01*
X219912500Y-111843250D02*
X234112500Y-111843250D01*
X219912500Y-97643250D02*
X219912500Y-111843250D01*
%TO.C,M35*%
X215062500Y-97643250D02*
X200862500Y-97643250D01*
X215062500Y-111843250D02*
X215062500Y-97643250D01*
X200862500Y-111843250D02*
X215062500Y-111843250D01*
X200862500Y-97643250D02*
X200862500Y-111843250D01*
%TO.C,M34*%
X196012500Y-97643250D02*
X181812500Y-97643250D01*
X196012500Y-111843250D02*
X196012500Y-97643250D01*
X181812500Y-111843250D02*
X196012500Y-111843250D01*
X181812500Y-97643250D02*
X181812500Y-111843250D01*
%TO.C,M33*%
X176962500Y-97643250D02*
X162762500Y-97643250D01*
X176962500Y-111843250D02*
X176962500Y-97643250D01*
X162762500Y-111843250D02*
X176962500Y-111843250D01*
X162762500Y-97643250D02*
X162762500Y-111843250D01*
%TO.C,M32*%
X157912500Y-97675000D02*
X143712500Y-97675000D01*
X157912500Y-111875000D02*
X157912500Y-97675000D01*
X143712500Y-111875000D02*
X157912500Y-111875000D01*
X143712500Y-97675000D02*
X143712500Y-111875000D01*
%TO.C,M31*%
X138862500Y-97675000D02*
X124662500Y-97675000D01*
X138862500Y-111875000D02*
X138862500Y-97675000D01*
X124662500Y-111875000D02*
X138862500Y-111875000D01*
X124662500Y-97675000D02*
X124662500Y-111875000D01*
%TO.C,M30*%
X119812500Y-97643250D02*
X105612500Y-97643250D01*
X119812500Y-111843250D02*
X119812500Y-97643250D01*
X105612500Y-111843250D02*
X119812500Y-111843250D01*
X105612500Y-97643250D02*
X105612500Y-111843250D01*
%TO.C,M27*%
X62662500Y-97643250D02*
X48462500Y-97643250D01*
X62662500Y-111843250D02*
X62662500Y-97643250D01*
X48462500Y-111843250D02*
X62662500Y-111843250D01*
X48462500Y-97643250D02*
X48462500Y-111843250D01*
%TO.C,M26*%
X43612500Y-97643250D02*
X29412500Y-97643250D01*
X43612500Y-111843250D02*
X43612500Y-97643250D01*
X29412500Y-111843250D02*
X43612500Y-111843250D01*
X29412500Y-97643250D02*
X29412500Y-111843250D01*
%TO.C,M25*%
X24562500Y-97643250D02*
X10362500Y-97643250D01*
X24562500Y-111843250D02*
X24562500Y-97643250D01*
X10362500Y-111843250D02*
X24562500Y-111843250D01*
X10362500Y-97643250D02*
X10362500Y-111843250D01*
%TO.C,M24*%
X234112500Y-78625000D02*
X219912500Y-78625000D01*
X234112500Y-92825000D02*
X234112500Y-78625000D01*
X219912500Y-92825000D02*
X234112500Y-92825000D01*
X219912500Y-78625000D02*
X219912500Y-92825000D01*
%TO.C,M23*%
X215062500Y-78625000D02*
X200862500Y-78625000D01*
X215062500Y-92825000D02*
X215062500Y-78625000D01*
X200862500Y-92825000D02*
X215062500Y-92825000D01*
X200862500Y-78625000D02*
X200862500Y-92825000D01*
%TO.C,M22*%
X196012500Y-78625000D02*
X181812500Y-78625000D01*
X196012500Y-92825000D02*
X196012500Y-78625000D01*
X181812500Y-92825000D02*
X196012500Y-92825000D01*
X181812500Y-78625000D02*
X181812500Y-92825000D01*
%TO.C,M21*%
X176962500Y-78625000D02*
X162762500Y-78625000D01*
X176962500Y-92825000D02*
X176962500Y-78625000D01*
X162762500Y-92825000D02*
X176962500Y-92825000D01*
X162762500Y-78625000D02*
X162762500Y-92825000D01*
%TO.C,M20*%
X157912500Y-78625000D02*
X143712500Y-78625000D01*
X157912500Y-92825000D02*
X157912500Y-78625000D01*
X143712500Y-92825000D02*
X157912500Y-92825000D01*
X143712500Y-78625000D02*
X143712500Y-92825000D01*
%TO.C,M19*%
X138862500Y-78593250D02*
X124662500Y-78593250D01*
X138862500Y-92793250D02*
X138862500Y-78593250D01*
X124662500Y-92793250D02*
X138862500Y-92793250D01*
X124662500Y-78593250D02*
X124662500Y-92793250D01*
%TO.C,M18*%
X119812500Y-78625000D02*
X105612500Y-78625000D01*
X119812500Y-92825000D02*
X119812500Y-78625000D01*
X105612500Y-92825000D02*
X119812500Y-92825000D01*
X105612500Y-78625000D02*
X105612500Y-92825000D01*
%TO.C,M17*%
X100762500Y-78625000D02*
X86562500Y-78625000D01*
X100762500Y-92825000D02*
X100762500Y-78625000D01*
X86562500Y-92825000D02*
X100762500Y-92825000D01*
X86562500Y-78625000D02*
X86562500Y-92825000D01*
%TO.C,M16*%
X81712500Y-78625000D02*
X67512500Y-78625000D01*
X81712500Y-92825000D02*
X81712500Y-78625000D01*
X67512500Y-92825000D02*
X81712500Y-92825000D01*
X67512500Y-78625000D02*
X67512500Y-92825000D01*
%TO.C,M13*%
X24562500Y-78625000D02*
X10362500Y-78625000D01*
X24562500Y-92825000D02*
X24562500Y-78625000D01*
X10362500Y-92825000D02*
X24562500Y-92825000D01*
X10362500Y-78625000D02*
X10362500Y-92825000D01*
%TO.C,M12*%
X234128400Y-59543250D02*
X219928400Y-59543250D01*
X234128400Y-73743250D02*
X234128400Y-59543250D01*
X219928400Y-73743250D02*
X234128400Y-73743250D01*
X219928400Y-59543250D02*
X219928400Y-73743250D01*
%TO.C,M11*%
X215078400Y-59543250D02*
X200878400Y-59543250D01*
X215078400Y-73743250D02*
X215078400Y-59543250D01*
X200878400Y-73743250D02*
X215078400Y-73743250D01*
X200878400Y-59543250D02*
X200878400Y-73743250D01*
%TO.C,M10*%
X196028400Y-59543250D02*
X181828400Y-59543250D01*
X196028400Y-73743250D02*
X196028400Y-59543250D01*
X181828400Y-73743250D02*
X196028400Y-73743250D01*
X181828400Y-59543250D02*
X181828400Y-73743250D01*
%TO.C,M9*%
X176978400Y-59543250D02*
X162778400Y-59543250D01*
X176978400Y-73743250D02*
X176978400Y-59543250D01*
X162778400Y-73743250D02*
X176978400Y-73743250D01*
X162778400Y-59543250D02*
X162778400Y-73743250D01*
%TO.C,M8*%
X157928400Y-59543250D02*
X143728400Y-59543250D01*
X157928400Y-73743250D02*
X157928400Y-59543250D01*
X143728400Y-73743250D02*
X157928400Y-73743250D01*
X143728400Y-59543250D02*
X143728400Y-73743250D01*
%TO.C,M7*%
X138878400Y-59543250D02*
X124678400Y-59543250D01*
X138878400Y-73743250D02*
X138878400Y-59543250D01*
X124678400Y-73743250D02*
X138878400Y-73743250D01*
X124678400Y-59543250D02*
X124678400Y-73743250D01*
%TO.C,M6*%
X119828400Y-59543250D02*
X105628400Y-59543250D01*
X119828400Y-73743250D02*
X119828400Y-59543250D01*
X105628400Y-73743250D02*
X119828400Y-73743250D01*
X105628400Y-59543250D02*
X105628400Y-73743250D01*
%TO.C,M5*%
X100778400Y-59543250D02*
X86578400Y-59543250D01*
X100778400Y-73743250D02*
X100778400Y-59543250D01*
X86578400Y-73743250D02*
X100778400Y-73743250D01*
X86578400Y-59543250D02*
X86578400Y-73743250D01*
%TO.C,M4*%
X81728400Y-59543250D02*
X67528400Y-59543250D01*
X81728400Y-73743250D02*
X81728400Y-59543250D01*
X67528400Y-73743250D02*
X81728400Y-73743250D01*
X67528400Y-59543250D02*
X67528400Y-73743250D01*
%TO.C,M3*%
X62678400Y-59543250D02*
X48478400Y-59543250D01*
X62678400Y-73743250D02*
X62678400Y-59543250D01*
X48478400Y-73743250D02*
X62678400Y-73743250D01*
X48478400Y-59543250D02*
X48478400Y-73743250D01*
%TO.C,M2*%
X43628400Y-59543250D02*
X29428400Y-59543250D01*
X43628400Y-73743250D02*
X43628400Y-59543250D01*
X29428400Y-73743250D02*
X43628400Y-73743250D01*
X29428400Y-59543250D02*
X29428400Y-73743250D01*
%TO.C,C1*%
D16*
X-6498166Y-59848750D02*
X-6540500Y-59891083D01*
X-6667500Y-59933416D01*
X-6752166Y-59933416D01*
X-6879166Y-59891083D01*
X-6963833Y-59806416D01*
X-7006166Y-59721750D01*
X-7048500Y-59552416D01*
X-7048500Y-59425416D01*
X-7006166Y-59256083D01*
X-6963833Y-59171416D01*
X-6879166Y-59086750D01*
X-6752166Y-59044416D01*
X-6667500Y-59044416D01*
X-6540500Y-59086750D01*
X-6498166Y-59129083D01*
X-5651500Y-59933416D02*
X-6159500Y-59933416D01*
X-5905500Y-59933416D02*
X-5905500Y-59044416D01*
X-5990166Y-59171416D01*
X-6074833Y-59256083D01*
X-6159500Y-59298416D01*
D17*
X-8335409Y-56409771D02*
X-8335409Y-55800171D01*
X-8103180Y-55800171D01*
X-8045123Y-55829200D01*
X-8016094Y-55858228D01*
X-7987066Y-55916285D01*
X-7987066Y-56003371D01*
X-8016094Y-56061428D01*
X-8045123Y-56090457D01*
X-8103180Y-56119485D01*
X-8335409Y-56119485D01*
X-7725809Y-56409771D02*
X-7725809Y-56003371D01*
X-7725809Y-55800171D02*
X-7754837Y-55829200D01*
X-7725809Y-55858228D01*
X-7696780Y-55829200D01*
X-7725809Y-55800171D01*
X-7725809Y-55858228D01*
X-6971066Y-56409771D02*
X-6971066Y-55800171D01*
X-6738837Y-55800171D01*
X-6680780Y-55829200D01*
X-6651751Y-55858228D01*
X-6622723Y-55916285D01*
X-6622723Y-56003371D01*
X-6651751Y-56061428D01*
X-6680780Y-56090457D01*
X-6738837Y-56119485D01*
X-6971066Y-56119485D01*
X-6361466Y-56409771D02*
X-6361466Y-56003371D01*
X-6361466Y-55800171D02*
X-6390494Y-55829200D01*
X-6361466Y-55858228D01*
X-6332437Y-55829200D01*
X-6361466Y-55800171D01*
X-6361466Y-55858228D01*
X-5809923Y-56380742D02*
X-5867980Y-56409771D01*
X-5984094Y-56409771D01*
X-6042151Y-56380742D01*
X-6071180Y-56351714D01*
X-6100209Y-56293657D01*
X-6100209Y-56119485D01*
X-6071180Y-56061428D01*
X-6042151Y-56032400D01*
X-5984094Y-56003371D01*
X-5867980Y-56003371D01*
X-5809923Y-56032400D01*
X-5461580Y-56409771D02*
X-5519637Y-56380742D01*
X-5548666Y-56351714D01*
X-5577694Y-56293657D01*
X-5577694Y-56119485D01*
X-5548666Y-56061428D01*
X-5519637Y-56032400D01*
X-5461580Y-56003371D01*
X-5374494Y-56003371D01*
X-5316437Y-56032400D01*
X-5287409Y-56061428D01*
X-5258380Y-56119485D01*
X-5258380Y-56293657D01*
X-5287409Y-56351714D01*
X-5316437Y-56380742D01*
X-5374494Y-56409771D01*
X-5461580Y-56409771D01*
%TO.C,H4*%
D18*
X107188095Y-140946130D02*
X107188095Y-139946130D01*
X107188095Y-140422321D02*
X107759523Y-140422321D01*
X107759523Y-140946130D02*
X107759523Y-139946130D01*
X108664285Y-140279464D02*
X108664285Y-140946130D01*
X108426190Y-139898511D02*
X108188095Y-140612797D01*
X108807142Y-140612797D01*
X120681845Y-49664880D02*
X120681845Y-48664880D01*
X120681845Y-49141071D02*
X121253273Y-49141071D01*
X121253273Y-49664880D02*
X121253273Y-48664880D01*
X122158035Y-48998214D02*
X122158035Y-49664880D01*
X121919940Y-48617261D02*
X121681845Y-49331547D01*
X122300892Y-49331547D01*
X10350595Y-49664880D02*
X10350595Y-48664880D01*
X10350595Y-49141071D02*
X10922023Y-49141071D01*
X10922023Y-49664880D02*
X10922023Y-48664880D01*
X11826785Y-48998214D02*
X11826785Y-49664880D01*
X11588690Y-48617261D02*
X11350595Y-49331547D01*
X11969642Y-49331547D01*
%TO.C,H3*%
X-22193154Y-140946130D02*
X-22193154Y-139946130D01*
X-22193154Y-140422321D02*
X-21621726Y-140422321D01*
X-21621726Y-140946130D02*
X-21621726Y-139946130D01*
X-21240773Y-139946130D02*
X-20621726Y-139946130D01*
X-20955059Y-140327083D01*
X-20812202Y-140327083D01*
X-20716964Y-140374702D01*
X-20669345Y-140422321D01*
X-20621726Y-140517559D01*
X-20621726Y-140755654D01*
X-20669345Y-140850892D01*
X-20716964Y-140898511D01*
X-20812202Y-140946130D01*
X-21097916Y-140946130D01*
X-21193154Y-140898511D01*
X-21240773Y-140850892D01*
%TO.C,H2*%
X233394345Y-49664880D02*
X233394345Y-48664880D01*
X233394345Y-49141071D02*
X233965773Y-49141071D01*
X233965773Y-49664880D02*
X233965773Y-48664880D01*
X234394345Y-48760119D02*
X234441964Y-48712500D01*
X234537202Y-48664880D01*
X234775297Y-48664880D01*
X234870535Y-48712500D01*
X234918154Y-48760119D01*
X234965773Y-48855357D01*
X234965773Y-48950595D01*
X234918154Y-49093452D01*
X234346726Y-49664880D01*
X234965773Y-49664880D01*
%TO.C,H1*%
X233394345Y-140946130D02*
X233394345Y-139946130D01*
X233394345Y-140422321D02*
X233965773Y-140422321D01*
X233965773Y-140946130D02*
X233965773Y-139946130D01*
X234965773Y-140946130D02*
X234394345Y-140946130D01*
X234680059Y-140946130D02*
X234680059Y-139946130D01*
X234584821Y-140088988D01*
X234489583Y-140184226D01*
X234394345Y-140231845D01*
%TO.C,U3*%
X-7873904Y-122642380D02*
X-7873904Y-123451904D01*
X-7826285Y-123547142D01*
X-7778666Y-123594761D01*
X-7683428Y-123642380D01*
X-7492952Y-123642380D01*
X-7397714Y-123594761D01*
X-7350095Y-123547142D01*
X-7302476Y-123451904D01*
X-7302476Y-122642380D01*
X-6921523Y-122642380D02*
X-6302476Y-122642380D01*
X-6635809Y-123023333D01*
X-6492952Y-123023333D01*
X-6397714Y-123070952D01*
X-6350095Y-123118571D01*
X-6302476Y-123213809D01*
X-6302476Y-123451904D01*
X-6350095Y-123547142D01*
X-6397714Y-123594761D01*
X-6492952Y-123642380D01*
X-6778666Y-123642380D01*
X-6873904Y-123594761D01*
X-6921523Y-123547142D01*
%TO.C,M42*%
X120951785Y-116277380D02*
X120951785Y-115277380D01*
X121285119Y-115991666D01*
X121618452Y-115277380D01*
X121618452Y-116277380D01*
X122523214Y-115610714D02*
X122523214Y-116277380D01*
X122285119Y-115229761D02*
X122047023Y-115944047D01*
X122666071Y-115944047D01*
X122999404Y-115372619D02*
X123047023Y-115325000D01*
X123142261Y-115277380D01*
X123380357Y-115277380D01*
X123475595Y-115325000D01*
X123523214Y-115372619D01*
X123570833Y-115467857D01*
X123570833Y-115563095D01*
X123523214Y-115705952D01*
X122951785Y-116277380D01*
X123570833Y-116277380D01*
%TO.C,M41*%
X92376785Y-116277380D02*
X92376785Y-115277380D01*
X92710119Y-115991666D01*
X93043452Y-115277380D01*
X93043452Y-116277380D01*
X93948214Y-115610714D02*
X93948214Y-116277380D01*
X93710119Y-115229761D02*
X93472023Y-115944047D01*
X94091071Y-115944047D01*
X94995833Y-116277380D02*
X94424404Y-116277380D01*
X94710119Y-116277380D02*
X94710119Y-115277380D01*
X94614880Y-115420238D01*
X94519642Y-115515476D01*
X94424404Y-115563095D01*
%TO.C,M29*%
X92376785Y-97227380D02*
X92376785Y-96227380D01*
X92710119Y-96941666D01*
X93043452Y-96227380D01*
X93043452Y-97227380D01*
X93472023Y-96322619D02*
X93519642Y-96275000D01*
X93614880Y-96227380D01*
X93852976Y-96227380D01*
X93948214Y-96275000D01*
X93995833Y-96322619D01*
X94043452Y-96417857D01*
X94043452Y-96513095D01*
X93995833Y-96655952D01*
X93424404Y-97227380D01*
X94043452Y-97227380D01*
X94519642Y-97227380D02*
X94710119Y-97227380D01*
X94805357Y-97179761D01*
X94852976Y-97132142D01*
X94948214Y-96989285D01*
X94995833Y-96798809D01*
X94995833Y-96417857D01*
X94948214Y-96322619D01*
X94900595Y-96275000D01*
X94805357Y-96227380D01*
X94614880Y-96227380D01*
X94519642Y-96275000D01*
X94472023Y-96322619D01*
X94424404Y-96417857D01*
X94424404Y-96655952D01*
X94472023Y-96751190D01*
X94519642Y-96798809D01*
X94614880Y-96846428D01*
X94805357Y-96846428D01*
X94900595Y-96798809D01*
X94948214Y-96751190D01*
X94995833Y-96655952D01*
%TO.C,M28*%
X73326785Y-97227380D02*
X73326785Y-96227380D01*
X73660119Y-96941666D01*
X73993452Y-96227380D01*
X73993452Y-97227380D01*
X74422023Y-96322619D02*
X74469642Y-96275000D01*
X74564880Y-96227380D01*
X74802976Y-96227380D01*
X74898214Y-96275000D01*
X74945833Y-96322619D01*
X74993452Y-96417857D01*
X74993452Y-96513095D01*
X74945833Y-96655952D01*
X74374404Y-97227380D01*
X74993452Y-97227380D01*
X75564880Y-96655952D02*
X75469642Y-96608333D01*
X75422023Y-96560714D01*
X75374404Y-96465476D01*
X75374404Y-96417857D01*
X75422023Y-96322619D01*
X75469642Y-96275000D01*
X75564880Y-96227380D01*
X75755357Y-96227380D01*
X75850595Y-96275000D01*
X75898214Y-96322619D01*
X75945833Y-96417857D01*
X75945833Y-96465476D01*
X75898214Y-96560714D01*
X75850595Y-96608333D01*
X75755357Y-96655952D01*
X75564880Y-96655952D01*
X75469642Y-96703571D01*
X75422023Y-96751190D01*
X75374404Y-96846428D01*
X75374404Y-97036904D01*
X75422023Y-97132142D01*
X75469642Y-97179761D01*
X75564880Y-97227380D01*
X75755357Y-97227380D01*
X75850595Y-97179761D01*
X75898214Y-97132142D01*
X75945833Y-97036904D01*
X75945833Y-96846428D01*
X75898214Y-96751190D01*
X75850595Y-96703571D01*
X75755357Y-96655952D01*
%TO.C,M15*%
X54276785Y-78177380D02*
X54276785Y-77177380D01*
X54610119Y-77891666D01*
X54943452Y-77177380D01*
X54943452Y-78177380D01*
X55943452Y-78177380D02*
X55372023Y-78177380D01*
X55657738Y-78177380D02*
X55657738Y-77177380D01*
X55562500Y-77320238D01*
X55467261Y-77415476D01*
X55372023Y-77463095D01*
X56848214Y-77177380D02*
X56372023Y-77177380D01*
X56324404Y-77653571D01*
X56372023Y-77605952D01*
X56467261Y-77558333D01*
X56705357Y-77558333D01*
X56800595Y-77605952D01*
X56848214Y-77653571D01*
X56895833Y-77748809D01*
X56895833Y-77986904D01*
X56848214Y-78082142D01*
X56800595Y-78129761D01*
X56705357Y-78177380D01*
X56467261Y-78177380D01*
X56372023Y-78129761D01*
X56324404Y-78082142D01*
%TO.C,M14*%
X35226785Y-78177380D02*
X35226785Y-77177380D01*
X35560119Y-77891666D01*
X35893452Y-77177380D01*
X35893452Y-78177380D01*
X36893452Y-78177380D02*
X36322023Y-78177380D01*
X36607738Y-78177380D02*
X36607738Y-77177380D01*
X36512500Y-77320238D01*
X36417261Y-77415476D01*
X36322023Y-77463095D01*
X37750595Y-77510714D02*
X37750595Y-78177380D01*
X37512500Y-77129761D02*
X37274404Y-77844047D01*
X37893452Y-77844047D01*
%TO.C,M1*%
X16668876Y-59095630D02*
X16668876Y-58095630D01*
X17002209Y-58809916D01*
X17335542Y-58095630D01*
X17335542Y-59095630D01*
X18335542Y-59095630D02*
X17764114Y-59095630D01*
X18049828Y-59095630D02*
X18049828Y-58095630D01*
X17954590Y-58238488D01*
X17859352Y-58333726D01*
X17764114Y-58381345D01*
%TO.C,R2*%
X-16930666Y-131102380D02*
X-17264000Y-130626190D01*
X-17502095Y-131102380D02*
X-17502095Y-130102380D01*
X-17121142Y-130102380D01*
X-17025904Y-130150000D01*
X-16978285Y-130197619D01*
X-16930666Y-130292857D01*
X-16930666Y-130435714D01*
X-16978285Y-130530952D01*
X-17025904Y-130578571D01*
X-17121142Y-130626190D01*
X-17502095Y-130626190D01*
X-16549714Y-130197619D02*
X-16502095Y-130150000D01*
X-16406857Y-130102380D01*
X-16168761Y-130102380D01*
X-16073523Y-130150000D01*
X-16025904Y-130197619D01*
X-15978285Y-130292857D01*
X-15978285Y-130388095D01*
X-16025904Y-130530952D01*
X-16597333Y-131102380D01*
X-15978285Y-131102380D01*
%TO.C,R1*%
X-16930666Y-127706380D02*
X-17264000Y-127230190D01*
X-17502095Y-127706380D02*
X-17502095Y-126706380D01*
X-17121142Y-126706380D01*
X-17025904Y-126754000D01*
X-16978285Y-126801619D01*
X-16930666Y-126896857D01*
X-16930666Y-127039714D01*
X-16978285Y-127134952D01*
X-17025904Y-127182571D01*
X-17121142Y-127230190D01*
X-17502095Y-127230190D01*
X-15978285Y-127706380D02*
X-16549714Y-127706380D01*
X-16264000Y-127706380D02*
X-16264000Y-126706380D01*
X-16359238Y-126849238D01*
X-16454476Y-126944476D01*
X-16549714Y-126992095D01*
%TO.C,U2*%
X-7873904Y-103592380D02*
X-7873904Y-104401904D01*
X-7826285Y-104497142D01*
X-7778666Y-104544761D01*
X-7683428Y-104592380D01*
X-7492952Y-104592380D01*
X-7397714Y-104544761D01*
X-7350095Y-104497142D01*
X-7302476Y-104401904D01*
X-7302476Y-103592380D01*
X-6873904Y-103687619D02*
X-6826285Y-103640000D01*
X-6731047Y-103592380D01*
X-6492952Y-103592380D01*
X-6397714Y-103640000D01*
X-6350095Y-103687619D01*
X-6302476Y-103782857D01*
X-6302476Y-103878095D01*
X-6350095Y-104020952D01*
X-6921523Y-104592380D01*
X-6302476Y-104592380D01*
%TO.C,U4*%
X-7873904Y-141692380D02*
X-7873904Y-142501904D01*
X-7826285Y-142597142D01*
X-7778666Y-142644761D01*
X-7683428Y-142692380D01*
X-7492952Y-142692380D01*
X-7397714Y-142644761D01*
X-7350095Y-142597142D01*
X-7302476Y-142501904D01*
X-7302476Y-141692380D01*
X-6397714Y-142025714D02*
X-6397714Y-142692380D01*
X-6635809Y-141644761D02*
X-6873904Y-142359047D01*
X-6254857Y-142359047D01*
%TO.C,U1*%
X-7873904Y-84542380D02*
X-7873904Y-85351904D01*
X-7826285Y-85447142D01*
X-7778666Y-85494761D01*
X-7683428Y-85542380D01*
X-7492952Y-85542380D01*
X-7397714Y-85494761D01*
X-7350095Y-85447142D01*
X-7302476Y-85351904D01*
X-7302476Y-84542380D01*
X-6302476Y-85542380D02*
X-6873904Y-85542380D01*
X-6588190Y-85542380D02*
X-6588190Y-84542380D01*
X-6683428Y-84685238D01*
X-6778666Y-84780476D01*
X-6873904Y-84828095D01*
%TO.C,M44*%
X168576785Y-116277380D02*
X168576785Y-115277380D01*
X168910119Y-115991666D01*
X169243452Y-115277380D01*
X169243452Y-116277380D01*
X170148214Y-115610714D02*
X170148214Y-116277380D01*
X169910119Y-115229761D02*
X169672023Y-115944047D01*
X170291071Y-115944047D01*
X171100595Y-115610714D02*
X171100595Y-116277380D01*
X170862500Y-115229761D02*
X170624404Y-115944047D01*
X171243452Y-115944047D01*
%TO.C,M47*%
X225726785Y-116277380D02*
X225726785Y-115277380D01*
X226060119Y-115991666D01*
X226393452Y-115277380D01*
X226393452Y-116277380D01*
X227298214Y-115610714D02*
X227298214Y-116277380D01*
X227060119Y-115229761D02*
X226822023Y-115944047D01*
X227441071Y-115944047D01*
X227726785Y-115277380D02*
X228393452Y-115277380D01*
X227964880Y-116277380D01*
%TO.C,M46*%
X206676785Y-116277380D02*
X206676785Y-115277380D01*
X207010119Y-115991666D01*
X207343452Y-115277380D01*
X207343452Y-116277380D01*
X208248214Y-115610714D02*
X208248214Y-116277380D01*
X208010119Y-115229761D02*
X207772023Y-115944047D01*
X208391071Y-115944047D01*
X209200595Y-115277380D02*
X209010119Y-115277380D01*
X208914880Y-115325000D01*
X208867261Y-115372619D01*
X208772023Y-115515476D01*
X208724404Y-115705952D01*
X208724404Y-116086904D01*
X208772023Y-116182142D01*
X208819642Y-116229761D01*
X208914880Y-116277380D01*
X209105357Y-116277380D01*
X209200595Y-116229761D01*
X209248214Y-116182142D01*
X209295833Y-116086904D01*
X209295833Y-115848809D01*
X209248214Y-115753571D01*
X209200595Y-115705952D01*
X209105357Y-115658333D01*
X208914880Y-115658333D01*
X208819642Y-115705952D01*
X208772023Y-115753571D01*
X208724404Y-115848809D01*
%TO.C,M45*%
X187626785Y-116277380D02*
X187626785Y-115277380D01*
X187960119Y-115991666D01*
X188293452Y-115277380D01*
X188293452Y-116277380D01*
X189198214Y-115610714D02*
X189198214Y-116277380D01*
X188960119Y-115229761D02*
X188722023Y-115944047D01*
X189341071Y-115944047D01*
X190198214Y-115277380D02*
X189722023Y-115277380D01*
X189674404Y-115753571D01*
X189722023Y-115705952D01*
X189817261Y-115658333D01*
X190055357Y-115658333D01*
X190150595Y-115705952D01*
X190198214Y-115753571D01*
X190245833Y-115848809D01*
X190245833Y-116086904D01*
X190198214Y-116182142D01*
X190150595Y-116229761D01*
X190055357Y-116277380D01*
X189817261Y-116277380D01*
X189722023Y-116229761D01*
X189674404Y-116182142D01*
%TO.C,M43*%
X149526785Y-116277380D02*
X149526785Y-115277380D01*
X149860119Y-115991666D01*
X150193452Y-115277380D01*
X150193452Y-116277380D01*
X151098214Y-115610714D02*
X151098214Y-116277380D01*
X150860119Y-115229761D02*
X150622023Y-115944047D01*
X151241071Y-115944047D01*
X151526785Y-115277380D02*
X152145833Y-115277380D01*
X151812500Y-115658333D01*
X151955357Y-115658333D01*
X152050595Y-115705952D01*
X152098214Y-115753571D01*
X152145833Y-115848809D01*
X152145833Y-116086904D01*
X152098214Y-116182142D01*
X152050595Y-116229761D01*
X151955357Y-116277380D01*
X151669642Y-116277380D01*
X151574404Y-116229761D01*
X151526785Y-116182142D01*
%TO.C,M40*%
X73326785Y-116277380D02*
X73326785Y-115277380D01*
X73660119Y-115991666D01*
X73993452Y-115277380D01*
X73993452Y-116277380D01*
X74898214Y-115610714D02*
X74898214Y-116277380D01*
X74660119Y-115229761D02*
X74422023Y-115944047D01*
X75041071Y-115944047D01*
X75612500Y-115277380D02*
X75707738Y-115277380D01*
X75802976Y-115325000D01*
X75850595Y-115372619D01*
X75898214Y-115467857D01*
X75945833Y-115658333D01*
X75945833Y-115896428D01*
X75898214Y-116086904D01*
X75850595Y-116182142D01*
X75802976Y-116229761D01*
X75707738Y-116277380D01*
X75612500Y-116277380D01*
X75517261Y-116229761D01*
X75469642Y-116182142D01*
X75422023Y-116086904D01*
X75374404Y-115896428D01*
X75374404Y-115658333D01*
X75422023Y-115467857D01*
X75469642Y-115372619D01*
X75517261Y-115325000D01*
X75612500Y-115277380D01*
%TO.C,M39*%
X54276785Y-116277380D02*
X54276785Y-115277380D01*
X54610119Y-115991666D01*
X54943452Y-115277380D01*
X54943452Y-116277380D01*
X55324404Y-115277380D02*
X55943452Y-115277380D01*
X55610119Y-115658333D01*
X55752976Y-115658333D01*
X55848214Y-115705952D01*
X55895833Y-115753571D01*
X55943452Y-115848809D01*
X55943452Y-116086904D01*
X55895833Y-116182142D01*
X55848214Y-116229761D01*
X55752976Y-116277380D01*
X55467261Y-116277380D01*
X55372023Y-116229761D01*
X55324404Y-116182142D01*
X56419642Y-116277380D02*
X56610119Y-116277380D01*
X56705357Y-116229761D01*
X56752976Y-116182142D01*
X56848214Y-116039285D01*
X56895833Y-115848809D01*
X56895833Y-115467857D01*
X56848214Y-115372619D01*
X56800595Y-115325000D01*
X56705357Y-115277380D01*
X56514880Y-115277380D01*
X56419642Y-115325000D01*
X56372023Y-115372619D01*
X56324404Y-115467857D01*
X56324404Y-115705952D01*
X56372023Y-115801190D01*
X56419642Y-115848809D01*
X56514880Y-115896428D01*
X56705357Y-115896428D01*
X56800595Y-115848809D01*
X56848214Y-115801190D01*
X56895833Y-115705952D01*
%TO.C,M38*%
X35226785Y-116277380D02*
X35226785Y-115277380D01*
X35560119Y-115991666D01*
X35893452Y-115277380D01*
X35893452Y-116277380D01*
X36274404Y-115277380D02*
X36893452Y-115277380D01*
X36560119Y-115658333D01*
X36702976Y-115658333D01*
X36798214Y-115705952D01*
X36845833Y-115753571D01*
X36893452Y-115848809D01*
X36893452Y-116086904D01*
X36845833Y-116182142D01*
X36798214Y-116229761D01*
X36702976Y-116277380D01*
X36417261Y-116277380D01*
X36322023Y-116229761D01*
X36274404Y-116182142D01*
X37464880Y-115705952D02*
X37369642Y-115658333D01*
X37322023Y-115610714D01*
X37274404Y-115515476D01*
X37274404Y-115467857D01*
X37322023Y-115372619D01*
X37369642Y-115325000D01*
X37464880Y-115277380D01*
X37655357Y-115277380D01*
X37750595Y-115325000D01*
X37798214Y-115372619D01*
X37845833Y-115467857D01*
X37845833Y-115515476D01*
X37798214Y-115610714D01*
X37750595Y-115658333D01*
X37655357Y-115705952D01*
X37464880Y-115705952D01*
X37369642Y-115753571D01*
X37322023Y-115801190D01*
X37274404Y-115896428D01*
X37274404Y-116086904D01*
X37322023Y-116182142D01*
X37369642Y-116229761D01*
X37464880Y-116277380D01*
X37655357Y-116277380D01*
X37750595Y-116229761D01*
X37798214Y-116182142D01*
X37845833Y-116086904D01*
X37845833Y-115896428D01*
X37798214Y-115801190D01*
X37750595Y-115753571D01*
X37655357Y-115705952D01*
%TO.C,M37*%
X16176785Y-116277380D02*
X16176785Y-115277380D01*
X16510119Y-115991666D01*
X16843452Y-115277380D01*
X16843452Y-116277380D01*
X17224404Y-115277380D02*
X17843452Y-115277380D01*
X17510119Y-115658333D01*
X17652976Y-115658333D01*
X17748214Y-115705952D01*
X17795833Y-115753571D01*
X17843452Y-115848809D01*
X17843452Y-116086904D01*
X17795833Y-116182142D01*
X17748214Y-116229761D01*
X17652976Y-116277380D01*
X17367261Y-116277380D01*
X17272023Y-116229761D01*
X17224404Y-116182142D01*
X18176785Y-115277380D02*
X18843452Y-115277380D01*
X18414880Y-116277380D01*
%TO.C,M36*%
X225726785Y-97195630D02*
X225726785Y-96195630D01*
X226060119Y-96909916D01*
X226393452Y-96195630D01*
X226393452Y-97195630D01*
X226774404Y-96195630D02*
X227393452Y-96195630D01*
X227060119Y-96576583D01*
X227202976Y-96576583D01*
X227298214Y-96624202D01*
X227345833Y-96671821D01*
X227393452Y-96767059D01*
X227393452Y-97005154D01*
X227345833Y-97100392D01*
X227298214Y-97148011D01*
X227202976Y-97195630D01*
X226917261Y-97195630D01*
X226822023Y-97148011D01*
X226774404Y-97100392D01*
X228250595Y-96195630D02*
X228060119Y-96195630D01*
X227964880Y-96243250D01*
X227917261Y-96290869D01*
X227822023Y-96433726D01*
X227774404Y-96624202D01*
X227774404Y-97005154D01*
X227822023Y-97100392D01*
X227869642Y-97148011D01*
X227964880Y-97195630D01*
X228155357Y-97195630D01*
X228250595Y-97148011D01*
X228298214Y-97100392D01*
X228345833Y-97005154D01*
X228345833Y-96767059D01*
X228298214Y-96671821D01*
X228250595Y-96624202D01*
X228155357Y-96576583D01*
X227964880Y-96576583D01*
X227869642Y-96624202D01*
X227822023Y-96671821D01*
X227774404Y-96767059D01*
%TO.C,M35*%
X206676785Y-97195630D02*
X206676785Y-96195630D01*
X207010119Y-96909916D01*
X207343452Y-96195630D01*
X207343452Y-97195630D01*
X207724404Y-96195630D02*
X208343452Y-96195630D01*
X208010119Y-96576583D01*
X208152976Y-96576583D01*
X208248214Y-96624202D01*
X208295833Y-96671821D01*
X208343452Y-96767059D01*
X208343452Y-97005154D01*
X208295833Y-97100392D01*
X208248214Y-97148011D01*
X208152976Y-97195630D01*
X207867261Y-97195630D01*
X207772023Y-97148011D01*
X207724404Y-97100392D01*
X209248214Y-96195630D02*
X208772023Y-96195630D01*
X208724404Y-96671821D01*
X208772023Y-96624202D01*
X208867261Y-96576583D01*
X209105357Y-96576583D01*
X209200595Y-96624202D01*
X209248214Y-96671821D01*
X209295833Y-96767059D01*
X209295833Y-97005154D01*
X209248214Y-97100392D01*
X209200595Y-97148011D01*
X209105357Y-97195630D01*
X208867261Y-97195630D01*
X208772023Y-97148011D01*
X208724404Y-97100392D01*
%TO.C,M34*%
X187626785Y-97195630D02*
X187626785Y-96195630D01*
X187960119Y-96909916D01*
X188293452Y-96195630D01*
X188293452Y-97195630D01*
X188674404Y-96195630D02*
X189293452Y-96195630D01*
X188960119Y-96576583D01*
X189102976Y-96576583D01*
X189198214Y-96624202D01*
X189245833Y-96671821D01*
X189293452Y-96767059D01*
X189293452Y-97005154D01*
X189245833Y-97100392D01*
X189198214Y-97148011D01*
X189102976Y-97195630D01*
X188817261Y-97195630D01*
X188722023Y-97148011D01*
X188674404Y-97100392D01*
X190150595Y-96528964D02*
X190150595Y-97195630D01*
X189912500Y-96148011D02*
X189674404Y-96862297D01*
X190293452Y-96862297D01*
%TO.C,M33*%
X168576785Y-97195630D02*
X168576785Y-96195630D01*
X168910119Y-96909916D01*
X169243452Y-96195630D01*
X169243452Y-97195630D01*
X169624404Y-96195630D02*
X170243452Y-96195630D01*
X169910119Y-96576583D01*
X170052976Y-96576583D01*
X170148214Y-96624202D01*
X170195833Y-96671821D01*
X170243452Y-96767059D01*
X170243452Y-97005154D01*
X170195833Y-97100392D01*
X170148214Y-97148011D01*
X170052976Y-97195630D01*
X169767261Y-97195630D01*
X169672023Y-97148011D01*
X169624404Y-97100392D01*
X170576785Y-96195630D02*
X171195833Y-96195630D01*
X170862500Y-96576583D01*
X171005357Y-96576583D01*
X171100595Y-96624202D01*
X171148214Y-96671821D01*
X171195833Y-96767059D01*
X171195833Y-97005154D01*
X171148214Y-97100392D01*
X171100595Y-97148011D01*
X171005357Y-97195630D01*
X170719642Y-97195630D01*
X170624404Y-97148011D01*
X170576785Y-97100392D01*
%TO.C,M32*%
X149526785Y-97227380D02*
X149526785Y-96227380D01*
X149860119Y-96941666D01*
X150193452Y-96227380D01*
X150193452Y-97227380D01*
X150574404Y-96227380D02*
X151193452Y-96227380D01*
X150860119Y-96608333D01*
X151002976Y-96608333D01*
X151098214Y-96655952D01*
X151145833Y-96703571D01*
X151193452Y-96798809D01*
X151193452Y-97036904D01*
X151145833Y-97132142D01*
X151098214Y-97179761D01*
X151002976Y-97227380D01*
X150717261Y-97227380D01*
X150622023Y-97179761D01*
X150574404Y-97132142D01*
X151574404Y-96322619D02*
X151622023Y-96275000D01*
X151717261Y-96227380D01*
X151955357Y-96227380D01*
X152050595Y-96275000D01*
X152098214Y-96322619D01*
X152145833Y-96417857D01*
X152145833Y-96513095D01*
X152098214Y-96655952D01*
X151526785Y-97227380D01*
X152145833Y-97227380D01*
%TO.C,M31*%
X130476785Y-97227380D02*
X130476785Y-96227380D01*
X130810119Y-96941666D01*
X131143452Y-96227380D01*
X131143452Y-97227380D01*
X131524404Y-96227380D02*
X132143452Y-96227380D01*
X131810119Y-96608333D01*
X131952976Y-96608333D01*
X132048214Y-96655952D01*
X132095833Y-96703571D01*
X132143452Y-96798809D01*
X132143452Y-97036904D01*
X132095833Y-97132142D01*
X132048214Y-97179761D01*
X131952976Y-97227380D01*
X131667261Y-97227380D01*
X131572023Y-97179761D01*
X131524404Y-97132142D01*
X133095833Y-97227380D02*
X132524404Y-97227380D01*
X132810119Y-97227380D02*
X132810119Y-96227380D01*
X132714880Y-96370238D01*
X132619642Y-96465476D01*
X132524404Y-96513095D01*
%TO.C,M30*%
X111426785Y-97195630D02*
X111426785Y-96195630D01*
X111760119Y-96909916D01*
X112093452Y-96195630D01*
X112093452Y-97195630D01*
X112474404Y-96195630D02*
X113093452Y-96195630D01*
X112760119Y-96576583D01*
X112902976Y-96576583D01*
X112998214Y-96624202D01*
X113045833Y-96671821D01*
X113093452Y-96767059D01*
X113093452Y-97005154D01*
X113045833Y-97100392D01*
X112998214Y-97148011D01*
X112902976Y-97195630D01*
X112617261Y-97195630D01*
X112522023Y-97148011D01*
X112474404Y-97100392D01*
X113712500Y-96195630D02*
X113807738Y-96195630D01*
X113902976Y-96243250D01*
X113950595Y-96290869D01*
X113998214Y-96386107D01*
X114045833Y-96576583D01*
X114045833Y-96814678D01*
X113998214Y-97005154D01*
X113950595Y-97100392D01*
X113902976Y-97148011D01*
X113807738Y-97195630D01*
X113712500Y-97195630D01*
X113617261Y-97148011D01*
X113569642Y-97100392D01*
X113522023Y-97005154D01*
X113474404Y-96814678D01*
X113474404Y-96576583D01*
X113522023Y-96386107D01*
X113569642Y-96290869D01*
X113617261Y-96243250D01*
X113712500Y-96195630D01*
%TO.C,M27*%
X54276785Y-97195630D02*
X54276785Y-96195630D01*
X54610119Y-96909916D01*
X54943452Y-96195630D01*
X54943452Y-97195630D01*
X55372023Y-96290869D02*
X55419642Y-96243250D01*
X55514880Y-96195630D01*
X55752976Y-96195630D01*
X55848214Y-96243250D01*
X55895833Y-96290869D01*
X55943452Y-96386107D01*
X55943452Y-96481345D01*
X55895833Y-96624202D01*
X55324404Y-97195630D01*
X55943452Y-97195630D01*
X56276785Y-96195630D02*
X56943452Y-96195630D01*
X56514880Y-97195630D01*
%TO.C,M26*%
X35226785Y-97195630D02*
X35226785Y-96195630D01*
X35560119Y-96909916D01*
X35893452Y-96195630D01*
X35893452Y-97195630D01*
X36322023Y-96290869D02*
X36369642Y-96243250D01*
X36464880Y-96195630D01*
X36702976Y-96195630D01*
X36798214Y-96243250D01*
X36845833Y-96290869D01*
X36893452Y-96386107D01*
X36893452Y-96481345D01*
X36845833Y-96624202D01*
X36274404Y-97195630D01*
X36893452Y-97195630D01*
X37750595Y-96195630D02*
X37560119Y-96195630D01*
X37464880Y-96243250D01*
X37417261Y-96290869D01*
X37322023Y-96433726D01*
X37274404Y-96624202D01*
X37274404Y-97005154D01*
X37322023Y-97100392D01*
X37369642Y-97148011D01*
X37464880Y-97195630D01*
X37655357Y-97195630D01*
X37750595Y-97148011D01*
X37798214Y-97100392D01*
X37845833Y-97005154D01*
X37845833Y-96767059D01*
X37798214Y-96671821D01*
X37750595Y-96624202D01*
X37655357Y-96576583D01*
X37464880Y-96576583D01*
X37369642Y-96624202D01*
X37322023Y-96671821D01*
X37274404Y-96767059D01*
%TO.C,M25*%
X16176785Y-97195630D02*
X16176785Y-96195630D01*
X16510119Y-96909916D01*
X16843452Y-96195630D01*
X16843452Y-97195630D01*
X17272023Y-96290869D02*
X17319642Y-96243250D01*
X17414880Y-96195630D01*
X17652976Y-96195630D01*
X17748214Y-96243250D01*
X17795833Y-96290869D01*
X17843452Y-96386107D01*
X17843452Y-96481345D01*
X17795833Y-96624202D01*
X17224404Y-97195630D01*
X17843452Y-97195630D01*
X18748214Y-96195630D02*
X18272023Y-96195630D01*
X18224404Y-96671821D01*
X18272023Y-96624202D01*
X18367261Y-96576583D01*
X18605357Y-96576583D01*
X18700595Y-96624202D01*
X18748214Y-96671821D01*
X18795833Y-96767059D01*
X18795833Y-97005154D01*
X18748214Y-97100392D01*
X18700595Y-97148011D01*
X18605357Y-97195630D01*
X18367261Y-97195630D01*
X18272023Y-97148011D01*
X18224404Y-97100392D01*
%TO.C,M24*%
X225726785Y-78177380D02*
X225726785Y-77177380D01*
X226060119Y-77891666D01*
X226393452Y-77177380D01*
X226393452Y-78177380D01*
X226822023Y-77272619D02*
X226869642Y-77225000D01*
X226964880Y-77177380D01*
X227202976Y-77177380D01*
X227298214Y-77225000D01*
X227345833Y-77272619D01*
X227393452Y-77367857D01*
X227393452Y-77463095D01*
X227345833Y-77605952D01*
X226774404Y-78177380D01*
X227393452Y-78177380D01*
X228250595Y-77510714D02*
X228250595Y-78177380D01*
X228012500Y-77129761D02*
X227774404Y-77844047D01*
X228393452Y-77844047D01*
%TO.C,M23*%
X206676785Y-78177380D02*
X206676785Y-77177380D01*
X207010119Y-77891666D01*
X207343452Y-77177380D01*
X207343452Y-78177380D01*
X207772023Y-77272619D02*
X207819642Y-77225000D01*
X207914880Y-77177380D01*
X208152976Y-77177380D01*
X208248214Y-77225000D01*
X208295833Y-77272619D01*
X208343452Y-77367857D01*
X208343452Y-77463095D01*
X208295833Y-77605952D01*
X207724404Y-78177380D01*
X208343452Y-78177380D01*
X208676785Y-77177380D02*
X209295833Y-77177380D01*
X208962500Y-77558333D01*
X209105357Y-77558333D01*
X209200595Y-77605952D01*
X209248214Y-77653571D01*
X209295833Y-77748809D01*
X209295833Y-77986904D01*
X209248214Y-78082142D01*
X209200595Y-78129761D01*
X209105357Y-78177380D01*
X208819642Y-78177380D01*
X208724404Y-78129761D01*
X208676785Y-78082142D01*
%TO.C,M22*%
X187626785Y-78177380D02*
X187626785Y-77177380D01*
X187960119Y-77891666D01*
X188293452Y-77177380D01*
X188293452Y-78177380D01*
X188722023Y-77272619D02*
X188769642Y-77225000D01*
X188864880Y-77177380D01*
X189102976Y-77177380D01*
X189198214Y-77225000D01*
X189245833Y-77272619D01*
X189293452Y-77367857D01*
X189293452Y-77463095D01*
X189245833Y-77605952D01*
X188674404Y-78177380D01*
X189293452Y-78177380D01*
X189674404Y-77272619D02*
X189722023Y-77225000D01*
X189817261Y-77177380D01*
X190055357Y-77177380D01*
X190150595Y-77225000D01*
X190198214Y-77272619D01*
X190245833Y-77367857D01*
X190245833Y-77463095D01*
X190198214Y-77605952D01*
X189626785Y-78177380D01*
X190245833Y-78177380D01*
%TO.C,M21*%
X168576785Y-78177380D02*
X168576785Y-77177380D01*
X168910119Y-77891666D01*
X169243452Y-77177380D01*
X169243452Y-78177380D01*
X169672023Y-77272619D02*
X169719642Y-77225000D01*
X169814880Y-77177380D01*
X170052976Y-77177380D01*
X170148214Y-77225000D01*
X170195833Y-77272619D01*
X170243452Y-77367857D01*
X170243452Y-77463095D01*
X170195833Y-77605952D01*
X169624404Y-78177380D01*
X170243452Y-78177380D01*
X171195833Y-78177380D02*
X170624404Y-78177380D01*
X170910119Y-78177380D02*
X170910119Y-77177380D01*
X170814880Y-77320238D01*
X170719642Y-77415476D01*
X170624404Y-77463095D01*
%TO.C,M20*%
X149526785Y-78177380D02*
X149526785Y-77177380D01*
X149860119Y-77891666D01*
X150193452Y-77177380D01*
X150193452Y-78177380D01*
X150622023Y-77272619D02*
X150669642Y-77225000D01*
X150764880Y-77177380D01*
X151002976Y-77177380D01*
X151098214Y-77225000D01*
X151145833Y-77272619D01*
X151193452Y-77367857D01*
X151193452Y-77463095D01*
X151145833Y-77605952D01*
X150574404Y-78177380D01*
X151193452Y-78177380D01*
X151812500Y-77177380D02*
X151907738Y-77177380D01*
X152002976Y-77225000D01*
X152050595Y-77272619D01*
X152098214Y-77367857D01*
X152145833Y-77558333D01*
X152145833Y-77796428D01*
X152098214Y-77986904D01*
X152050595Y-78082142D01*
X152002976Y-78129761D01*
X151907738Y-78177380D01*
X151812500Y-78177380D01*
X151717261Y-78129761D01*
X151669642Y-78082142D01*
X151622023Y-77986904D01*
X151574404Y-77796428D01*
X151574404Y-77558333D01*
X151622023Y-77367857D01*
X151669642Y-77272619D01*
X151717261Y-77225000D01*
X151812500Y-77177380D01*
%TO.C,M19*%
X130476785Y-78145630D02*
X130476785Y-77145630D01*
X130810119Y-77859916D01*
X131143452Y-77145630D01*
X131143452Y-78145630D01*
X132143452Y-78145630D02*
X131572023Y-78145630D01*
X131857738Y-78145630D02*
X131857738Y-77145630D01*
X131762500Y-77288488D01*
X131667261Y-77383726D01*
X131572023Y-77431345D01*
X132619642Y-78145630D02*
X132810119Y-78145630D01*
X132905357Y-78098011D01*
X132952976Y-78050392D01*
X133048214Y-77907535D01*
X133095833Y-77717059D01*
X133095833Y-77336107D01*
X133048214Y-77240869D01*
X133000595Y-77193250D01*
X132905357Y-77145630D01*
X132714880Y-77145630D01*
X132619642Y-77193250D01*
X132572023Y-77240869D01*
X132524404Y-77336107D01*
X132524404Y-77574202D01*
X132572023Y-77669440D01*
X132619642Y-77717059D01*
X132714880Y-77764678D01*
X132905357Y-77764678D01*
X133000595Y-77717059D01*
X133048214Y-77669440D01*
X133095833Y-77574202D01*
%TO.C,M18*%
X111426785Y-78177380D02*
X111426785Y-77177380D01*
X111760119Y-77891666D01*
X112093452Y-77177380D01*
X112093452Y-78177380D01*
X113093452Y-78177380D02*
X112522023Y-78177380D01*
X112807738Y-78177380D02*
X112807738Y-77177380D01*
X112712500Y-77320238D01*
X112617261Y-77415476D01*
X112522023Y-77463095D01*
X113664880Y-77605952D02*
X113569642Y-77558333D01*
X113522023Y-77510714D01*
X113474404Y-77415476D01*
X113474404Y-77367857D01*
X113522023Y-77272619D01*
X113569642Y-77225000D01*
X113664880Y-77177380D01*
X113855357Y-77177380D01*
X113950595Y-77225000D01*
X113998214Y-77272619D01*
X114045833Y-77367857D01*
X114045833Y-77415476D01*
X113998214Y-77510714D01*
X113950595Y-77558333D01*
X113855357Y-77605952D01*
X113664880Y-77605952D01*
X113569642Y-77653571D01*
X113522023Y-77701190D01*
X113474404Y-77796428D01*
X113474404Y-77986904D01*
X113522023Y-78082142D01*
X113569642Y-78129761D01*
X113664880Y-78177380D01*
X113855357Y-78177380D01*
X113950595Y-78129761D01*
X113998214Y-78082142D01*
X114045833Y-77986904D01*
X114045833Y-77796428D01*
X113998214Y-77701190D01*
X113950595Y-77653571D01*
X113855357Y-77605952D01*
%TO.C,M17*%
X92376785Y-78177380D02*
X92376785Y-77177380D01*
X92710119Y-77891666D01*
X93043452Y-77177380D01*
X93043452Y-78177380D01*
X94043452Y-78177380D02*
X93472023Y-78177380D01*
X93757738Y-78177380D02*
X93757738Y-77177380D01*
X93662500Y-77320238D01*
X93567261Y-77415476D01*
X93472023Y-77463095D01*
X94376785Y-77177380D02*
X95043452Y-77177380D01*
X94614880Y-78177380D01*
%TO.C,M16*%
X73326785Y-78177380D02*
X73326785Y-77177380D01*
X73660119Y-77891666D01*
X73993452Y-77177380D01*
X73993452Y-78177380D01*
X74993452Y-78177380D02*
X74422023Y-78177380D01*
X74707738Y-78177380D02*
X74707738Y-77177380D01*
X74612500Y-77320238D01*
X74517261Y-77415476D01*
X74422023Y-77463095D01*
X75850595Y-77177380D02*
X75660119Y-77177380D01*
X75564880Y-77225000D01*
X75517261Y-77272619D01*
X75422023Y-77415476D01*
X75374404Y-77605952D01*
X75374404Y-77986904D01*
X75422023Y-78082142D01*
X75469642Y-78129761D01*
X75564880Y-78177380D01*
X75755357Y-78177380D01*
X75850595Y-78129761D01*
X75898214Y-78082142D01*
X75945833Y-77986904D01*
X75945833Y-77748809D01*
X75898214Y-77653571D01*
X75850595Y-77605952D01*
X75755357Y-77558333D01*
X75564880Y-77558333D01*
X75469642Y-77605952D01*
X75422023Y-77653571D01*
X75374404Y-77748809D01*
%TO.C,M13*%
X16176785Y-78177380D02*
X16176785Y-77177380D01*
X16510119Y-77891666D01*
X16843452Y-77177380D01*
X16843452Y-78177380D01*
X17843452Y-78177380D02*
X17272023Y-78177380D01*
X17557738Y-78177380D02*
X17557738Y-77177380D01*
X17462500Y-77320238D01*
X17367261Y-77415476D01*
X17272023Y-77463095D01*
X18176785Y-77177380D02*
X18795833Y-77177380D01*
X18462500Y-77558333D01*
X18605357Y-77558333D01*
X18700595Y-77605952D01*
X18748214Y-77653571D01*
X18795833Y-77748809D01*
X18795833Y-77986904D01*
X18748214Y-78082142D01*
X18700595Y-78129761D01*
X18605357Y-78177380D01*
X18319642Y-78177380D01*
X18224404Y-78129761D01*
X18176785Y-78082142D01*
%TO.C,M12*%
X225742685Y-59095630D02*
X225742685Y-58095630D01*
X226076019Y-58809916D01*
X226409352Y-58095630D01*
X226409352Y-59095630D01*
X227409352Y-59095630D02*
X226837923Y-59095630D01*
X227123638Y-59095630D02*
X227123638Y-58095630D01*
X227028400Y-58238488D01*
X226933161Y-58333726D01*
X226837923Y-58381345D01*
X227790304Y-58190869D02*
X227837923Y-58143250D01*
X227933161Y-58095630D01*
X228171257Y-58095630D01*
X228266495Y-58143250D01*
X228314114Y-58190869D01*
X228361733Y-58286107D01*
X228361733Y-58381345D01*
X228314114Y-58524202D01*
X227742685Y-59095630D01*
X228361733Y-59095630D01*
%TO.C,M11*%
X206692685Y-59095630D02*
X206692685Y-58095630D01*
X207026019Y-58809916D01*
X207359352Y-58095630D01*
X207359352Y-59095630D01*
X208359352Y-59095630D02*
X207787923Y-59095630D01*
X208073638Y-59095630D02*
X208073638Y-58095630D01*
X207978400Y-58238488D01*
X207883161Y-58333726D01*
X207787923Y-58381345D01*
X209311733Y-59095630D02*
X208740304Y-59095630D01*
X209026019Y-59095630D02*
X209026019Y-58095630D01*
X208930780Y-58238488D01*
X208835542Y-58333726D01*
X208740304Y-58381345D01*
%TO.C,M10*%
X187642685Y-59095630D02*
X187642685Y-58095630D01*
X187976019Y-58809916D01*
X188309352Y-58095630D01*
X188309352Y-59095630D01*
X189309352Y-59095630D02*
X188737923Y-59095630D01*
X189023638Y-59095630D02*
X189023638Y-58095630D01*
X188928400Y-58238488D01*
X188833161Y-58333726D01*
X188737923Y-58381345D01*
X189928400Y-58095630D02*
X190023638Y-58095630D01*
X190118876Y-58143250D01*
X190166495Y-58190869D01*
X190214114Y-58286107D01*
X190261733Y-58476583D01*
X190261733Y-58714678D01*
X190214114Y-58905154D01*
X190166495Y-59000392D01*
X190118876Y-59048011D01*
X190023638Y-59095630D01*
X189928400Y-59095630D01*
X189833161Y-59048011D01*
X189785542Y-59000392D01*
X189737923Y-58905154D01*
X189690304Y-58714678D01*
X189690304Y-58476583D01*
X189737923Y-58286107D01*
X189785542Y-58190869D01*
X189833161Y-58143250D01*
X189928400Y-58095630D01*
%TO.C,M9*%
X169068876Y-59095630D02*
X169068876Y-58095630D01*
X169402209Y-58809916D01*
X169735542Y-58095630D01*
X169735542Y-59095630D01*
X170259352Y-59095630D02*
X170449828Y-59095630D01*
X170545066Y-59048011D01*
X170592685Y-59000392D01*
X170687923Y-58857535D01*
X170735542Y-58667059D01*
X170735542Y-58286107D01*
X170687923Y-58190869D01*
X170640304Y-58143250D01*
X170545066Y-58095630D01*
X170354590Y-58095630D01*
X170259352Y-58143250D01*
X170211733Y-58190869D01*
X170164114Y-58286107D01*
X170164114Y-58524202D01*
X170211733Y-58619440D01*
X170259352Y-58667059D01*
X170354590Y-58714678D01*
X170545066Y-58714678D01*
X170640304Y-58667059D01*
X170687923Y-58619440D01*
X170735542Y-58524202D01*
%TO.C,M8*%
X150018876Y-59095630D02*
X150018876Y-58095630D01*
X150352209Y-58809916D01*
X150685542Y-58095630D01*
X150685542Y-59095630D01*
X151304590Y-58524202D02*
X151209352Y-58476583D01*
X151161733Y-58428964D01*
X151114114Y-58333726D01*
X151114114Y-58286107D01*
X151161733Y-58190869D01*
X151209352Y-58143250D01*
X151304590Y-58095630D01*
X151495066Y-58095630D01*
X151590304Y-58143250D01*
X151637923Y-58190869D01*
X151685542Y-58286107D01*
X151685542Y-58333726D01*
X151637923Y-58428964D01*
X151590304Y-58476583D01*
X151495066Y-58524202D01*
X151304590Y-58524202D01*
X151209352Y-58571821D01*
X151161733Y-58619440D01*
X151114114Y-58714678D01*
X151114114Y-58905154D01*
X151161733Y-59000392D01*
X151209352Y-59048011D01*
X151304590Y-59095630D01*
X151495066Y-59095630D01*
X151590304Y-59048011D01*
X151637923Y-59000392D01*
X151685542Y-58905154D01*
X151685542Y-58714678D01*
X151637923Y-58619440D01*
X151590304Y-58571821D01*
X151495066Y-58524202D01*
%TO.C,M7*%
X130968876Y-59095630D02*
X130968876Y-58095630D01*
X131302209Y-58809916D01*
X131635542Y-58095630D01*
X131635542Y-59095630D01*
X132016495Y-58095630D02*
X132683161Y-58095630D01*
X132254590Y-59095630D01*
%TO.C,M6*%
X111918876Y-59095630D02*
X111918876Y-58095630D01*
X112252209Y-58809916D01*
X112585542Y-58095630D01*
X112585542Y-59095630D01*
X113490304Y-58095630D02*
X113299828Y-58095630D01*
X113204590Y-58143250D01*
X113156971Y-58190869D01*
X113061733Y-58333726D01*
X113014114Y-58524202D01*
X113014114Y-58905154D01*
X113061733Y-59000392D01*
X113109352Y-59048011D01*
X113204590Y-59095630D01*
X113395066Y-59095630D01*
X113490304Y-59048011D01*
X113537923Y-59000392D01*
X113585542Y-58905154D01*
X113585542Y-58667059D01*
X113537923Y-58571821D01*
X113490304Y-58524202D01*
X113395066Y-58476583D01*
X113204590Y-58476583D01*
X113109352Y-58524202D01*
X113061733Y-58571821D01*
X113014114Y-58667059D01*
%TO.C,M5*%
X92868876Y-59095630D02*
X92868876Y-58095630D01*
X93202209Y-58809916D01*
X93535542Y-58095630D01*
X93535542Y-59095630D01*
X94487923Y-58095630D02*
X94011733Y-58095630D01*
X93964114Y-58571821D01*
X94011733Y-58524202D01*
X94106971Y-58476583D01*
X94345066Y-58476583D01*
X94440304Y-58524202D01*
X94487923Y-58571821D01*
X94535542Y-58667059D01*
X94535542Y-58905154D01*
X94487923Y-59000392D01*
X94440304Y-59048011D01*
X94345066Y-59095630D01*
X94106971Y-59095630D01*
X94011733Y-59048011D01*
X93964114Y-59000392D01*
%TO.C,M4*%
X73818876Y-59095630D02*
X73818876Y-58095630D01*
X74152209Y-58809916D01*
X74485542Y-58095630D01*
X74485542Y-59095630D01*
X75390304Y-58428964D02*
X75390304Y-59095630D01*
X75152209Y-58048011D02*
X74914114Y-58762297D01*
X75533161Y-58762297D01*
%TO.C,M3*%
X54768876Y-59095630D02*
X54768876Y-58095630D01*
X55102209Y-58809916D01*
X55435542Y-58095630D01*
X55435542Y-59095630D01*
X55816495Y-58095630D02*
X56435542Y-58095630D01*
X56102209Y-58476583D01*
X56245066Y-58476583D01*
X56340304Y-58524202D01*
X56387923Y-58571821D01*
X56435542Y-58667059D01*
X56435542Y-58905154D01*
X56387923Y-59000392D01*
X56340304Y-59048011D01*
X56245066Y-59095630D01*
X55959352Y-59095630D01*
X55864114Y-59048011D01*
X55816495Y-59000392D01*
%TO.C,M2*%
X35718876Y-59095630D02*
X35718876Y-58095630D01*
X36052209Y-58809916D01*
X36385542Y-58095630D01*
X36385542Y-59095630D01*
X36814114Y-58190869D02*
X36861733Y-58143250D01*
X36956971Y-58095630D01*
X37195066Y-58095630D01*
X37290304Y-58143250D01*
X37337923Y-58190869D01*
X37385542Y-58286107D01*
X37385542Y-58381345D01*
X37337923Y-58524202D01*
X36766495Y-59095630D01*
X37385542Y-59095630D01*
%TD*%
M02*
