M48
; DRILL file {KiCad (5.1.10)-1} date 10/30/21 01:15:45
; FORMAT={-:-/ absolute / inch / decimal}
; #@! TF.CreationDate,2021-10-30T01:15:45-04:00
; #@! TF.GenerationSoftware,Kicad,Pcbnew,(5.1.10)-1
FMAT,2
INCH
T1C0.0157
T2C0.0472
T3C0.1260
T4C0.0472
T5C0.0709
T6C0.1260
%
G90
G05
T1
X-0.9375Y-2.6875
X-0.9375Y-3.4688
X-0.9062Y-4.2188
X-0.9062Y-4.9688
X-0.88Y-2.82
X-0.85Y-3.6
X-0.82Y-4.38
X-0.79Y-5.16
X-0.76Y-3.05
X-0.76Y-3.79
X-0.76Y-4.55
X-0.7Y-4.6041
X-0.6941Y-3.86
X-0.6841Y-3.12
X-0.6562Y-2.6875
X-0.6562Y-3.4688
X-0.625Y-4.2188
X-0.625Y-4.9688
X-0.545Y-3.155
X-0.535Y-3.905
X-0.535Y-5.405
X-0.525Y-4.655
X-0.395Y-2.705
X-0.395Y-2.755
X-0.395Y-2.805
X-0.395Y-2.855
X-0.395Y-3.105
X-0.395Y-3.455
X-0.395Y-3.505
X-0.395Y-3.555
X-0.395Y-3.605
X-0.395Y-3.855
X-0.385Y-4.205
X-0.385Y-4.255
X-0.385Y-4.305
X-0.385Y-4.355
X-0.385Y-4.605
X-0.375Y-4.955
X-0.375Y-5.005
X-0.375Y-5.055
X-0.375Y-5.355
X-0.185Y-4.005
X-0.185Y-5.505
X-0.175Y-3.255
X-0.175Y-4.755
X-0.175Y-4.855
X0.2188Y-2.0217
T2
X0.6875Y-3.1427
X0.6875Y-3.8915
X0.6875Y-4.6427
X0.6881Y-2.3915
X0.8844Y-3.2254
X0.8844Y-3.9741
X0.8844Y-4.7254
X0.885Y-2.4741
X1.4375Y-3.1427
X1.4375Y-3.8915
X1.4375Y-4.6427
X1.4381Y-2.3915
X1.6344Y-3.2254
X1.6344Y-3.9741
X1.6344Y-4.7254
X1.635Y-2.4741
X2.1875Y-3.1427
X2.1875Y-3.8915
X2.1875Y-4.6427
X2.1881Y-2.3915
X2.3844Y-3.2254
X2.3844Y-3.9741
X2.3844Y-4.7254
X2.385Y-2.4741
X2.9375Y-3.1427
X2.9375Y-3.8927
X2.9375Y-4.6427
X2.9381Y-2.3915
X3.1344Y-3.2254
X3.1344Y-3.9754
X3.1344Y-4.7254
X3.135Y-2.4741
X3.6875Y-3.1427
X3.6875Y-3.8927
X3.6875Y-4.6427
X3.6881Y-2.3915
X3.8844Y-3.2254
X3.8844Y-3.9754
X3.8844Y-4.7254
X3.885Y-2.4741
X4.4375Y-3.1427
X4.4375Y-3.8915
X4.4381Y-2.3915
X4.6344Y-3.2254
X4.6344Y-3.9741
X4.635Y-2.4741
X4.8125Y-4.6427
X5.0094Y-4.7254
X5.1875Y-3.1415
X5.1875Y-3.8927
X5.1881Y-2.3915
X5.3844Y-3.2241
X5.3844Y-3.9754
X5.385Y-2.4741
X5.9375Y-3.1427
X5.9375Y-3.8927
X5.9375Y-4.6427
X5.9381Y-2.3915
X6.1344Y-3.2254
X6.1344Y-3.9754
X6.1344Y-4.7254
X6.135Y-2.4741
X6.6875Y-3.1427
X6.6875Y-3.8915
X6.6875Y-4.6427
X6.6881Y-2.3915
X6.8844Y-3.2254
X6.8844Y-3.9741
X6.8844Y-4.7254
X6.885Y-2.4741
X7.4375Y-3.1427
X7.4375Y-3.8915
X7.4375Y-4.6427
X7.4381Y-2.3915
X7.6344Y-3.2254
X7.6344Y-3.9741
X7.6344Y-4.7254
X7.635Y-2.4741
X8.1875Y-3.1427
X8.1875Y-3.8915
X8.1875Y-4.6427
X8.1881Y-2.3915
X8.3844Y-3.2254
X8.3844Y-3.9741
X8.3844Y-4.7254
X8.385Y-2.4741
X8.9375Y-3.1427
X8.9375Y-3.8915
X8.9375Y-4.6427
X8.9381Y-2.3915
X9.1344Y-3.2254
X9.1344Y-3.9741
X9.1344Y-4.7254
X9.135Y-2.4741
T3
X-0.8438Y-5.5312
X0.4375Y-1.9375
X4.25Y-5.5312
X4.7812Y-1.9375
X9.2188Y-1.9375
X9.2188Y-5.5312
T4
X0.482Y-3.5404
X0.482Y-4.2891
X0.482Y-5.0404
X0.4826Y-2.7891
X1.232Y-3.5404
X1.232Y-4.2891
X1.232Y-5.0404
X1.2326Y-2.7891
X1.982Y-3.5404
X1.982Y-4.2891
X1.982Y-5.0404
X1.9826Y-2.7891
X2.732Y-3.5404
X2.732Y-4.2904
X2.732Y-5.0404
X2.7326Y-2.7891
X3.482Y-3.5404
X3.482Y-4.2904
X3.482Y-5.0404
X3.4826Y-2.7891
X4.232Y-3.5404
X4.232Y-4.2891
X4.2326Y-2.7891
X4.607Y-5.0404
X4.982Y-3.5391
X4.982Y-4.2904
X4.9826Y-2.7891
X5.732Y-3.5404
X5.732Y-4.2904
X5.732Y-5.0404
X5.7326Y-2.7891
X6.482Y-3.5404
X6.482Y-4.2891
X6.482Y-5.0404
X6.4826Y-2.7891
X7.232Y-3.5404
X7.232Y-4.2891
X7.232Y-5.0404
X7.2326Y-2.7891
X7.982Y-3.5404
X7.982Y-4.2891
X7.982Y-5.0404
X7.9826Y-2.7891
X8.732Y-3.5404
X8.732Y-4.2891
X8.732Y-5.0404
X8.7326Y-2.7891
T5
X0.471Y-3.375
X0.471Y-4.1238
X0.471Y-4.875
X0.4716Y-2.6237
X0.904Y-3.375
X0.904Y-4.1238
X0.904Y-4.875
X0.9047Y-2.6237
X1.221Y-3.375
X1.221Y-4.1238
X1.221Y-4.875
X1.2216Y-2.6237
X1.654Y-3.375
X1.654Y-4.1238
X1.654Y-4.875
X1.6547Y-2.6237
X1.971Y-3.375
X1.971Y-4.1238
X1.971Y-4.875
X1.9716Y-2.6237
X2.404Y-3.375
X2.404Y-4.1238
X2.404Y-4.875
X2.4047Y-2.6237
X2.721Y-3.375
X2.721Y-4.125
X2.721Y-4.875
X2.7216Y-2.6237
X3.154Y-3.375
X3.154Y-4.125
X3.154Y-4.875
X3.1547Y-2.6237
X3.471Y-3.375
X3.471Y-4.125
X3.471Y-4.875
X3.4716Y-2.6237
X3.904Y-3.375
X3.904Y-4.125
X3.904Y-4.875
X3.9047Y-2.6237
X4.221Y-3.375
X4.221Y-4.1238
X4.2216Y-2.6237
X4.596Y-4.875
X4.654Y-3.375
X4.654Y-4.1238
X4.6547Y-2.6237
X4.971Y-3.3737
X4.971Y-4.125
X4.9716Y-2.6237
X5.029Y-4.875
X5.404Y-3.3737
X5.404Y-4.125
X5.4047Y-2.6237
X5.721Y-3.375
X5.721Y-4.125
X5.721Y-4.875
X5.7216Y-2.6237
X6.154Y-3.375
X6.154Y-4.125
X6.154Y-4.875
X6.1547Y-2.6237
X6.471Y-3.375
X6.471Y-4.1238
X6.471Y-4.875
X6.4716Y-2.6237
X6.904Y-3.375
X6.904Y-4.1238
X6.904Y-4.875
X6.9047Y-2.6237
X7.221Y-3.375
X7.221Y-4.1238
X7.221Y-4.875
X7.2216Y-2.6237
X7.654Y-3.375
X7.654Y-4.1238
X7.654Y-4.875
X7.6547Y-2.6237
X7.971Y-3.375
X7.971Y-4.1238
X7.971Y-4.875
X7.9716Y-2.6237
X8.404Y-3.375
X8.404Y-4.1238
X8.404Y-4.875
X8.4047Y-2.6237
X8.721Y-3.375
X8.721Y-4.1238
X8.721Y-4.875
X8.7216Y-2.6237
X9.154Y-3.375
X9.154Y-4.1238
X9.154Y-4.875
X9.1547Y-2.6237
T6
X0.6875Y-3.375
X0.6875Y-4.1238
X0.6875Y-4.875
X0.6881Y-2.6237
X1.4375Y-3.375
X1.4375Y-4.1238
X1.4375Y-4.875
X1.4381Y-2.6237
X2.1875Y-3.375
X2.1875Y-4.1238
X2.1875Y-4.875
X2.1881Y-2.6237
X2.9375Y-3.375
X2.9375Y-4.125
X2.9375Y-4.875
X2.9381Y-2.6237
X3.6875Y-3.375
X3.6875Y-4.125
X3.6875Y-4.875
X3.6881Y-2.6237
X4.4375Y-3.375
X4.4375Y-4.1238
X4.4381Y-2.6237
X4.8125Y-4.875
X5.1875Y-3.3737
X5.1875Y-4.125
X5.1881Y-2.6237
X5.9375Y-3.375
X5.9375Y-4.125
X5.9375Y-4.875
X5.9381Y-2.6237
X6.6875Y-3.375
X6.6875Y-4.1238
X6.6875Y-4.875
X6.6881Y-2.6237
X7.4375Y-3.375
X7.4375Y-4.1238
X7.4375Y-4.875
X7.4381Y-2.6237
X8.1875Y-3.375
X8.1875Y-4.1238
X8.1875Y-4.875
X8.1881Y-2.6237
X8.9375Y-3.375
X8.9375Y-4.1238
X8.9375Y-4.875
X8.9381Y-2.6237
T0
M30
