%TF.GenerationSoftware,KiCad,Pcbnew,(5.1.10-32-g011b4027db)-1*%
%TF.CreationDate,2021-11-12T02:15:37-05:00*%
%TF.ProjectId,keyboard,6b657962-6f61-4726-942e-6b696361645f,rev?*%
%TF.SameCoordinates,Original*%
%TF.FileFunction,Legend,Top*%
%TF.FilePolarity,Positive*%
%FSLAX46Y46*%
G04 Gerber Fmt 4.6, Leading zero omitted, Abs format (unit mm)*
G04 Created by KiCad (PCBNEW (5.1.10-32-g011b4027db)-1) date 2021-11-12 02:15:37*
%MOMM*%
%LPD*%
G01*
G04 APERTURE LIST*
%ADD10C,0.120000*%
%ADD11C,0.100000*%
%ADD12C,0.127000*%
%ADD13C,0.066040*%
%ADD14C,0.150000*%
%ADD15C,0.101600*%
%ADD16C,0.076200*%
G04 APERTURE END LIST*
D10*
%TO.C,R2*%
X274462000Y-102520000D02*
X274462000Y-100680000D01*
X274462000Y-100680000D02*
X270622000Y-100680000D01*
X270622000Y-100680000D02*
X270622000Y-102520000D01*
X270622000Y-102520000D02*
X274462000Y-102520000D01*
X275412000Y-101600000D02*
X274462000Y-101600000D01*
X269672000Y-101600000D02*
X270622000Y-101600000D01*
%TO.C,R1*%
X274462000Y-98456000D02*
X274462000Y-96616000D01*
X274462000Y-96616000D02*
X270622000Y-96616000D01*
X270622000Y-96616000D02*
X270622000Y-98456000D01*
X270622000Y-98456000D02*
X274462000Y-98456000D01*
X275412000Y-97536000D02*
X274462000Y-97536000D01*
X269672000Y-97536000D02*
X270622000Y-97536000D01*
D11*
%TO.C,C1*%
X292258750Y-91671522D02*
G75*
G03*
X292258750Y-91671522I-254000J0D01*
G01*
D12*
X292893750Y-89504902D02*
X292893750Y-109832522D01*
X293564310Y-88834342D02*
X292893750Y-89504902D01*
X310691530Y-88834342D02*
X293564310Y-88834342D01*
X310691530Y-109832522D02*
X310691530Y-88834342D01*
X292893750Y-109832522D02*
X310691530Y-109832522D01*
D13*
X305212750Y-88750522D02*
X306990750Y-88750522D01*
X296576750Y-88750522D02*
X298354750Y-88750522D01*
D10*
%TO.C,U3*%
X138585250Y-98535011D02*
X138585250Y-96885011D01*
X138585250Y-96885011D02*
X102905250Y-96885011D01*
X102905250Y-96885011D02*
X102905250Y-102185011D01*
X102905250Y-102185011D02*
X138585250Y-102185011D01*
X138585250Y-102185011D02*
X138585250Y-100535011D01*
X138585250Y-100535011D02*
G75*
G02*
X138585250Y-98535011I0J1000000D01*
G01*
%TO.C,U2*%
X201592083Y-98535011D02*
X201592083Y-96885011D01*
X201592083Y-96885011D02*
X165912083Y-96885011D01*
X165912083Y-96885011D02*
X165912083Y-102185011D01*
X165912083Y-102185011D02*
X201592083Y-102185011D01*
X201592083Y-102185011D02*
X201592083Y-100535011D01*
X201592083Y-100535011D02*
G75*
G02*
X201592083Y-98535011I0J1000000D01*
G01*
%TO.C,U1*%
X264598916Y-98535011D02*
X264598916Y-96885011D01*
X264598916Y-96885011D02*
X228918916Y-96885011D01*
X228918916Y-96885011D02*
X228918916Y-102185011D01*
X228918916Y-102185011D02*
X264598916Y-102185011D01*
X264598916Y-102185011D02*
X264598916Y-100535011D01*
X264598916Y-100535011D02*
G75*
G02*
X264598916Y-98535011I0J1000000D01*
G01*
%TO.C,R2*%
D14*
X272375333Y-100020380D02*
X272042000Y-99544190D01*
X271803904Y-100020380D02*
X271803904Y-99020380D01*
X272184857Y-99020380D01*
X272280095Y-99068000D01*
X272327714Y-99115619D01*
X272375333Y-99210857D01*
X272375333Y-99353714D01*
X272327714Y-99448952D01*
X272280095Y-99496571D01*
X272184857Y-99544190D01*
X271803904Y-99544190D01*
X272756285Y-99115619D02*
X272803904Y-99068000D01*
X272899142Y-99020380D01*
X273137238Y-99020380D01*
X273232476Y-99068000D01*
X273280095Y-99115619D01*
X273327714Y-99210857D01*
X273327714Y-99306095D01*
X273280095Y-99448952D01*
X272708666Y-100020380D01*
X273327714Y-100020380D01*
%TO.C,R1*%
X272375333Y-99908380D02*
X272042000Y-99432190D01*
X271803904Y-99908380D02*
X271803904Y-98908380D01*
X272184857Y-98908380D01*
X272280095Y-98956000D01*
X272327714Y-99003619D01*
X272375333Y-99098857D01*
X272375333Y-99241714D01*
X272327714Y-99336952D01*
X272280095Y-99384571D01*
X272184857Y-99432190D01*
X271803904Y-99432190D01*
X273327714Y-99908380D02*
X272756285Y-99908380D01*
X273042000Y-99908380D02*
X273042000Y-98908380D01*
X272946761Y-99051238D01*
X272851523Y-99146476D01*
X272756285Y-99194095D01*
%TO.C,C1*%
D15*
X302096992Y-102752272D02*
X302054659Y-102794605D01*
X301927659Y-102836938D01*
X301842992Y-102836938D01*
X301715992Y-102794605D01*
X301631325Y-102709938D01*
X301588992Y-102625272D01*
X301546659Y-102455938D01*
X301546659Y-102328938D01*
X301588992Y-102159605D01*
X301631325Y-102074938D01*
X301715992Y-101990272D01*
X301842992Y-101947938D01*
X301927659Y-101947938D01*
X302054659Y-101990272D01*
X302096992Y-102032605D01*
X302943659Y-102836938D02*
X302435659Y-102836938D01*
X302689659Y-102836938D02*
X302689659Y-101947938D01*
X302604992Y-102074938D01*
X302520325Y-102159605D01*
X302435659Y-102201938D01*
D16*
X298561578Y-99284264D02*
X298648664Y-99313293D01*
X298793807Y-99313293D01*
X298851864Y-99284264D01*
X298880892Y-99255236D01*
X298909921Y-99197179D01*
X298909921Y-99139122D01*
X298880892Y-99081064D01*
X298851864Y-99052036D01*
X298793807Y-99023007D01*
X298677692Y-98993979D01*
X298619635Y-98964950D01*
X298590607Y-98935922D01*
X298561578Y-98877864D01*
X298561578Y-98819807D01*
X298590607Y-98761750D01*
X298619635Y-98732722D01*
X298677692Y-98703693D01*
X298822835Y-98703693D01*
X298909921Y-98732722D01*
X299403407Y-99284264D02*
X299345350Y-99313293D01*
X299229235Y-99313293D01*
X299171178Y-99284264D01*
X299142150Y-99226207D01*
X299142150Y-98993979D01*
X299171178Y-98935922D01*
X299229235Y-98906893D01*
X299345350Y-98906893D01*
X299403407Y-98935922D01*
X299432435Y-98993979D01*
X299432435Y-99052036D01*
X299142150Y-99110093D01*
X299925921Y-99284264D02*
X299867864Y-99313293D01*
X299751750Y-99313293D01*
X299693692Y-99284264D01*
X299664664Y-99226207D01*
X299664664Y-98993979D01*
X299693692Y-98935922D01*
X299751750Y-98906893D01*
X299867864Y-98906893D01*
X299925921Y-98935922D01*
X299954950Y-98993979D01*
X299954950Y-99052036D01*
X299664664Y-99110093D01*
X300448435Y-99284264D02*
X300390378Y-99313293D01*
X300274264Y-99313293D01*
X300216207Y-99284264D01*
X300187178Y-99226207D01*
X300187178Y-98993979D01*
X300216207Y-98935922D01*
X300274264Y-98906893D01*
X300390378Y-98906893D01*
X300448435Y-98935922D01*
X300477464Y-98993979D01*
X300477464Y-99052036D01*
X300187178Y-99110093D01*
X300999978Y-99313293D02*
X300999978Y-98703693D01*
X300999978Y-99284264D02*
X300941921Y-99313293D01*
X300825807Y-99313293D01*
X300767750Y-99284264D01*
X300738721Y-99255236D01*
X300709692Y-99197179D01*
X300709692Y-99023007D01*
X300738721Y-98964950D01*
X300767750Y-98935922D01*
X300825807Y-98906893D01*
X300941921Y-98906893D01*
X300999978Y-98935922D01*
X301551521Y-98906893D02*
X301551521Y-99313293D01*
X301290264Y-98906893D02*
X301290264Y-99226207D01*
X301319292Y-99284264D01*
X301377350Y-99313293D01*
X301464435Y-99313293D01*
X301522492Y-99284264D01*
X301551521Y-99255236D01*
X301841807Y-99313293D02*
X301841807Y-98906893D01*
X301841807Y-98703693D02*
X301812778Y-98732722D01*
X301841807Y-98761750D01*
X301870835Y-98732722D01*
X301841807Y-98703693D01*
X301841807Y-98761750D01*
X302132092Y-98906893D02*
X302132092Y-99313293D01*
X302132092Y-98964950D02*
X302161121Y-98935922D01*
X302219178Y-98906893D01*
X302306264Y-98906893D01*
X302364321Y-98935922D01*
X302393350Y-98993979D01*
X302393350Y-99313293D01*
X302770721Y-99313293D02*
X302712664Y-99284264D01*
X302683635Y-99255236D01*
X302654607Y-99197179D01*
X302654607Y-99023007D01*
X302683635Y-98964950D01*
X302712664Y-98935922D01*
X302770721Y-98906893D01*
X302857807Y-98906893D01*
X302915864Y-98935922D01*
X302944892Y-98964950D01*
X302973921Y-99023007D01*
X302973921Y-99197179D01*
X302944892Y-99255236D01*
X302915864Y-99284264D01*
X302857807Y-99313293D01*
X302770721Y-99313293D01*
X303177121Y-98703693D02*
X303583521Y-99313293D01*
X303583521Y-98703693D02*
X303177121Y-99313293D01*
X303815750Y-99313293D02*
X303815750Y-98703693D01*
X304077007Y-99139122D02*
X304367292Y-99139122D01*
X304018950Y-99313293D02*
X304222150Y-98703693D01*
X304425350Y-99313293D01*
X304744664Y-98703693D02*
X304860778Y-98703693D01*
X304918835Y-98732722D01*
X304976892Y-98790779D01*
X305005921Y-98906893D01*
X305005921Y-99110093D01*
X304976892Y-99226207D01*
X304918835Y-99284264D01*
X304860778Y-99313293D01*
X304744664Y-99313293D01*
X304686607Y-99284264D01*
X304628550Y-99226207D01*
X304599521Y-99110093D01*
X304599521Y-98906893D01*
X304628550Y-98790779D01*
X304686607Y-98732722D01*
X304744664Y-98703693D01*
%TD*%
M02*
