%TF.GenerationSoftware,KiCad,Pcbnew,(5.1.10-32-g011b4027db)-1*%
%TF.CreationDate,2021-11-12T02:15:37-05:00*%
%TF.ProjectId,keyboard,6b657962-6f61-4726-942e-6b696361645f,rev?*%
%TF.SameCoordinates,Original*%
%TF.FileFunction,Legend,Bot*%
%TF.FilePolarity,Positive*%
%FSLAX46Y46*%
G04 Gerber Fmt 4.6, Leading zero omitted, Abs format (unit mm)*
G04 Created by KiCad (PCBNEW (5.1.10-32-g011b4027db)-1) date 2021-11-12 02:15:37*
%MOMM*%
%LPD*%
G01*
G04 APERTURE LIST*
%ADD10C,1.000000*%
G04 APERTURE END LIST*
D10*
X285018333Y-142851666D02*
X285018333Y-144185000D01*
X282351666Y-142851666D02*
X282351666Y-144185000D01*
X280018333Y-142851666D02*
X278351666Y-149851666D01*
X277018333Y-144851666D01*
X275685000Y-149851666D01*
X274018333Y-142851666D01*
X271351666Y-149851666D02*
X271351666Y-145185000D01*
X271351666Y-146518333D02*
X271018333Y-145851666D01*
X270685000Y-145518333D01*
X270018333Y-145185000D01*
X269351666Y-145185000D01*
X267018333Y-149851666D02*
X267018333Y-145185000D01*
X267018333Y-142851666D02*
X267351666Y-143185000D01*
X267018333Y-143518333D01*
X266685000Y-143185000D01*
X267018333Y-142851666D01*
X267018333Y-143518333D01*
X264685000Y-145185000D02*
X262018333Y-145185000D01*
X263685000Y-142851666D02*
X263685000Y-148851666D01*
X263351666Y-149518333D01*
X262685000Y-149851666D01*
X262018333Y-149851666D01*
X257018333Y-149518333D02*
X257685000Y-149851666D01*
X259018333Y-149851666D01*
X259685000Y-149518333D01*
X260018333Y-148851666D01*
X260018333Y-146185000D01*
X259685000Y-145518333D01*
X259018333Y-145185000D01*
X257685000Y-145185000D01*
X257018333Y-145518333D01*
X256685000Y-146185000D01*
X256685000Y-146851666D01*
X260018333Y-147518333D01*
X248351666Y-149851666D02*
X248351666Y-142851666D01*
X248351666Y-145518333D02*
X247685000Y-145185000D01*
X246351666Y-145185000D01*
X245685000Y-145518333D01*
X245351666Y-145851666D01*
X245018333Y-146518333D01*
X245018333Y-148518333D01*
X245351666Y-149185000D01*
X245685000Y-149518333D01*
X246351666Y-149851666D01*
X247685000Y-149851666D01*
X248351666Y-149518333D01*
X239018333Y-145185000D02*
X239018333Y-149851666D01*
X242018333Y-145185000D02*
X242018333Y-148851666D01*
X241685000Y-149518333D01*
X241018333Y-149851666D01*
X240018333Y-149851666D01*
X239351666Y-149518333D01*
X239018333Y-149185000D01*
X236018333Y-149518333D02*
X235351666Y-149851666D01*
X234018333Y-149851666D01*
X233351666Y-149518333D01*
X233018333Y-148851666D01*
X233018333Y-148518333D01*
X233351666Y-147851666D01*
X234018333Y-147518333D01*
X235018333Y-147518333D01*
X235685000Y-147185000D01*
X236018333Y-146518333D01*
X236018333Y-146185000D01*
X235685000Y-145518333D01*
X235018333Y-145185000D01*
X234018333Y-145185000D01*
X233351666Y-145518333D01*
X230351666Y-149518333D02*
X229685000Y-149851666D01*
X228351666Y-149851666D01*
X227685000Y-149518333D01*
X227351666Y-148851666D01*
X227351666Y-148518333D01*
X227685000Y-147851666D01*
X228351666Y-147518333D01*
X229351666Y-147518333D01*
X230018333Y-147185000D01*
X230351666Y-146518333D01*
X230351666Y-146185000D01*
X230018333Y-145518333D01*
X229351666Y-145185000D01*
X228351666Y-145185000D01*
X227685000Y-145518333D01*
X225018333Y-145185000D02*
X223351666Y-149851666D01*
X221685000Y-145185000D02*
X223351666Y-149851666D01*
X224018333Y-151518333D01*
X224351666Y-151851666D01*
X225018333Y-152185000D01*
X212685000Y-149851666D02*
X213351666Y-149518333D01*
X213685000Y-149185000D01*
X214018333Y-148518333D01*
X214018333Y-146518333D01*
X213685000Y-145851666D01*
X213351666Y-145518333D01*
X212685000Y-145185000D01*
X211685000Y-145185000D01*
X211018333Y-145518333D01*
X210685000Y-145851666D01*
X210351666Y-146518333D01*
X210351666Y-148518333D01*
X210685000Y-149185000D01*
X211018333Y-149518333D01*
X211685000Y-149851666D01*
X212685000Y-149851666D01*
X207351666Y-145185000D02*
X207351666Y-149851666D01*
X207351666Y-145851666D02*
X207018333Y-145518333D01*
X206351666Y-145185000D01*
X205351666Y-145185000D01*
X204685000Y-145518333D01*
X204351666Y-146185000D01*
X204351666Y-149851666D01*
X195685000Y-149851666D02*
X195685000Y-145185000D01*
X195685000Y-142851666D02*
X196018333Y-143185000D01*
X195685000Y-143518333D01*
X195351666Y-143185000D01*
X195685000Y-142851666D01*
X195685000Y-143518333D01*
X193351666Y-145185000D02*
X190685000Y-145185000D01*
X192351666Y-142851666D02*
X192351666Y-148851666D01*
X192018333Y-149518333D01*
X191351666Y-149851666D01*
X190685000Y-149851666D01*
X188685000Y-142851666D02*
X188685000Y-144185000D01*
X186018333Y-142851666D02*
X186018333Y-144185000D01*
X177685000Y-147185000D02*
X172351666Y-147185000D01*
X169351666Y-149518333D02*
X168351666Y-149851666D01*
X166685000Y-149851666D01*
X166018333Y-149518333D01*
X165685000Y-149185000D01*
X165351666Y-148518333D01*
X165351666Y-147851666D01*
X165685000Y-147185000D01*
X166018333Y-146851666D01*
X166685000Y-146518333D01*
X168018333Y-146185000D01*
X168685000Y-145851666D01*
X169018333Y-145518333D01*
X169351666Y-144851666D01*
X169351666Y-144185000D01*
X169018333Y-143518333D01*
X168685000Y-143185000D01*
X168018333Y-142851666D01*
X166351666Y-142851666D01*
X165351666Y-143185000D01*
X159351666Y-145185000D02*
X159351666Y-149851666D01*
X162351666Y-145185000D02*
X162351666Y-148851666D01*
X162018333Y-149518333D01*
X161351666Y-149851666D01*
X160351666Y-149851666D01*
X159685000Y-149518333D01*
X159351666Y-149185000D01*
X156685000Y-145185000D02*
X155018333Y-149851666D01*
X153351666Y-145185000D02*
X155018333Y-149851666D01*
X155685000Y-151518333D01*
X156018333Y-151851666D01*
X156685000Y-152185000D01*
X147685000Y-149851666D02*
X147685000Y-146185000D01*
X148018333Y-145518333D01*
X148685000Y-145185000D01*
X150018333Y-145185000D01*
X150685000Y-145518333D01*
X147685000Y-149518333D02*
X148351666Y-149851666D01*
X150018333Y-149851666D01*
X150685000Y-149518333D01*
X151018333Y-148851666D01*
X151018333Y-148185000D01*
X150685000Y-147518333D01*
X150018333Y-147185000D01*
X148351666Y-147185000D01*
X147685000Y-146851666D01*
X144685000Y-149518333D02*
X144018333Y-149851666D01*
X142685000Y-149851666D01*
X142018333Y-149518333D01*
X141685000Y-148851666D01*
X141685000Y-148518333D01*
X142018333Y-147851666D01*
X142685000Y-147518333D01*
X143685000Y-147518333D01*
X144351666Y-147185000D01*
X144685000Y-146518333D01*
X144685000Y-146185000D01*
X144351666Y-145518333D01*
X143685000Y-145185000D01*
X142685000Y-145185000D01*
X142018333Y-145518333D01*
X138685000Y-149851666D02*
X138685000Y-142851666D01*
X135685000Y-149851666D02*
X135685000Y-146185000D01*
X136018333Y-145518333D01*
X136685000Y-145185000D01*
X137685000Y-145185000D01*
X138351666Y-145518333D01*
X138685000Y-145851666D01*
M02*
