%TF.GenerationSoftware,KiCad,Pcbnew,(5.1.10-32-g011b4027db)-1*%
%TF.CreationDate,2021-11-07T01:09:16-04:00*%
%TF.ProjectId,keyboard,6b657962-6f61-4726-942e-6b696361645f,rev?*%
%TF.SameCoordinates,Original*%
%TF.FileFunction,Legend,Bot*%
%TF.FilePolarity,Positive*%
%FSLAX46Y46*%
G04 Gerber Fmt 4.6, Leading zero omitted, Abs format (unit mm)*
G04 Created by KiCad (PCBNEW (5.1.10-32-g011b4027db)-1) date 2021-11-07 01:09:16*
%MOMM*%
%LPD*%
G01*
G04 APERTURE LIST*
%ADD10C,0.300000*%
G04 APERTURE END LIST*
D10*
X326760714Y-101341964D02*
X326832142Y-101413392D01*
X327046428Y-101484821D01*
X327189285Y-101484821D01*
X327403571Y-101413392D01*
X327546428Y-101270535D01*
X327617857Y-101127678D01*
X327689285Y-100841964D01*
X327689285Y-100627678D01*
X327617857Y-100341964D01*
X327546428Y-100199107D01*
X327403571Y-100056250D01*
X327189285Y-99984821D01*
X327046428Y-99984821D01*
X326832142Y-100056250D01*
X326760714Y-100127678D01*
X326117857Y-101484821D02*
X326117857Y-100484821D01*
X326117857Y-100770535D02*
X326046428Y-100627678D01*
X325975000Y-100556250D01*
X325832142Y-100484821D01*
X325689285Y-100484821D01*
X324617857Y-101413392D02*
X324760714Y-101484821D01*
X325046428Y-101484821D01*
X325189285Y-101413392D01*
X325260714Y-101270535D01*
X325260714Y-100699107D01*
X325189285Y-100556250D01*
X325046428Y-100484821D01*
X324760714Y-100484821D01*
X324617857Y-100556250D01*
X324546428Y-100699107D01*
X324546428Y-100841964D01*
X325260714Y-100984821D01*
X323260714Y-101484821D02*
X323260714Y-100699107D01*
X323332142Y-100556250D01*
X323475000Y-100484821D01*
X323760714Y-100484821D01*
X323903571Y-100556250D01*
X323260714Y-101413392D02*
X323403571Y-101484821D01*
X323760714Y-101484821D01*
X323903571Y-101413392D01*
X323975000Y-101270535D01*
X323975000Y-101127678D01*
X323903571Y-100984821D01*
X323760714Y-100913392D01*
X323403571Y-100913392D01*
X323260714Y-100841964D01*
X322760714Y-100484821D02*
X322189285Y-100484821D01*
X322546428Y-99984821D02*
X322546428Y-101270535D01*
X322475000Y-101413392D01*
X322332142Y-101484821D01*
X322189285Y-101484821D01*
X321117857Y-101413392D02*
X321260714Y-101484821D01*
X321546428Y-101484821D01*
X321689285Y-101413392D01*
X321760714Y-101270535D01*
X321760714Y-100699107D01*
X321689285Y-100556250D01*
X321546428Y-100484821D01*
X321260714Y-100484821D01*
X321117857Y-100556250D01*
X321046428Y-100699107D01*
X321046428Y-100841964D01*
X321760714Y-100984821D01*
X319760714Y-101484821D02*
X319760714Y-99984821D01*
X319760714Y-101413392D02*
X319903571Y-101484821D01*
X320189285Y-101484821D01*
X320332142Y-101413392D01*
X320403571Y-101341964D01*
X320475000Y-101199107D01*
X320475000Y-100770535D01*
X320403571Y-100627678D01*
X320332142Y-100556250D01*
X320189285Y-100484821D01*
X319903571Y-100484821D01*
X319760714Y-100556250D01*
X318975000Y-101413392D02*
X318975000Y-101484821D01*
X319046428Y-101627678D01*
X319117857Y-101699107D01*
X317332142Y-100484821D02*
X317046428Y-101484821D01*
X316760714Y-100770535D01*
X316475000Y-101484821D01*
X316189285Y-100484821D01*
X315617857Y-101484821D02*
X315617857Y-100484821D01*
X315617857Y-99984821D02*
X315689285Y-100056250D01*
X315617857Y-100127678D01*
X315546428Y-100056250D01*
X315617857Y-99984821D01*
X315617857Y-100127678D01*
X315117857Y-100484821D02*
X314546428Y-100484821D01*
X314903571Y-99984821D02*
X314903571Y-101270535D01*
X314832142Y-101413392D01*
X314689285Y-101484821D01*
X314546428Y-101484821D01*
X314046428Y-101484821D02*
X314046428Y-99984821D01*
X313403571Y-101484821D02*
X313403571Y-100699107D01*
X313475000Y-100556250D01*
X313617857Y-100484821D01*
X313832142Y-100484821D01*
X313975000Y-100556250D01*
X314046428Y-100627678D01*
X311332142Y-101484821D02*
X311475000Y-101413392D01*
X311546428Y-101270535D01*
X311546428Y-99984821D01*
X310546428Y-101484821D02*
X310689285Y-101413392D01*
X310760714Y-101341964D01*
X310832142Y-101199107D01*
X310832142Y-100770535D01*
X310760714Y-100627678D01*
X310689285Y-100556250D01*
X310546428Y-100484821D01*
X310332142Y-100484821D01*
X310189285Y-100556250D01*
X310117857Y-100627678D01*
X310046428Y-100770535D01*
X310046428Y-101199107D01*
X310117857Y-101341964D01*
X310189285Y-101413392D01*
X310332142Y-101484821D01*
X310546428Y-101484821D01*
X309546428Y-100484821D02*
X309189285Y-101484821D01*
X308832142Y-100484821D01*
X307689285Y-101413392D02*
X307832142Y-101484821D01*
X308117857Y-101484821D01*
X308260714Y-101413392D01*
X308332142Y-101270535D01*
X308332142Y-100699107D01*
X308260714Y-100556250D01*
X308117857Y-100484821D01*
X307832142Y-100484821D01*
X307689285Y-100556250D01*
X307617857Y-100699107D01*
X307617857Y-100841964D01*
X308332142Y-100984821D01*
X306903571Y-101413392D02*
X306903571Y-101484821D01*
X306975000Y-101627678D01*
X307046428Y-101699107D01*
X305117857Y-101484821D02*
X305117857Y-99984821D01*
X305117857Y-100556250D02*
X304975000Y-100484821D01*
X304689285Y-100484821D01*
X304546428Y-100556250D01*
X304475000Y-100627678D01*
X304403571Y-100770535D01*
X304403571Y-101199107D01*
X304475000Y-101341964D01*
X304546428Y-101413392D01*
X304689285Y-101484821D01*
X304975000Y-101484821D01*
X305117857Y-101413392D01*
X303903571Y-100484821D02*
X303546428Y-101484821D01*
X303189285Y-100484821D02*
X303546428Y-101484821D01*
X303689285Y-101841964D01*
X303760714Y-101913392D01*
X303903571Y-101984821D01*
X301475000Y-101484821D02*
X301475000Y-99984821D01*
X301475000Y-100699107D02*
X300617857Y-100699107D01*
X300617857Y-101484821D02*
X300617857Y-99984821D01*
X299332142Y-101413392D02*
X299475000Y-101484821D01*
X299760714Y-101484821D01*
X299903571Y-101413392D01*
X299975000Y-101270535D01*
X299975000Y-100699107D01*
X299903571Y-100556250D01*
X299760714Y-100484821D01*
X299475000Y-100484821D01*
X299332142Y-100556250D01*
X299260714Y-100699107D01*
X299260714Y-100841964D01*
X299975000Y-100984821D01*
X298403571Y-101484821D02*
X298546428Y-101413392D01*
X298617857Y-101270535D01*
X298617857Y-99984821D01*
X297832142Y-101484821D02*
X297832142Y-100484821D01*
X297832142Y-100627678D02*
X297760714Y-100556250D01*
X297617857Y-100484821D01*
X297403571Y-100484821D01*
X297260714Y-100556250D01*
X297189285Y-100699107D01*
X297189285Y-101484821D01*
X297189285Y-100699107D02*
X297117857Y-100556250D01*
X296975000Y-100484821D01*
X296760714Y-100484821D01*
X296617857Y-100556250D01*
X296546428Y-100699107D01*
X296546428Y-101484821D01*
X295189285Y-100484821D02*
X295189285Y-101484821D01*
X295832142Y-100484821D02*
X295832142Y-101270535D01*
X295760714Y-101413392D01*
X295617857Y-101484821D01*
X295403571Y-101484821D01*
X295260714Y-101413392D01*
X295189285Y-101341964D01*
X294689285Y-100484821D02*
X294117857Y-100484821D01*
X294475000Y-99984821D02*
X294475000Y-101270535D01*
X294403571Y-101413392D01*
X294260714Y-101484821D01*
X294117857Y-101484821D01*
X291760714Y-101484821D02*
X292475000Y-101484821D01*
X292475000Y-99984821D01*
X291046428Y-101484821D02*
X291189285Y-101413392D01*
X291260714Y-101341964D01*
X291332142Y-101199107D01*
X291332142Y-100770535D01*
X291260714Y-100627678D01*
X291189285Y-100556250D01*
X291046428Y-100484821D01*
X290832142Y-100484821D01*
X290689285Y-100556250D01*
X290617857Y-100627678D01*
X290546428Y-100770535D01*
X290546428Y-101199107D01*
X290617857Y-101341964D01*
X290689285Y-101413392D01*
X290832142Y-101484821D01*
X291046428Y-101484821D01*
X289903571Y-101484821D02*
X289903571Y-100484821D01*
X289903571Y-100770535D02*
X289832142Y-100627678D01*
X289760714Y-100556250D01*
X289617857Y-100484821D01*
X289475000Y-100484821D01*
X288332142Y-101484821D02*
X288332142Y-99984821D01*
X288332142Y-101413392D02*
X288475000Y-101484821D01*
X288760714Y-101484821D01*
X288903571Y-101413392D01*
X288975000Y-101341964D01*
X289046428Y-101199107D01*
X289046428Y-100770535D01*
X288975000Y-100627678D01*
X288903571Y-100556250D01*
X288760714Y-100484821D01*
X288475000Y-100484821D01*
X288332142Y-100556250D01*
M02*
