M48
; DRILL file {KiCad (5.1.10-32-g011b4027db)-1} date 11/12/21 02:15:35
; FORMAT={-:-/ absolute / inch / decimal}
; #@! TF.CreationDate,2021-11-12T02:15:35-05:00
; #@! TF.GenerationSoftware,Kicad,Pcbnew,(5.1.10-32-g011b4027db)-1
FMAT,2
INCH
T1C0.0157
T2C0.0276
T3C0.0300
T4C0.0315
T5C0.0591
T6C0.1260
T7C0.0669
T8C0.1575
%
G90
G05
T1
X4.3204Y-3.7108
X4.5079Y-3.7108
X6.0543Y-4.0244
X6.4283Y-4.0244
X6.95Y-3.6
X8.3181Y-4.0244
X8.7118Y-4.0244
X9.43Y-3.6
X9.57Y-3.66
X11.25Y-3.5625
X11.25Y-3.625
X11.4048Y-3.5952
X11.4608Y-4.0108
X11.4608Y-4.1108
X11.4608Y-4.2108
T2
X10.58Y-3.84
X10.58Y-4.0
X10.88Y-3.84
X10.88Y-4.0
T3
X11.564Y-3.6108
X11.564Y-3.7108
X11.564Y-3.8108
X11.564Y-3.9108
X11.564Y-4.0108
X11.564Y-4.1108
X11.564Y-4.2108
X12.2005Y-3.6108
X12.2005Y-3.7108
X12.2005Y-3.8108
X12.2005Y-3.9108
X12.2005Y-4.0108
X12.2005Y-4.1108
X12.2005Y-4.2108
T4
X4.1037Y-3.7687
X4.1037Y-4.0687
X4.2038Y-3.7687
X4.2038Y-4.0687
X4.3037Y-3.7687
X4.3037Y-4.0687
X4.4037Y-3.7687
X4.4037Y-4.0687
X4.5038Y-3.7687
X4.5038Y-4.0687
X4.6037Y-3.7687
X4.6037Y-4.0687
X4.7038Y-3.7687
X4.7038Y-4.0687
X4.8037Y-3.7687
X4.8037Y-4.0687
X4.9037Y-3.7687
X4.9037Y-4.0687
X5.0038Y-3.7687
X5.0038Y-4.0687
X5.1037Y-3.7687
X5.1037Y-4.0687
X5.2038Y-3.7687
X5.2038Y-4.0687
X5.3037Y-3.7687
X5.3037Y-4.0687
X5.4037Y-3.7687
X5.4037Y-4.0687
X6.5843Y-3.7687
X6.5843Y-4.0687
X6.6843Y-3.7687
X6.6843Y-4.0687
X6.7843Y-3.7687
X6.7843Y-4.0687
X6.8843Y-3.7687
X6.8843Y-4.0687
X6.9843Y-3.7687
X6.9843Y-4.0687
X7.0843Y-3.7687
X7.0843Y-4.0687
X7.1843Y-3.7687
X7.1843Y-4.0687
X7.2843Y-3.7687
X7.2843Y-4.0687
X7.3843Y-3.7687
X7.3843Y-4.0687
X7.4843Y-3.7687
X7.4843Y-4.0687
X7.5843Y-3.7687
X7.5843Y-4.0687
X7.6843Y-3.7687
X7.6843Y-4.0687
X7.7843Y-3.7687
X7.7843Y-4.0687
X7.8843Y-3.7687
X7.8843Y-4.0687
X9.0649Y-3.7687
X9.0649Y-4.0687
X9.1649Y-3.7687
X9.1649Y-4.0687
X9.2649Y-3.7687
X9.2649Y-4.0687
X9.3649Y-3.7687
X9.3649Y-4.0687
X9.4649Y-3.7687
X9.4649Y-4.0687
X9.5649Y-3.7687
X9.5649Y-4.0687
X9.6649Y-3.7687
X9.6649Y-4.0687
X9.7649Y-3.7687
X9.7649Y-4.0687
X9.8649Y-3.7687
X9.8649Y-4.0687
X9.9649Y-3.7687
X9.9649Y-4.0687
X10.0649Y-3.7687
X10.0649Y-4.0687
X10.1649Y-3.7687
X10.1649Y-4.0687
X10.2649Y-3.7687
X10.2649Y-4.0687
X10.3649Y-3.7687
X10.3649Y-4.0687
X12.0977Y-3.7114
T5
X4.2188Y-5.35
X4.2188Y-6.0987
X4.2188Y-6.85
X4.2194Y-4.5987
X4.4688Y-5.25
X4.4688Y-5.9988
X4.4688Y-6.75
X4.4694Y-4.4988
X4.9688Y-5.35
X4.9688Y-6.0987
X4.9688Y-6.85
X4.9694Y-4.5987
X5.2188Y-5.25
X5.2188Y-5.9988
X5.2188Y-6.75
X5.2194Y-4.4988
X5.7188Y-5.35
X5.7188Y-6.0987
X5.7188Y-6.85
X5.7194Y-4.5987
X5.9688Y-5.25
X5.9688Y-5.9988
X5.9688Y-6.75
X5.9694Y-4.4988
X6.4688Y-5.35
X6.4688Y-6.1
X6.4688Y-6.85
X6.4694Y-4.5987
X6.7188Y-5.25
X6.7188Y-6.0
X6.7188Y-6.75
X6.7194Y-4.4988
X7.2188Y-5.35
X7.2188Y-6.1
X7.2188Y-6.85
X7.2194Y-4.5987
X7.4688Y-5.25
X7.4688Y-6.0
X7.4688Y-6.75
X7.4694Y-4.4988
X7.9688Y-5.35
X7.9688Y-6.0987
X7.9694Y-4.5987
X8.2188Y-5.25
X8.2188Y-5.9988
X8.2194Y-4.4988
X8.3438Y-6.85
X8.5938Y-6.75
X8.7188Y-5.3487
X8.7188Y-6.1
X8.7194Y-4.5987
X8.9688Y-5.2488
X8.9688Y-6.0
X8.9694Y-4.4988
X9.4688Y-5.35
X9.4688Y-6.1
X9.4688Y-6.85
X9.4694Y-4.5987
X9.7188Y-5.25
X9.7188Y-6.0
X9.7188Y-6.75
X9.7194Y-4.4988
X10.2188Y-5.35
X10.2188Y-6.0987
X10.2188Y-6.85
X10.2194Y-4.5987
X10.4688Y-5.25
X10.4688Y-5.9988
X10.4688Y-6.75
X10.4694Y-4.4988
X10.9688Y-5.35
X10.9688Y-6.0987
X10.9688Y-6.85
X10.9694Y-4.5987
X11.2188Y-5.25
X11.2188Y-5.9988
X11.2188Y-6.75
X11.2194Y-4.4988
X11.7188Y-5.35
X11.7188Y-6.0987
X11.7188Y-6.85
X11.7194Y-4.5987
X11.9688Y-5.25
X11.9688Y-5.9988
X11.9688Y-6.75
X11.9694Y-4.4988
X12.4688Y-5.35
X12.4688Y-6.0987
X12.4688Y-6.85
X12.4694Y-4.5987
X12.7188Y-5.25
X12.7188Y-5.9988
X12.7188Y-6.75
X12.7194Y-4.4988
T6
X4.75Y-7.125
X5.875Y-3.878
X11.125Y-3.878
X12.25Y-7.125
T7
X4.1688Y-5.45
X4.1688Y-6.1987
X4.1688Y-6.95
X4.1694Y-4.6987
X4.5687Y-5.45
X4.5687Y-6.1987
X4.5687Y-6.95
X4.5694Y-4.6987
X4.9188Y-5.45
X4.9188Y-6.1987
X4.9188Y-6.95
X4.9194Y-4.6987
X5.3187Y-5.45
X5.3187Y-6.1987
X5.3187Y-6.95
X5.3194Y-4.6987
X5.6688Y-5.45
X5.6688Y-6.1987
X5.6688Y-6.95
X5.6694Y-4.6987
X6.0687Y-5.45
X6.0687Y-6.1987
X6.0687Y-6.95
X6.0694Y-4.6987
X6.4188Y-5.45
X6.4188Y-6.2
X6.4188Y-6.95
X6.4194Y-4.6987
X6.8187Y-5.45
X6.8187Y-6.2
X6.8187Y-6.95
X6.8194Y-4.6987
X7.1688Y-5.45
X7.1688Y-6.2
X7.1688Y-6.95
X7.1694Y-4.6987
X7.5687Y-5.45
X7.5687Y-6.2
X7.5687Y-6.95
X7.5694Y-4.6987
X7.9188Y-5.45
X7.9188Y-6.1987
X7.9194Y-4.6987
X8.2937Y-6.95
X8.3187Y-5.45
X8.3187Y-6.1987
X8.3194Y-4.6987
X8.6687Y-5.4487
X8.6687Y-6.2
X8.6694Y-4.6987
X8.6937Y-6.95
X9.0687Y-5.4487
X9.0687Y-6.2
X9.0694Y-4.6987
X9.4187Y-5.45
X9.4187Y-6.2
X9.4187Y-6.95
X9.4194Y-4.6987
X9.8187Y-5.45
X9.8187Y-6.2
X9.8187Y-6.95
X9.8194Y-4.6987
X10.1687Y-5.45
X10.1687Y-6.1987
X10.1687Y-6.95
X10.1694Y-4.6987
X10.5687Y-5.45
X10.5687Y-6.1987
X10.5687Y-6.95
X10.5694Y-4.6987
X10.9187Y-5.45
X10.9187Y-6.1987
X10.9187Y-6.95
X10.9194Y-4.6987
X11.3187Y-5.45
X11.3187Y-6.1987
X11.3187Y-6.95
X11.3194Y-4.6987
X11.6687Y-5.45
X11.6687Y-6.1987
X11.6687Y-6.95
X11.6694Y-4.6987
X12.0687Y-5.45
X12.0687Y-6.1987
X12.0687Y-6.95
X12.0694Y-4.6987
X12.4187Y-5.45
X12.4187Y-6.1987
X12.4187Y-6.95
X12.4194Y-4.6987
X12.8187Y-5.45
X12.8187Y-6.1987
X12.8187Y-6.95
X12.8194Y-4.6987
T8
X4.3687Y-5.45
X4.3687Y-6.1987
X4.3687Y-6.95
X4.3694Y-4.6987
X5.1187Y-5.45
X5.1187Y-6.1987
X5.1187Y-6.95
X5.1194Y-4.6987
X5.8687Y-5.45
X5.8687Y-6.1987
X5.8687Y-6.95
X5.8694Y-4.6987
X6.6187Y-5.45
X6.6187Y-6.2
X6.6187Y-6.95
X6.6194Y-4.6987
X7.3687Y-5.45
X7.3687Y-6.2
X7.3687Y-6.95
X7.3694Y-4.6987
X8.1188Y-5.45
X8.1188Y-6.1987
X8.1194Y-4.6987
X8.4938Y-6.95
X8.8688Y-5.4487
X8.8688Y-6.2
X8.8694Y-4.6987
X9.6188Y-5.45
X9.6188Y-6.2
X9.6188Y-6.95
X9.6194Y-4.6987
X10.3688Y-5.45
X10.3688Y-6.1987
X10.3688Y-6.95
X10.3694Y-4.6987
X11.1188Y-5.45
X11.1188Y-6.1987
X11.1188Y-6.95
X11.1194Y-4.6987
X11.8688Y-5.45
X11.8688Y-6.1987
X11.8688Y-6.95
X11.8694Y-4.6987
X12.6188Y-5.45
X12.6188Y-6.1987
X12.6188Y-6.95
X12.6194Y-4.6987
T0
M30
