M48
; DRILL file {KiCad (6.0.1)} date Sat Jan 22 01:39:28 2022
; FORMAT={-:-/ absolute / inch / decimal}
; #@! TF.CreationDate,2022-01-22T01:39:28-05:00
; #@! TF.GenerationSoftware,Kicad,Pcbnew,(6.0.1)
; #@! TF.FileFunction,NonPlated,1,2,NPTH
FMAT,2
INCH
; #@! TA.AperFunction,NonPlated,NPTH,ComponentDrill
T1C0.0669
; #@! TA.AperFunction,NonPlated,NPTH,ComponentDrill
T2C0.1201
; #@! TA.AperFunction,NonPlated,NPTH,ComponentDrill
T3C0.1575
%
G90
G05
T1
X4.1688Y-5.45
X4.1688Y-6.1987
X4.1688Y-6.95
X4.1694Y-4.6987
X4.5687Y-5.45
X4.5687Y-6.1987
X4.5687Y-6.95
X4.5694Y-4.6987
X4.9188Y-5.45
X4.9188Y-6.1987
X4.9188Y-6.95
X4.9194Y-4.6987
X5.3187Y-5.45
X5.3187Y-6.1987
X5.3187Y-6.95
X5.3194Y-4.6987
X5.6688Y-5.45
X5.6688Y-6.1987
X5.6688Y-6.95
X5.6694Y-4.6987
X6.0687Y-5.45
X6.0687Y-6.1987
X6.0687Y-6.95
X6.0694Y-4.6987
X6.4188Y-5.45
X6.4188Y-6.2
X6.4188Y-6.95
X6.4194Y-4.6987
X6.8187Y-5.45
X6.8187Y-6.2
X6.8187Y-6.95
X6.8194Y-4.6987
X7.1688Y-5.45
X7.1688Y-6.2
X7.1688Y-6.95
X7.1694Y-4.6987
X7.5687Y-5.45
X7.5687Y-6.2
X7.5687Y-6.95
X7.5694Y-4.6987
X7.9188Y-5.45
X7.9188Y-6.1987
X7.9194Y-4.6987
X8.2937Y-6.95
X8.3187Y-5.45
X8.3187Y-6.1987
X8.3194Y-4.6987
X8.6687Y-5.4487
X8.6687Y-6.2
X8.6694Y-4.6987
X8.6937Y-6.95
X9.0687Y-5.4487
X9.0687Y-6.2
X9.0694Y-4.6987
X9.4187Y-5.45
X9.4187Y-6.2
X9.4187Y-6.95
X9.4194Y-4.6987
X9.8187Y-5.45
X9.8187Y-6.2
X9.8187Y-6.95
X9.8194Y-4.6987
X10.1687Y-5.45
X10.1687Y-6.1987
X10.1687Y-6.95
X10.1694Y-4.6987
X10.5687Y-5.45
X10.5687Y-6.1987
X10.5687Y-6.95
X10.5694Y-4.6987
X10.9187Y-5.45
X10.9187Y-6.1987
X10.9187Y-6.95
X10.9194Y-4.6987
X11.3187Y-5.45
X11.3187Y-6.1987
X11.3187Y-6.95
X11.3194Y-4.6987
X11.6687Y-5.45
X11.6687Y-6.1987
X11.6687Y-6.95
X11.6694Y-4.6987
X12.0687Y-5.45
X12.0687Y-6.1987
X12.0687Y-6.95
X12.0694Y-4.6987
X12.4187Y-5.45
X12.4187Y-6.1987
X12.4187Y-6.95
X12.4194Y-4.6987
X12.8187Y-5.45
X12.8187Y-6.1987
X12.8187Y-6.95
X12.8194Y-4.6987
T2
X8.0252Y-6.6744
X8.9623Y-6.6744
T3
X4.3687Y-5.45
X4.3687Y-6.1987
X4.3687Y-6.95
X4.3694Y-4.6987
X5.1187Y-5.45
X5.1187Y-6.1987
X5.1187Y-6.95
X5.1194Y-4.6987
X5.8687Y-5.45
X5.8687Y-6.1987
X5.8687Y-6.95
X5.8694Y-4.6987
X6.6187Y-5.45
X6.6187Y-6.2
X6.6187Y-6.95
X6.6194Y-4.6987
X7.3687Y-5.45
X7.3687Y-6.2
X7.3687Y-6.95
X7.3694Y-4.6987
X8.0252Y-7.2744
X8.1188Y-5.45
X8.1188Y-6.1987
X8.1194Y-4.6987
X8.4938Y-6.95
X8.8688Y-5.4487
X8.8688Y-6.2
X8.8694Y-4.6987
X8.9623Y-7.2744
X9.6188Y-5.45
X9.6188Y-6.2
X9.6188Y-6.95
X9.6194Y-4.6987
X10.3688Y-5.45
X10.3688Y-6.1987
X10.3688Y-6.95
X10.3694Y-4.6987
X11.1188Y-5.45
X11.1188Y-6.1987
X11.1188Y-6.95
X11.1194Y-4.6987
X11.8688Y-5.45
X11.8688Y-6.1987
X11.8688Y-6.95
X11.8694Y-4.6987
X12.6188Y-5.45
X12.6188Y-6.1987
X12.6188Y-6.95
X12.6194Y-4.6987
T0
M30
