%TF.GenerationSoftware,KiCad,Pcbnew,(5.1.10)-1*%
%TF.CreationDate,2021-10-30T01:15:37-04:00*%
%TF.ProjectId,keyboard,6b657962-6f61-4726-942e-6b696361645f,rev?*%
%TF.SameCoordinates,Original*%
%TF.FileFunction,Soldermask,Bot*%
%TF.FilePolarity,Negative*%
%FSLAX46Y46*%
G04 Gerber Fmt 4.6, Leading zero omitted, Abs format (unit mm)*
G04 Created by KiCad (PCBNEW (5.1.10)-1) date 2021-10-30 01:15:37*
%MOMM*%
%LPD*%
G01*
G04 APERTURE LIST*
%ADD10C,7.000000*%
%ADD11C,1.200000*%
%ADD12C,1.800000*%
%ADD13C,3.200000*%
%ADD14C,2.200000*%
G04 APERTURE END LIST*
D10*
%TO.C,H4*%
X107950000Y-140493750D03*
%TD*%
%TO.C,H4*%
X121443750Y-49212500D03*
%TD*%
%TO.C,H4*%
X11112500Y-49212500D03*
%TD*%
%TO.C,H3*%
X-21431250Y-140493750D03*
%TD*%
%TO.C,H2*%
X234156250Y-49212500D03*
%TD*%
%TO.C,H1*%
X234156250Y-140493750D03*
%TD*%
D11*
%TO.C,M42*%
X117017500Y-128025000D03*
D12*
X127737500Y-123825000D03*
X116737500Y-123825000D03*
D13*
X122237500Y-123825000D03*
D14*
X127237500Y-120025000D03*
X122237500Y-117925000D03*
%TD*%
D11*
%TO.C,M41*%
X88442500Y-128025000D03*
D12*
X99162500Y-123825000D03*
X88162500Y-123825000D03*
D13*
X93662500Y-123825000D03*
D14*
X98662500Y-120025000D03*
X93662500Y-117925000D03*
%TD*%
D11*
%TO.C,M29*%
X88442500Y-108975000D03*
D12*
X99162500Y-104775000D03*
X88162500Y-104775000D03*
D13*
X93662500Y-104775000D03*
D14*
X98662500Y-100975000D03*
X93662500Y-98875000D03*
%TD*%
D11*
%TO.C,M28*%
X69392500Y-108975000D03*
D12*
X80112500Y-104775000D03*
X69112500Y-104775000D03*
D13*
X74612500Y-104775000D03*
D14*
X79612500Y-100975000D03*
X74612500Y-98875000D03*
%TD*%
D11*
%TO.C,M15*%
X50342500Y-89925000D03*
D12*
X61062500Y-85725000D03*
X50062500Y-85725000D03*
D13*
X55562500Y-85725000D03*
D14*
X60562500Y-81925000D03*
X55562500Y-79825000D03*
%TD*%
D11*
%TO.C,M14*%
X31292500Y-89925000D03*
D12*
X42012500Y-85725000D03*
X31012500Y-85725000D03*
D13*
X36512500Y-85725000D03*
D14*
X41512500Y-81925000D03*
X36512500Y-79825000D03*
%TD*%
%TO.C,M1*%
X17478400Y-60743250D03*
X22478400Y-62843250D03*
D13*
X17478400Y-66643250D03*
D12*
X11978400Y-66643250D03*
X22978400Y-66643250D03*
D11*
X12258400Y-70843250D03*
%TD*%
D14*
%TO.C,M44*%
X169862500Y-117925000D03*
X174862500Y-120025000D03*
D13*
X169862500Y-123825000D03*
D12*
X164362500Y-123825000D03*
X175362500Y-123825000D03*
D11*
X164642500Y-128025000D03*
%TD*%
D14*
%TO.C,M47*%
X227012500Y-117925000D03*
X232012500Y-120025000D03*
D13*
X227012500Y-123825000D03*
D12*
X221512500Y-123825000D03*
X232512500Y-123825000D03*
D11*
X221792500Y-128025000D03*
%TD*%
D14*
%TO.C,M46*%
X207962500Y-117925000D03*
X212962500Y-120025000D03*
D13*
X207962500Y-123825000D03*
D12*
X202462500Y-123825000D03*
X213462500Y-123825000D03*
D11*
X202742500Y-128025000D03*
%TD*%
D14*
%TO.C,M45*%
X188912500Y-117925000D03*
X193912500Y-120025000D03*
D13*
X188912500Y-123825000D03*
D12*
X183412500Y-123825000D03*
X194412500Y-123825000D03*
D11*
X183692500Y-128025000D03*
%TD*%
D14*
%TO.C,M43*%
X150812500Y-117925000D03*
X155812500Y-120025000D03*
D13*
X150812500Y-123825000D03*
D12*
X145312500Y-123825000D03*
X156312500Y-123825000D03*
D11*
X145592500Y-128025000D03*
%TD*%
D14*
%TO.C,M40*%
X74612500Y-117925000D03*
X79612500Y-120025000D03*
D13*
X74612500Y-123825000D03*
D12*
X69112500Y-123825000D03*
X80112500Y-123825000D03*
D11*
X69392500Y-128025000D03*
%TD*%
D14*
%TO.C,M39*%
X55562500Y-117925000D03*
X60562500Y-120025000D03*
D13*
X55562500Y-123825000D03*
D12*
X50062500Y-123825000D03*
X61062500Y-123825000D03*
D11*
X50342500Y-128025000D03*
%TD*%
D14*
%TO.C,M38*%
X36512500Y-117925000D03*
X41512500Y-120025000D03*
D13*
X36512500Y-123825000D03*
D12*
X31012500Y-123825000D03*
X42012500Y-123825000D03*
D11*
X31292500Y-128025000D03*
%TD*%
D14*
%TO.C,M37*%
X17462500Y-117925000D03*
X22462500Y-120025000D03*
D13*
X17462500Y-123825000D03*
D12*
X11962500Y-123825000D03*
X22962500Y-123825000D03*
D11*
X12242500Y-128025000D03*
%TD*%
D14*
%TO.C,M36*%
X227012500Y-98843250D03*
X232012500Y-100943250D03*
D13*
X227012500Y-104743250D03*
D12*
X221512500Y-104743250D03*
X232512500Y-104743250D03*
D11*
X221792500Y-108943250D03*
%TD*%
D14*
%TO.C,M35*%
X207962500Y-98843250D03*
X212962500Y-100943250D03*
D13*
X207962500Y-104743250D03*
D12*
X202462500Y-104743250D03*
X213462500Y-104743250D03*
D11*
X202742500Y-108943250D03*
%TD*%
D14*
%TO.C,M34*%
X188912500Y-98843250D03*
X193912500Y-100943250D03*
D13*
X188912500Y-104743250D03*
D12*
X183412500Y-104743250D03*
X194412500Y-104743250D03*
D11*
X183692500Y-108943250D03*
%TD*%
D14*
%TO.C,M33*%
X169862500Y-98843250D03*
X174862500Y-100943250D03*
D13*
X169862500Y-104743250D03*
D12*
X164362500Y-104743250D03*
X175362500Y-104743250D03*
D11*
X164642500Y-108943250D03*
%TD*%
D14*
%TO.C,M32*%
X150812500Y-98875000D03*
X155812500Y-100975000D03*
D13*
X150812500Y-104775000D03*
D12*
X145312500Y-104775000D03*
X156312500Y-104775000D03*
D11*
X145592500Y-108975000D03*
%TD*%
D14*
%TO.C,M31*%
X131762500Y-98875000D03*
X136762500Y-100975000D03*
D13*
X131762500Y-104775000D03*
D12*
X126262500Y-104775000D03*
X137262500Y-104775000D03*
D11*
X126542500Y-108975000D03*
%TD*%
D14*
%TO.C,M30*%
X112712500Y-98843250D03*
X117712500Y-100943250D03*
D13*
X112712500Y-104743250D03*
D12*
X107212500Y-104743250D03*
X118212500Y-104743250D03*
D11*
X107492500Y-108943250D03*
%TD*%
D14*
%TO.C,M27*%
X55562500Y-98843250D03*
X60562500Y-100943250D03*
D13*
X55562500Y-104743250D03*
D12*
X50062500Y-104743250D03*
X61062500Y-104743250D03*
D11*
X50342500Y-108943250D03*
%TD*%
D14*
%TO.C,M26*%
X36512500Y-98843250D03*
X41512500Y-100943250D03*
D13*
X36512500Y-104743250D03*
D12*
X31012500Y-104743250D03*
X42012500Y-104743250D03*
D11*
X31292500Y-108943250D03*
%TD*%
D14*
%TO.C,M25*%
X17462500Y-98843250D03*
X22462500Y-100943250D03*
D13*
X17462500Y-104743250D03*
D12*
X11962500Y-104743250D03*
X22962500Y-104743250D03*
D11*
X12242500Y-108943250D03*
%TD*%
D14*
%TO.C,M24*%
X227012500Y-79825000D03*
X232012500Y-81925000D03*
D13*
X227012500Y-85725000D03*
D12*
X221512500Y-85725000D03*
X232512500Y-85725000D03*
D11*
X221792500Y-89925000D03*
%TD*%
D14*
%TO.C,M23*%
X207962500Y-79825000D03*
X212962500Y-81925000D03*
D13*
X207962500Y-85725000D03*
D12*
X202462500Y-85725000D03*
X213462500Y-85725000D03*
D11*
X202742500Y-89925000D03*
%TD*%
D14*
%TO.C,M22*%
X188912500Y-79825000D03*
X193912500Y-81925000D03*
D13*
X188912500Y-85725000D03*
D12*
X183412500Y-85725000D03*
X194412500Y-85725000D03*
D11*
X183692500Y-89925000D03*
%TD*%
D14*
%TO.C,M21*%
X169862500Y-79825000D03*
X174862500Y-81925000D03*
D13*
X169862500Y-85725000D03*
D12*
X164362500Y-85725000D03*
X175362500Y-85725000D03*
D11*
X164642500Y-89925000D03*
%TD*%
D14*
%TO.C,M20*%
X150812500Y-79825000D03*
X155812500Y-81925000D03*
D13*
X150812500Y-85725000D03*
D12*
X145312500Y-85725000D03*
X156312500Y-85725000D03*
D11*
X145592500Y-89925000D03*
%TD*%
D14*
%TO.C,M19*%
X131762500Y-79793250D03*
X136762500Y-81893250D03*
D13*
X131762500Y-85693250D03*
D12*
X126262500Y-85693250D03*
X137262500Y-85693250D03*
D11*
X126542500Y-89893250D03*
%TD*%
D14*
%TO.C,M18*%
X112712500Y-79825000D03*
X117712500Y-81925000D03*
D13*
X112712500Y-85725000D03*
D12*
X107212500Y-85725000D03*
X118212500Y-85725000D03*
D11*
X107492500Y-89925000D03*
%TD*%
D14*
%TO.C,M17*%
X93662500Y-79825000D03*
X98662500Y-81925000D03*
D13*
X93662500Y-85725000D03*
D12*
X88162500Y-85725000D03*
X99162500Y-85725000D03*
D11*
X88442500Y-89925000D03*
%TD*%
D14*
%TO.C,M16*%
X74612500Y-79825000D03*
X79612500Y-81925000D03*
D13*
X74612500Y-85725000D03*
D12*
X69112500Y-85725000D03*
X80112500Y-85725000D03*
D11*
X69392500Y-89925000D03*
%TD*%
D14*
%TO.C,M13*%
X17462500Y-79825000D03*
X22462500Y-81925000D03*
D13*
X17462500Y-85725000D03*
D12*
X11962500Y-85725000D03*
X22962500Y-85725000D03*
D11*
X12242500Y-89925000D03*
%TD*%
D14*
%TO.C,M12*%
X227028400Y-60743250D03*
X232028400Y-62843250D03*
D13*
X227028400Y-66643250D03*
D12*
X221528400Y-66643250D03*
X232528400Y-66643250D03*
D11*
X221808400Y-70843250D03*
%TD*%
D14*
%TO.C,M11*%
X207978400Y-60743250D03*
X212978400Y-62843250D03*
D13*
X207978400Y-66643250D03*
D12*
X202478400Y-66643250D03*
X213478400Y-66643250D03*
D11*
X202758400Y-70843250D03*
%TD*%
D14*
%TO.C,M10*%
X188928400Y-60743250D03*
X193928400Y-62843250D03*
D13*
X188928400Y-66643250D03*
D12*
X183428400Y-66643250D03*
X194428400Y-66643250D03*
D11*
X183708400Y-70843250D03*
%TD*%
D14*
%TO.C,M9*%
X169878400Y-60743250D03*
X174878400Y-62843250D03*
D13*
X169878400Y-66643250D03*
D12*
X164378400Y-66643250D03*
X175378400Y-66643250D03*
D11*
X164658400Y-70843250D03*
%TD*%
D14*
%TO.C,M8*%
X150828400Y-60743250D03*
X155828400Y-62843250D03*
D13*
X150828400Y-66643250D03*
D12*
X145328400Y-66643250D03*
X156328400Y-66643250D03*
D11*
X145608400Y-70843250D03*
%TD*%
D14*
%TO.C,M7*%
X131778400Y-60743250D03*
X136778400Y-62843250D03*
D13*
X131778400Y-66643250D03*
D12*
X126278400Y-66643250D03*
X137278400Y-66643250D03*
D11*
X126558400Y-70843250D03*
%TD*%
D14*
%TO.C,M6*%
X112728400Y-60743250D03*
X117728400Y-62843250D03*
D13*
X112728400Y-66643250D03*
D12*
X107228400Y-66643250D03*
X118228400Y-66643250D03*
D11*
X107508400Y-70843250D03*
%TD*%
D14*
%TO.C,M5*%
X93678400Y-60743250D03*
X98678400Y-62843250D03*
D13*
X93678400Y-66643250D03*
D12*
X88178400Y-66643250D03*
X99178400Y-66643250D03*
D11*
X88458400Y-70843250D03*
%TD*%
D14*
%TO.C,M4*%
X74628400Y-60743250D03*
X79628400Y-62843250D03*
D13*
X74628400Y-66643250D03*
D12*
X69128400Y-66643250D03*
X80128400Y-66643250D03*
D11*
X69408400Y-70843250D03*
%TD*%
D14*
%TO.C,M3*%
X55578400Y-60743250D03*
X60578400Y-62843250D03*
D13*
X55578400Y-66643250D03*
D12*
X50078400Y-66643250D03*
X61078400Y-66643250D03*
D11*
X50358400Y-70843250D03*
%TD*%
D14*
%TO.C,M2*%
X36528400Y-60743250D03*
X41528400Y-62843250D03*
D13*
X36528400Y-66643250D03*
D12*
X31028400Y-66643250D03*
X42028400Y-66643250D03*
D11*
X31308400Y-70843250D03*
%TD*%
M02*
