%TF.GenerationSoftware,KiCad,Pcbnew,(5.1.10-32-g011b4027db)-1*%
%TF.CreationDate,2021-11-07T01:09:16-04:00*%
%TF.ProjectId,keyboard,6b657962-6f61-4726-942e-6b696361645f,rev?*%
%TF.SameCoordinates,Original*%
%TF.FileFunction,Soldermask,Top*%
%TF.FilePolarity,Negative*%
%FSLAX46Y46*%
G04 Gerber Fmt 4.6, Leading zero omitted, Abs format (unit mm)*
G04 Created by KiCad (PCBNEW (5.1.10-32-g011b4027db)-1) date 2021-11-07 01:09:16*
%MOMM*%
%LPD*%
G01*
G04 APERTURE LIST*
%ADD10O,1.600000X1.600000*%
%ADD11R,1.600000X1.600000*%
%ADD12C,1.700000*%
%ADD13C,4.000000*%
%ADD14C,2.200000*%
%ADD15C,1.143000*%
%ADD16O,1.016000X2.032000*%
%ADD17O,2.748280X1.998980*%
%ADD18C,6.400000*%
G04 APERTURE END LIST*
D10*
%TO.C,U3*%
X137255250Y-103345011D03*
X104235250Y-95725011D03*
X134715250Y-103345011D03*
X106775250Y-95725011D03*
X132175250Y-103345011D03*
X109315250Y-95725011D03*
X129635250Y-103345011D03*
X111855250Y-95725011D03*
X127095250Y-103345011D03*
X114395250Y-95725011D03*
X124555250Y-103345011D03*
X116935250Y-95725011D03*
X122015250Y-103345011D03*
X119475250Y-95725011D03*
X119475250Y-103345011D03*
X122015250Y-95725011D03*
X116935250Y-103345011D03*
X124555250Y-95725011D03*
X114395250Y-103345011D03*
X127095250Y-95725011D03*
X111855250Y-103345011D03*
X129635250Y-95725011D03*
X109315250Y-103345011D03*
X132175250Y-95725011D03*
X106775250Y-103345011D03*
X134715250Y-95725011D03*
X104235250Y-103345011D03*
D11*
X137255250Y-95725011D03*
%TD*%
D12*
%TO.C,M43*%
X249396250Y-176530000D03*
X239236250Y-176530000D03*
D13*
X244316250Y-176530000D03*
D14*
X240506250Y-173990000D03*
X246856250Y-171450000D03*
%TD*%
D12*
%TO.C,M42*%
X220821250Y-176530000D03*
X210661250Y-176530000D03*
D13*
X215741250Y-176530000D03*
D14*
X211931250Y-173990000D03*
X218281250Y-171450000D03*
%TD*%
D12*
%TO.C,M47*%
X325596250Y-176530000D03*
X315436250Y-176530000D03*
D13*
X320516250Y-176530000D03*
D14*
X316706250Y-173990000D03*
X323056250Y-171450000D03*
%TD*%
D12*
%TO.C,M46*%
X306546250Y-176530000D03*
X296386250Y-176530000D03*
D13*
X301466250Y-176530000D03*
D14*
X297656250Y-173990000D03*
X304006250Y-171450000D03*
%TD*%
D12*
%TO.C,M45*%
X287496250Y-176530000D03*
X277336250Y-176530000D03*
D13*
X282416250Y-176530000D03*
D14*
X278606250Y-173990000D03*
X284956250Y-171450000D03*
%TD*%
D12*
%TO.C,M44*%
X268446250Y-176530000D03*
X258286250Y-176530000D03*
D13*
X263366250Y-176530000D03*
D14*
X259556250Y-173990000D03*
X265906250Y-171450000D03*
%TD*%
D12*
%TO.C,M41*%
X192246250Y-176530000D03*
X182086250Y-176530000D03*
D13*
X187166250Y-176530000D03*
D14*
X183356250Y-173990000D03*
X189706250Y-171450000D03*
%TD*%
D12*
%TO.C,M40*%
X173196250Y-176530000D03*
X163036250Y-176530000D03*
D13*
X168116250Y-176530000D03*
D14*
X164306250Y-173990000D03*
X170656250Y-171450000D03*
%TD*%
D12*
%TO.C,M39*%
X154146250Y-176530000D03*
X143986250Y-176530000D03*
D13*
X149066250Y-176530000D03*
D14*
X145256250Y-173990000D03*
X151606250Y-171450000D03*
%TD*%
D12*
%TO.C,M38*%
X135096250Y-176530000D03*
X124936250Y-176530000D03*
D13*
X130016250Y-176530000D03*
D14*
X126206250Y-173990000D03*
X132556250Y-171450000D03*
%TD*%
D12*
%TO.C,M37*%
X116046250Y-176530000D03*
X105886250Y-176530000D03*
D13*
X110966250Y-176530000D03*
D14*
X107156250Y-173990000D03*
X113506250Y-171450000D03*
%TD*%
D12*
%TO.C,M36*%
X325596250Y-157448250D03*
X315436250Y-157448250D03*
D13*
X320516250Y-157448250D03*
D14*
X316706250Y-154908250D03*
X323056250Y-152368250D03*
%TD*%
D12*
%TO.C,M35*%
X306546250Y-157448250D03*
X296386250Y-157448250D03*
D13*
X301466250Y-157448250D03*
D14*
X297656250Y-154908250D03*
X304006250Y-152368250D03*
%TD*%
D12*
%TO.C,M34*%
X287496250Y-157448250D03*
X277336250Y-157448250D03*
D13*
X282416250Y-157448250D03*
D14*
X278606250Y-154908250D03*
X284956250Y-152368250D03*
%TD*%
D12*
%TO.C,M33*%
X268446250Y-157448250D03*
X258286250Y-157448250D03*
D13*
X263366250Y-157448250D03*
D14*
X259556250Y-154908250D03*
X265906250Y-152368250D03*
%TD*%
D12*
%TO.C,M32*%
X249396250Y-157480000D03*
X239236250Y-157480000D03*
D13*
X244316250Y-157480000D03*
D14*
X240506250Y-154940000D03*
X246856250Y-152400000D03*
%TD*%
D12*
%TO.C,M31*%
X230346250Y-157480000D03*
X220186250Y-157480000D03*
D13*
X225266250Y-157480000D03*
D14*
X221456250Y-154940000D03*
X227806250Y-152400000D03*
%TD*%
D12*
%TO.C,M30*%
X211296250Y-157448250D03*
X201136250Y-157448250D03*
D13*
X206216250Y-157448250D03*
D14*
X202406250Y-154908250D03*
X208756250Y-152368250D03*
%TD*%
D12*
%TO.C,M29*%
X192246250Y-157480000D03*
X182086250Y-157480000D03*
D13*
X187166250Y-157480000D03*
D14*
X183356250Y-154940000D03*
X189706250Y-152400000D03*
%TD*%
D12*
%TO.C,M28*%
X173196250Y-157480000D03*
X163036250Y-157480000D03*
D13*
X168116250Y-157480000D03*
D14*
X164306250Y-154940000D03*
X170656250Y-152400000D03*
%TD*%
D12*
%TO.C,M27*%
X154146250Y-157448250D03*
X143986250Y-157448250D03*
D13*
X149066250Y-157448250D03*
D14*
X145256250Y-154908250D03*
X151606250Y-152368250D03*
%TD*%
D12*
%TO.C,M26*%
X135096250Y-157448250D03*
X124936250Y-157448250D03*
D13*
X130016250Y-157448250D03*
D14*
X126206250Y-154908250D03*
X132556250Y-152368250D03*
%TD*%
D12*
%TO.C,M25*%
X116046250Y-157448250D03*
X105886250Y-157448250D03*
D13*
X110966250Y-157448250D03*
D14*
X107156250Y-154908250D03*
X113506250Y-152368250D03*
%TD*%
D12*
%TO.C,M24*%
X325596250Y-138430000D03*
X315436250Y-138430000D03*
D13*
X320516250Y-138430000D03*
D14*
X316706250Y-135890000D03*
X323056250Y-133350000D03*
%TD*%
D12*
%TO.C,M23*%
X306546250Y-138430000D03*
X296386250Y-138430000D03*
D13*
X301466250Y-138430000D03*
D14*
X297656250Y-135890000D03*
X304006250Y-133350000D03*
%TD*%
D12*
%TO.C,M22*%
X287496250Y-138430000D03*
X277336250Y-138430000D03*
D13*
X282416250Y-138430000D03*
D14*
X278606250Y-135890000D03*
X284956250Y-133350000D03*
%TD*%
D12*
%TO.C,M21*%
X268446250Y-138430000D03*
X258286250Y-138430000D03*
D13*
X263366250Y-138430000D03*
D14*
X259556250Y-135890000D03*
X265906250Y-133350000D03*
%TD*%
D12*
%TO.C,M20*%
X249396250Y-138430000D03*
X239236250Y-138430000D03*
D13*
X244316250Y-138430000D03*
D14*
X240506250Y-135890000D03*
X246856250Y-133350000D03*
%TD*%
D12*
%TO.C,M19*%
X230346250Y-138398250D03*
X220186250Y-138398250D03*
D13*
X225266250Y-138398250D03*
D14*
X221456250Y-135858250D03*
X227806250Y-133318250D03*
%TD*%
D12*
%TO.C,M18*%
X211296250Y-138430000D03*
X201136250Y-138430000D03*
D13*
X206216250Y-138430000D03*
D14*
X202406250Y-135890000D03*
X208756250Y-133350000D03*
%TD*%
D12*
%TO.C,M17*%
X192246250Y-138430000D03*
X182086250Y-138430000D03*
D13*
X187166250Y-138430000D03*
D14*
X183356250Y-135890000D03*
X189706250Y-133350000D03*
%TD*%
D12*
%TO.C,M16*%
X173196250Y-138430000D03*
X163036250Y-138430000D03*
D13*
X168116250Y-138430000D03*
D14*
X164306250Y-135890000D03*
X170656250Y-133350000D03*
%TD*%
D12*
%TO.C,M15*%
X154146250Y-138430000D03*
X143986250Y-138430000D03*
D13*
X149066250Y-138430000D03*
D14*
X145256250Y-135890000D03*
X151606250Y-133350000D03*
%TD*%
D12*
%TO.C,M14*%
X135096250Y-138430000D03*
X124936250Y-138430000D03*
D13*
X130016250Y-138430000D03*
D14*
X126206250Y-135890000D03*
X132556250Y-133350000D03*
%TD*%
D12*
%TO.C,M13*%
X116046250Y-138430000D03*
X105886250Y-138430000D03*
D13*
X110966250Y-138430000D03*
D14*
X107156250Y-135890000D03*
X113506250Y-133350000D03*
%TD*%
D12*
%TO.C,M12*%
X325612150Y-119348250D03*
X315452150Y-119348250D03*
D13*
X320532150Y-119348250D03*
D14*
X316722150Y-116808250D03*
X323072150Y-114268250D03*
%TD*%
D12*
%TO.C,M11*%
X306562150Y-119348250D03*
X296402150Y-119348250D03*
D13*
X301482150Y-119348250D03*
D14*
X297672150Y-116808250D03*
X304022150Y-114268250D03*
%TD*%
D12*
%TO.C,M10*%
X287512150Y-119348250D03*
X277352150Y-119348250D03*
D13*
X282432150Y-119348250D03*
D14*
X278622150Y-116808250D03*
X284972150Y-114268250D03*
%TD*%
D12*
%TO.C,M9*%
X268462150Y-119348250D03*
X258302150Y-119348250D03*
D13*
X263382150Y-119348250D03*
D14*
X259572150Y-116808250D03*
X265922150Y-114268250D03*
%TD*%
D12*
%TO.C,M8*%
X249412150Y-119348250D03*
X239252150Y-119348250D03*
D13*
X244332150Y-119348250D03*
D14*
X240522150Y-116808250D03*
X246872150Y-114268250D03*
%TD*%
D12*
%TO.C,M7*%
X230362150Y-119348250D03*
X220202150Y-119348250D03*
D13*
X225282150Y-119348250D03*
D14*
X221472150Y-116808250D03*
X227822150Y-114268250D03*
%TD*%
D12*
%TO.C,M6*%
X211312150Y-119348250D03*
X201152150Y-119348250D03*
D13*
X206232150Y-119348250D03*
D14*
X202422150Y-116808250D03*
X208772150Y-114268250D03*
%TD*%
D12*
%TO.C,M5*%
X192262150Y-119348250D03*
X182102150Y-119348250D03*
D13*
X187182150Y-119348250D03*
D14*
X183372150Y-116808250D03*
X189722150Y-114268250D03*
%TD*%
D12*
%TO.C,M4*%
X173212150Y-119348250D03*
X163052150Y-119348250D03*
D13*
X168132150Y-119348250D03*
D14*
X164322150Y-116808250D03*
X170672150Y-114268250D03*
%TD*%
D12*
%TO.C,M3*%
X154162150Y-119348250D03*
X144002150Y-119348250D03*
D13*
X149082150Y-119348250D03*
D14*
X145272150Y-116808250D03*
X151622150Y-114268250D03*
%TD*%
D12*
%TO.C,M2*%
X135112150Y-119348250D03*
X124952150Y-119348250D03*
D13*
X130032150Y-119348250D03*
D14*
X126222150Y-116808250D03*
X132572150Y-114268250D03*
%TD*%
D12*
%TO.C,M1*%
X116062150Y-119348250D03*
X105902150Y-119348250D03*
D13*
X110982150Y-119348250D03*
D14*
X107172150Y-116808250D03*
X113522150Y-114268250D03*
%TD*%
D10*
%TO.C,U2*%
X200262083Y-103345011D03*
X167242083Y-95725011D03*
X197722083Y-103345011D03*
X169782083Y-95725011D03*
X195182083Y-103345011D03*
X172322083Y-95725011D03*
X192642083Y-103345011D03*
X174862083Y-95725011D03*
X190102083Y-103345011D03*
X177402083Y-95725011D03*
X187562083Y-103345011D03*
X179942083Y-95725011D03*
X185022083Y-103345011D03*
X182482083Y-95725011D03*
X182482083Y-103345011D03*
X185022083Y-95725011D03*
X179942083Y-103345011D03*
X187562083Y-95725011D03*
X177402083Y-103345011D03*
X190102083Y-95725011D03*
X174862083Y-103345011D03*
X192642083Y-95725011D03*
X172322083Y-103345011D03*
X195182083Y-95725011D03*
X169782083Y-103345011D03*
X197722083Y-95725011D03*
X167242083Y-103345011D03*
D11*
X200262083Y-95725011D03*
%TD*%
D10*
%TO.C,U1*%
X263268916Y-103345011D03*
X230248916Y-95725011D03*
X260728916Y-103345011D03*
X232788916Y-95725011D03*
X258188916Y-103345011D03*
X235328916Y-95725011D03*
X255648916Y-103345011D03*
X237868916Y-95725011D03*
X253108916Y-103345011D03*
X240408916Y-95725011D03*
X250568916Y-103345011D03*
X242948916Y-95725011D03*
X248028916Y-103345011D03*
X245488916Y-95725011D03*
X245488916Y-103345011D03*
X248028916Y-95725011D03*
X242948916Y-103345011D03*
X250568916Y-95725011D03*
X240408916Y-103345011D03*
X253108916Y-95725011D03*
X237868916Y-103345011D03*
X255648916Y-95725011D03*
X235328916Y-103345011D03*
X258188916Y-95725011D03*
X232788916Y-103345011D03*
X260728916Y-95725011D03*
X230248916Y-103345011D03*
D11*
X263268916Y-95725011D03*
%TD*%
D15*
%TO.C,C1*%
X303132553Y-93568335D03*
X300592553Y-93568335D03*
X303132553Y-91028335D03*
X300592553Y-91028335D03*
D16*
X303143750Y-108032522D03*
X300593750Y-108032522D03*
D17*
X293726870Y-91714702D03*
X293726870Y-94254702D03*
X293726870Y-96794702D03*
X293726870Y-99334702D03*
X293726870Y-101874702D03*
X293726870Y-104414702D03*
X293726870Y-106954702D03*
X309891430Y-106954702D03*
X309891430Y-104414702D03*
X309891430Y-101874702D03*
X309891430Y-99334702D03*
X309891430Y-96794702D03*
X309891430Y-94254702D03*
X309891430Y-91714702D03*
%TD*%
D18*
%TO.C,H6*%
X120650000Y-180975000D03*
%TD*%
%TO.C,H5*%
X282575000Y-98500000D03*
%TD*%
%TO.C,H3*%
X311150000Y-180975000D03*
%TD*%
%TO.C,H2*%
X149225000Y-98500000D03*
%TD*%
%TO.C,H1*%
X215900000Y-147637500D03*
%TD*%
%TO.C,R2*%
G36*
G01*
X283887500Y-93854702D02*
X284437500Y-93854702D01*
G75*
G02*
X284637500Y-94054702I0J-200000D01*
G01*
X284637500Y-94454702D01*
G75*
G02*
X284437500Y-94654702I-200000J0D01*
G01*
X283887500Y-94654702D01*
G75*
G02*
X283687500Y-94454702I0J200000D01*
G01*
X283687500Y-94054702D01*
G75*
G02*
X283887500Y-93854702I200000J0D01*
G01*
G37*
G36*
G01*
X283887500Y-92204702D02*
X284437500Y-92204702D01*
G75*
G02*
X284637500Y-92404702I0J-200000D01*
G01*
X284637500Y-92804702D01*
G75*
G02*
X284437500Y-93004702I-200000J0D01*
G01*
X283887500Y-93004702D01*
G75*
G02*
X283687500Y-92804702I0J200000D01*
G01*
X283687500Y-92404702D01*
G75*
G02*
X283887500Y-92204702I200000J0D01*
G01*
G37*
%TD*%
%TO.C,R1*%
G36*
G01*
X287612500Y-90062500D02*
X287062500Y-90062500D01*
G75*
G02*
X286862500Y-89862500I0J200000D01*
G01*
X286862500Y-89462500D01*
G75*
G02*
X287062500Y-89262500I200000J0D01*
G01*
X287612500Y-89262500D01*
G75*
G02*
X287812500Y-89462500I0J-200000D01*
G01*
X287812500Y-89862500D01*
G75*
G02*
X287612500Y-90062500I-200000J0D01*
G01*
G37*
G36*
G01*
X287612500Y-91712500D02*
X287062500Y-91712500D01*
G75*
G02*
X286862500Y-91512500I0J200000D01*
G01*
X286862500Y-91112500D01*
G75*
G02*
X287062500Y-90912500I200000J0D01*
G01*
X287612500Y-90912500D01*
G75*
G02*
X287812500Y-91112500I0J-200000D01*
G01*
X287812500Y-91512500D01*
G75*
G02*
X287612500Y-91712500I-200000J0D01*
G01*
G37*
%TD*%
M02*
