%TF.GenerationSoftware,KiCad,Pcbnew,(5.1.10)-1*%
%TF.CreationDate,2021-10-30T02:48:04-04:00*%
%TF.ProjectId,keyboard,6b657962-6f61-4726-942e-6b696361645f,rev?*%
%TF.SameCoordinates,Original*%
%TF.FileFunction,Paste,Top*%
%TF.FilePolarity,Positive*%
%FSLAX46Y46*%
G04 Gerber Fmt 4.6, Leading zero omitted, Abs format (unit mm)*
G04 Created by KiCad (PCBNEW (5.1.10)-1) date 2021-10-30 02:48:04*
%MOMM*%
%LPD*%
G01*
G04 APERTURE LIST*
%ADD10C,1.143000*%
%ADD11O,1.016000X2.032000*%
%ADD12O,2.748280X1.998980*%
G04 APERTURE END LIST*
D10*
%TO.C,C1*%
X88199894Y-103052313D03*
X85659894Y-103052313D03*
X88199894Y-100512313D03*
X85659894Y-100512313D03*
D11*
X88211091Y-117516500D03*
X85661091Y-117516500D03*
D12*
X78794211Y-101198680D03*
X78794211Y-103738680D03*
X78794211Y-106278680D03*
X78794211Y-108818680D03*
X78794211Y-111358680D03*
X78794211Y-113898680D03*
X78794211Y-116438680D03*
X94958771Y-116438680D03*
X94958771Y-113898680D03*
X94958771Y-111358680D03*
X94958771Y-108818680D03*
X94958771Y-106278680D03*
X94958771Y-103738680D03*
X94958771Y-101198680D03*
%TD*%
%TO.C,U3*%
G36*
G01*
X90205500Y-159404500D02*
X90205500Y-158984500D01*
G75*
G02*
X90295500Y-158894500I90000J0D01*
G01*
X92025500Y-158894500D01*
G75*
G02*
X92115500Y-158984500I0J-90000D01*
G01*
X92115500Y-159404500D01*
G75*
G02*
X92025500Y-159494500I-90000J0D01*
G01*
X90295500Y-159494500D01*
G75*
G02*
X90205500Y-159404500I0J90000D01*
G01*
G37*
G36*
G01*
X90205500Y-160674500D02*
X90205500Y-160254500D01*
G75*
G02*
X90295500Y-160164500I90000J0D01*
G01*
X92025500Y-160164500D01*
G75*
G02*
X92115500Y-160254500I0J-90000D01*
G01*
X92115500Y-160674500D01*
G75*
G02*
X92025500Y-160764500I-90000J0D01*
G01*
X90295500Y-160764500D01*
G75*
G02*
X90205500Y-160674500I0J90000D01*
G01*
G37*
G36*
G01*
X90205500Y-161944500D02*
X90205500Y-161524500D01*
G75*
G02*
X90295500Y-161434500I90000J0D01*
G01*
X92025500Y-161434500D01*
G75*
G02*
X92115500Y-161524500I0J-90000D01*
G01*
X92115500Y-161944500D01*
G75*
G02*
X92025500Y-162034500I-90000J0D01*
G01*
X90295500Y-162034500D01*
G75*
G02*
X90205500Y-161944500I0J90000D01*
G01*
G37*
G36*
G01*
X90205500Y-163214500D02*
X90205500Y-162794500D01*
G75*
G02*
X90295500Y-162704500I90000J0D01*
G01*
X92025500Y-162704500D01*
G75*
G02*
X92115500Y-162794500I0J-90000D01*
G01*
X92115500Y-163214500D01*
G75*
G02*
X92025500Y-163304500I-90000J0D01*
G01*
X90295500Y-163304500D01*
G75*
G02*
X90205500Y-163214500I0J90000D01*
G01*
G37*
G36*
G01*
X90205500Y-164484500D02*
X90205500Y-164064500D01*
G75*
G02*
X90295500Y-163974500I90000J0D01*
G01*
X92025500Y-163974500D01*
G75*
G02*
X92115500Y-164064500I0J-90000D01*
G01*
X92115500Y-164484500D01*
G75*
G02*
X92025500Y-164574500I-90000J0D01*
G01*
X90295500Y-164574500D01*
G75*
G02*
X90205500Y-164484500I0J90000D01*
G01*
G37*
G36*
G01*
X90205500Y-165754500D02*
X90205500Y-165334500D01*
G75*
G02*
X90295500Y-165244500I90000J0D01*
G01*
X92025500Y-165244500D01*
G75*
G02*
X92115500Y-165334500I0J-90000D01*
G01*
X92115500Y-165754500D01*
G75*
G02*
X92025500Y-165844500I-90000J0D01*
G01*
X90295500Y-165844500D01*
G75*
G02*
X90205500Y-165754500I0J90000D01*
G01*
G37*
G36*
G01*
X90205500Y-167024500D02*
X90205500Y-166604500D01*
G75*
G02*
X90295500Y-166514500I90000J0D01*
G01*
X92025500Y-166514500D01*
G75*
G02*
X92115500Y-166604500I0J-90000D01*
G01*
X92115500Y-167024500D01*
G75*
G02*
X92025500Y-167114500I-90000J0D01*
G01*
X90295500Y-167114500D01*
G75*
G02*
X90205500Y-167024500I0J90000D01*
G01*
G37*
G36*
G01*
X90205500Y-168294500D02*
X90205500Y-167874500D01*
G75*
G02*
X90295500Y-167784500I90000J0D01*
G01*
X92025500Y-167784500D01*
G75*
G02*
X92115500Y-167874500I0J-90000D01*
G01*
X92115500Y-168294500D01*
G75*
G02*
X92025500Y-168384500I-90000J0D01*
G01*
X90295500Y-168384500D01*
G75*
G02*
X90205500Y-168294500I0J90000D01*
G01*
G37*
G36*
G01*
X90205500Y-169564500D02*
X90205500Y-169144500D01*
G75*
G02*
X90295500Y-169054500I90000J0D01*
G01*
X92025500Y-169054500D01*
G75*
G02*
X92115500Y-169144500I0J-90000D01*
G01*
X92115500Y-169564500D01*
G75*
G02*
X92025500Y-169654500I-90000J0D01*
G01*
X90295500Y-169654500D01*
G75*
G02*
X90205500Y-169564500I0J90000D01*
G01*
G37*
G36*
G01*
X90205500Y-170834500D02*
X90205500Y-170414500D01*
G75*
G02*
X90295500Y-170324500I90000J0D01*
G01*
X92025500Y-170324500D01*
G75*
G02*
X92115500Y-170414500I0J-90000D01*
G01*
X92115500Y-170834500D01*
G75*
G02*
X92025500Y-170924500I-90000J0D01*
G01*
X90295500Y-170924500D01*
G75*
G02*
X90205500Y-170834500I0J90000D01*
G01*
G37*
G36*
G01*
X90205500Y-172104500D02*
X90205500Y-171684500D01*
G75*
G02*
X90295500Y-171594500I90000J0D01*
G01*
X92025500Y-171594500D01*
G75*
G02*
X92115500Y-171684500I0J-90000D01*
G01*
X92115500Y-172104500D01*
G75*
G02*
X92025500Y-172194500I-90000J0D01*
G01*
X90295500Y-172194500D01*
G75*
G02*
X90205500Y-172104500I0J90000D01*
G01*
G37*
G36*
G01*
X90205500Y-173374500D02*
X90205500Y-172954500D01*
G75*
G02*
X90295500Y-172864500I90000J0D01*
G01*
X92025500Y-172864500D01*
G75*
G02*
X92115500Y-172954500I0J-90000D01*
G01*
X92115500Y-173374500D01*
G75*
G02*
X92025500Y-173464500I-90000J0D01*
G01*
X90295500Y-173464500D01*
G75*
G02*
X90205500Y-173374500I0J90000D01*
G01*
G37*
G36*
G01*
X90205500Y-174644500D02*
X90205500Y-174224500D01*
G75*
G02*
X90295500Y-174134500I90000J0D01*
G01*
X92025500Y-174134500D01*
G75*
G02*
X92115500Y-174224500I0J-90000D01*
G01*
X92115500Y-174644500D01*
G75*
G02*
X92025500Y-174734500I-90000J0D01*
G01*
X90295500Y-174734500D01*
G75*
G02*
X90205500Y-174644500I0J90000D01*
G01*
G37*
G36*
G01*
X90205500Y-175914500D02*
X90205500Y-175494500D01*
G75*
G02*
X90295500Y-175404500I90000J0D01*
G01*
X92025500Y-175404500D01*
G75*
G02*
X92115500Y-175494500I0J-90000D01*
G01*
X92115500Y-175914500D01*
G75*
G02*
X92025500Y-176004500I-90000J0D01*
G01*
X90295500Y-176004500D01*
G75*
G02*
X90205500Y-175914500I0J90000D01*
G01*
G37*
G36*
G01*
X80985500Y-175914500D02*
X80985500Y-175494500D01*
G75*
G02*
X81075500Y-175404500I90000J0D01*
G01*
X82805500Y-175404500D01*
G75*
G02*
X82895500Y-175494500I0J-90000D01*
G01*
X82895500Y-175914500D01*
G75*
G02*
X82805500Y-176004500I-90000J0D01*
G01*
X81075500Y-176004500D01*
G75*
G02*
X80985500Y-175914500I0J90000D01*
G01*
G37*
G36*
G01*
X80985500Y-174644500D02*
X80985500Y-174224500D01*
G75*
G02*
X81075500Y-174134500I90000J0D01*
G01*
X82805500Y-174134500D01*
G75*
G02*
X82895500Y-174224500I0J-90000D01*
G01*
X82895500Y-174644500D01*
G75*
G02*
X82805500Y-174734500I-90000J0D01*
G01*
X81075500Y-174734500D01*
G75*
G02*
X80985500Y-174644500I0J90000D01*
G01*
G37*
G36*
G01*
X80985500Y-173374500D02*
X80985500Y-172954500D01*
G75*
G02*
X81075500Y-172864500I90000J0D01*
G01*
X82805500Y-172864500D01*
G75*
G02*
X82895500Y-172954500I0J-90000D01*
G01*
X82895500Y-173374500D01*
G75*
G02*
X82805500Y-173464500I-90000J0D01*
G01*
X81075500Y-173464500D01*
G75*
G02*
X80985500Y-173374500I0J90000D01*
G01*
G37*
G36*
G01*
X80985500Y-172104500D02*
X80985500Y-171684500D01*
G75*
G02*
X81075500Y-171594500I90000J0D01*
G01*
X82805500Y-171594500D01*
G75*
G02*
X82895500Y-171684500I0J-90000D01*
G01*
X82895500Y-172104500D01*
G75*
G02*
X82805500Y-172194500I-90000J0D01*
G01*
X81075500Y-172194500D01*
G75*
G02*
X80985500Y-172104500I0J90000D01*
G01*
G37*
G36*
G01*
X80985500Y-170834500D02*
X80985500Y-170414500D01*
G75*
G02*
X81075500Y-170324500I90000J0D01*
G01*
X82805500Y-170324500D01*
G75*
G02*
X82895500Y-170414500I0J-90000D01*
G01*
X82895500Y-170834500D01*
G75*
G02*
X82805500Y-170924500I-90000J0D01*
G01*
X81075500Y-170924500D01*
G75*
G02*
X80985500Y-170834500I0J90000D01*
G01*
G37*
G36*
G01*
X80985500Y-169564500D02*
X80985500Y-169144500D01*
G75*
G02*
X81075500Y-169054500I90000J0D01*
G01*
X82805500Y-169054500D01*
G75*
G02*
X82895500Y-169144500I0J-90000D01*
G01*
X82895500Y-169564500D01*
G75*
G02*
X82805500Y-169654500I-90000J0D01*
G01*
X81075500Y-169654500D01*
G75*
G02*
X80985500Y-169564500I0J90000D01*
G01*
G37*
G36*
G01*
X80985500Y-168294500D02*
X80985500Y-167874500D01*
G75*
G02*
X81075500Y-167784500I90000J0D01*
G01*
X82805500Y-167784500D01*
G75*
G02*
X82895500Y-167874500I0J-90000D01*
G01*
X82895500Y-168294500D01*
G75*
G02*
X82805500Y-168384500I-90000J0D01*
G01*
X81075500Y-168384500D01*
G75*
G02*
X80985500Y-168294500I0J90000D01*
G01*
G37*
G36*
G01*
X80985500Y-167024500D02*
X80985500Y-166604500D01*
G75*
G02*
X81075500Y-166514500I90000J0D01*
G01*
X82805500Y-166514500D01*
G75*
G02*
X82895500Y-166604500I0J-90000D01*
G01*
X82895500Y-167024500D01*
G75*
G02*
X82805500Y-167114500I-90000J0D01*
G01*
X81075500Y-167114500D01*
G75*
G02*
X80985500Y-167024500I0J90000D01*
G01*
G37*
G36*
G01*
X80985500Y-165754500D02*
X80985500Y-165334500D01*
G75*
G02*
X81075500Y-165244500I90000J0D01*
G01*
X82805500Y-165244500D01*
G75*
G02*
X82895500Y-165334500I0J-90000D01*
G01*
X82895500Y-165754500D01*
G75*
G02*
X82805500Y-165844500I-90000J0D01*
G01*
X81075500Y-165844500D01*
G75*
G02*
X80985500Y-165754500I0J90000D01*
G01*
G37*
G36*
G01*
X80985500Y-164484500D02*
X80985500Y-164064500D01*
G75*
G02*
X81075500Y-163974500I90000J0D01*
G01*
X82805500Y-163974500D01*
G75*
G02*
X82895500Y-164064500I0J-90000D01*
G01*
X82895500Y-164484500D01*
G75*
G02*
X82805500Y-164574500I-90000J0D01*
G01*
X81075500Y-164574500D01*
G75*
G02*
X80985500Y-164484500I0J90000D01*
G01*
G37*
G36*
G01*
X80985500Y-163214500D02*
X80985500Y-162794500D01*
G75*
G02*
X81075500Y-162704500I90000J0D01*
G01*
X82805500Y-162704500D01*
G75*
G02*
X82895500Y-162794500I0J-90000D01*
G01*
X82895500Y-163214500D01*
G75*
G02*
X82805500Y-163304500I-90000J0D01*
G01*
X81075500Y-163304500D01*
G75*
G02*
X80985500Y-163214500I0J90000D01*
G01*
G37*
G36*
G01*
X80985500Y-161944500D02*
X80985500Y-161524500D01*
G75*
G02*
X81075500Y-161434500I90000J0D01*
G01*
X82805500Y-161434500D01*
G75*
G02*
X82895500Y-161524500I0J-90000D01*
G01*
X82895500Y-161944500D01*
G75*
G02*
X82805500Y-162034500I-90000J0D01*
G01*
X81075500Y-162034500D01*
G75*
G02*
X80985500Y-161944500I0J90000D01*
G01*
G37*
G36*
G01*
X80985500Y-160674500D02*
X80985500Y-160254500D01*
G75*
G02*
X81075500Y-160164500I90000J0D01*
G01*
X82805500Y-160164500D01*
G75*
G02*
X82895500Y-160254500I0J-90000D01*
G01*
X82895500Y-160674500D01*
G75*
G02*
X82805500Y-160764500I-90000J0D01*
G01*
X81075500Y-160764500D01*
G75*
G02*
X80985500Y-160674500I0J90000D01*
G01*
G37*
G36*
G01*
X80985500Y-159404500D02*
X80985500Y-158984500D01*
G75*
G02*
X81075500Y-158894500I90000J0D01*
G01*
X82805500Y-158894500D01*
G75*
G02*
X82895500Y-158984500I0J-90000D01*
G01*
X82895500Y-159404500D01*
G75*
G02*
X82805500Y-159494500I-90000J0D01*
G01*
X81075500Y-159494500D01*
G75*
G02*
X80985500Y-159404500I0J90000D01*
G01*
G37*
%TD*%
%TO.C,R2*%
G36*
G01*
X75608500Y-184742500D02*
X75608500Y-184192500D01*
G75*
G02*
X75808500Y-183992500I200000J0D01*
G01*
X76208500Y-183992500D01*
G75*
G02*
X76408500Y-184192500I0J-200000D01*
G01*
X76408500Y-184742500D01*
G75*
G02*
X76208500Y-184942500I-200000J0D01*
G01*
X75808500Y-184942500D01*
G75*
G02*
X75608500Y-184742500I0J200000D01*
G01*
G37*
G36*
G01*
X73958500Y-184742500D02*
X73958500Y-184192500D01*
G75*
G02*
X74158500Y-183992500I200000J0D01*
G01*
X74558500Y-183992500D01*
G75*
G02*
X74758500Y-184192500I0J-200000D01*
G01*
X74758500Y-184742500D01*
G75*
G02*
X74558500Y-184942500I-200000J0D01*
G01*
X74158500Y-184942500D01*
G75*
G02*
X73958500Y-184742500I0J200000D01*
G01*
G37*
%TD*%
%TO.C,R1*%
G36*
G01*
X75520500Y-180890500D02*
X75520500Y-181440500D01*
G75*
G02*
X75320500Y-181640500I-200000J0D01*
G01*
X74920500Y-181640500D01*
G75*
G02*
X74720500Y-181440500I0J200000D01*
G01*
X74720500Y-180890500D01*
G75*
G02*
X74920500Y-180690500I200000J0D01*
G01*
X75320500Y-180690500D01*
G75*
G02*
X75520500Y-180890500I0J-200000D01*
G01*
G37*
G36*
G01*
X77170500Y-180890500D02*
X77170500Y-181440500D01*
G75*
G02*
X76970500Y-181640500I-200000J0D01*
G01*
X76570500Y-181640500D01*
G75*
G02*
X76370500Y-181440500I0J200000D01*
G01*
X76370500Y-180890500D01*
G75*
G02*
X76570500Y-180690500I200000J0D01*
G01*
X76970500Y-180690500D01*
G75*
G02*
X77170500Y-180890500I0J-200000D01*
G01*
G37*
%TD*%
%TO.C,U2*%
G36*
G01*
X90205500Y-140354500D02*
X90205500Y-139934500D01*
G75*
G02*
X90295500Y-139844500I90000J0D01*
G01*
X92025500Y-139844500D01*
G75*
G02*
X92115500Y-139934500I0J-90000D01*
G01*
X92115500Y-140354500D01*
G75*
G02*
X92025500Y-140444500I-90000J0D01*
G01*
X90295500Y-140444500D01*
G75*
G02*
X90205500Y-140354500I0J90000D01*
G01*
G37*
G36*
G01*
X90205500Y-141624500D02*
X90205500Y-141204500D01*
G75*
G02*
X90295500Y-141114500I90000J0D01*
G01*
X92025500Y-141114500D01*
G75*
G02*
X92115500Y-141204500I0J-90000D01*
G01*
X92115500Y-141624500D01*
G75*
G02*
X92025500Y-141714500I-90000J0D01*
G01*
X90295500Y-141714500D01*
G75*
G02*
X90205500Y-141624500I0J90000D01*
G01*
G37*
G36*
G01*
X90205500Y-142894500D02*
X90205500Y-142474500D01*
G75*
G02*
X90295500Y-142384500I90000J0D01*
G01*
X92025500Y-142384500D01*
G75*
G02*
X92115500Y-142474500I0J-90000D01*
G01*
X92115500Y-142894500D01*
G75*
G02*
X92025500Y-142984500I-90000J0D01*
G01*
X90295500Y-142984500D01*
G75*
G02*
X90205500Y-142894500I0J90000D01*
G01*
G37*
G36*
G01*
X90205500Y-144164500D02*
X90205500Y-143744500D01*
G75*
G02*
X90295500Y-143654500I90000J0D01*
G01*
X92025500Y-143654500D01*
G75*
G02*
X92115500Y-143744500I0J-90000D01*
G01*
X92115500Y-144164500D01*
G75*
G02*
X92025500Y-144254500I-90000J0D01*
G01*
X90295500Y-144254500D01*
G75*
G02*
X90205500Y-144164500I0J90000D01*
G01*
G37*
G36*
G01*
X90205500Y-145434500D02*
X90205500Y-145014500D01*
G75*
G02*
X90295500Y-144924500I90000J0D01*
G01*
X92025500Y-144924500D01*
G75*
G02*
X92115500Y-145014500I0J-90000D01*
G01*
X92115500Y-145434500D01*
G75*
G02*
X92025500Y-145524500I-90000J0D01*
G01*
X90295500Y-145524500D01*
G75*
G02*
X90205500Y-145434500I0J90000D01*
G01*
G37*
G36*
G01*
X90205500Y-146704500D02*
X90205500Y-146284500D01*
G75*
G02*
X90295500Y-146194500I90000J0D01*
G01*
X92025500Y-146194500D01*
G75*
G02*
X92115500Y-146284500I0J-90000D01*
G01*
X92115500Y-146704500D01*
G75*
G02*
X92025500Y-146794500I-90000J0D01*
G01*
X90295500Y-146794500D01*
G75*
G02*
X90205500Y-146704500I0J90000D01*
G01*
G37*
G36*
G01*
X90205500Y-147974500D02*
X90205500Y-147554500D01*
G75*
G02*
X90295500Y-147464500I90000J0D01*
G01*
X92025500Y-147464500D01*
G75*
G02*
X92115500Y-147554500I0J-90000D01*
G01*
X92115500Y-147974500D01*
G75*
G02*
X92025500Y-148064500I-90000J0D01*
G01*
X90295500Y-148064500D01*
G75*
G02*
X90205500Y-147974500I0J90000D01*
G01*
G37*
G36*
G01*
X90205500Y-149244500D02*
X90205500Y-148824500D01*
G75*
G02*
X90295500Y-148734500I90000J0D01*
G01*
X92025500Y-148734500D01*
G75*
G02*
X92115500Y-148824500I0J-90000D01*
G01*
X92115500Y-149244500D01*
G75*
G02*
X92025500Y-149334500I-90000J0D01*
G01*
X90295500Y-149334500D01*
G75*
G02*
X90205500Y-149244500I0J90000D01*
G01*
G37*
G36*
G01*
X90205500Y-150514500D02*
X90205500Y-150094500D01*
G75*
G02*
X90295500Y-150004500I90000J0D01*
G01*
X92025500Y-150004500D01*
G75*
G02*
X92115500Y-150094500I0J-90000D01*
G01*
X92115500Y-150514500D01*
G75*
G02*
X92025500Y-150604500I-90000J0D01*
G01*
X90295500Y-150604500D01*
G75*
G02*
X90205500Y-150514500I0J90000D01*
G01*
G37*
G36*
G01*
X90205500Y-151784500D02*
X90205500Y-151364500D01*
G75*
G02*
X90295500Y-151274500I90000J0D01*
G01*
X92025500Y-151274500D01*
G75*
G02*
X92115500Y-151364500I0J-90000D01*
G01*
X92115500Y-151784500D01*
G75*
G02*
X92025500Y-151874500I-90000J0D01*
G01*
X90295500Y-151874500D01*
G75*
G02*
X90205500Y-151784500I0J90000D01*
G01*
G37*
G36*
G01*
X90205500Y-153054500D02*
X90205500Y-152634500D01*
G75*
G02*
X90295500Y-152544500I90000J0D01*
G01*
X92025500Y-152544500D01*
G75*
G02*
X92115500Y-152634500I0J-90000D01*
G01*
X92115500Y-153054500D01*
G75*
G02*
X92025500Y-153144500I-90000J0D01*
G01*
X90295500Y-153144500D01*
G75*
G02*
X90205500Y-153054500I0J90000D01*
G01*
G37*
G36*
G01*
X90205500Y-154324500D02*
X90205500Y-153904500D01*
G75*
G02*
X90295500Y-153814500I90000J0D01*
G01*
X92025500Y-153814500D01*
G75*
G02*
X92115500Y-153904500I0J-90000D01*
G01*
X92115500Y-154324500D01*
G75*
G02*
X92025500Y-154414500I-90000J0D01*
G01*
X90295500Y-154414500D01*
G75*
G02*
X90205500Y-154324500I0J90000D01*
G01*
G37*
G36*
G01*
X90205500Y-155594500D02*
X90205500Y-155174500D01*
G75*
G02*
X90295500Y-155084500I90000J0D01*
G01*
X92025500Y-155084500D01*
G75*
G02*
X92115500Y-155174500I0J-90000D01*
G01*
X92115500Y-155594500D01*
G75*
G02*
X92025500Y-155684500I-90000J0D01*
G01*
X90295500Y-155684500D01*
G75*
G02*
X90205500Y-155594500I0J90000D01*
G01*
G37*
G36*
G01*
X90205500Y-156864500D02*
X90205500Y-156444500D01*
G75*
G02*
X90295500Y-156354500I90000J0D01*
G01*
X92025500Y-156354500D01*
G75*
G02*
X92115500Y-156444500I0J-90000D01*
G01*
X92115500Y-156864500D01*
G75*
G02*
X92025500Y-156954500I-90000J0D01*
G01*
X90295500Y-156954500D01*
G75*
G02*
X90205500Y-156864500I0J90000D01*
G01*
G37*
G36*
G01*
X80985500Y-156864500D02*
X80985500Y-156444500D01*
G75*
G02*
X81075500Y-156354500I90000J0D01*
G01*
X82805500Y-156354500D01*
G75*
G02*
X82895500Y-156444500I0J-90000D01*
G01*
X82895500Y-156864500D01*
G75*
G02*
X82805500Y-156954500I-90000J0D01*
G01*
X81075500Y-156954500D01*
G75*
G02*
X80985500Y-156864500I0J90000D01*
G01*
G37*
G36*
G01*
X80985500Y-155594500D02*
X80985500Y-155174500D01*
G75*
G02*
X81075500Y-155084500I90000J0D01*
G01*
X82805500Y-155084500D01*
G75*
G02*
X82895500Y-155174500I0J-90000D01*
G01*
X82895500Y-155594500D01*
G75*
G02*
X82805500Y-155684500I-90000J0D01*
G01*
X81075500Y-155684500D01*
G75*
G02*
X80985500Y-155594500I0J90000D01*
G01*
G37*
G36*
G01*
X80985500Y-154324500D02*
X80985500Y-153904500D01*
G75*
G02*
X81075500Y-153814500I90000J0D01*
G01*
X82805500Y-153814500D01*
G75*
G02*
X82895500Y-153904500I0J-90000D01*
G01*
X82895500Y-154324500D01*
G75*
G02*
X82805500Y-154414500I-90000J0D01*
G01*
X81075500Y-154414500D01*
G75*
G02*
X80985500Y-154324500I0J90000D01*
G01*
G37*
G36*
G01*
X80985500Y-153054500D02*
X80985500Y-152634500D01*
G75*
G02*
X81075500Y-152544500I90000J0D01*
G01*
X82805500Y-152544500D01*
G75*
G02*
X82895500Y-152634500I0J-90000D01*
G01*
X82895500Y-153054500D01*
G75*
G02*
X82805500Y-153144500I-90000J0D01*
G01*
X81075500Y-153144500D01*
G75*
G02*
X80985500Y-153054500I0J90000D01*
G01*
G37*
G36*
G01*
X80985500Y-151784500D02*
X80985500Y-151364500D01*
G75*
G02*
X81075500Y-151274500I90000J0D01*
G01*
X82805500Y-151274500D01*
G75*
G02*
X82895500Y-151364500I0J-90000D01*
G01*
X82895500Y-151784500D01*
G75*
G02*
X82805500Y-151874500I-90000J0D01*
G01*
X81075500Y-151874500D01*
G75*
G02*
X80985500Y-151784500I0J90000D01*
G01*
G37*
G36*
G01*
X80985500Y-150514500D02*
X80985500Y-150094500D01*
G75*
G02*
X81075500Y-150004500I90000J0D01*
G01*
X82805500Y-150004500D01*
G75*
G02*
X82895500Y-150094500I0J-90000D01*
G01*
X82895500Y-150514500D01*
G75*
G02*
X82805500Y-150604500I-90000J0D01*
G01*
X81075500Y-150604500D01*
G75*
G02*
X80985500Y-150514500I0J90000D01*
G01*
G37*
G36*
G01*
X80985500Y-149244500D02*
X80985500Y-148824500D01*
G75*
G02*
X81075500Y-148734500I90000J0D01*
G01*
X82805500Y-148734500D01*
G75*
G02*
X82895500Y-148824500I0J-90000D01*
G01*
X82895500Y-149244500D01*
G75*
G02*
X82805500Y-149334500I-90000J0D01*
G01*
X81075500Y-149334500D01*
G75*
G02*
X80985500Y-149244500I0J90000D01*
G01*
G37*
G36*
G01*
X80985500Y-147974500D02*
X80985500Y-147554500D01*
G75*
G02*
X81075500Y-147464500I90000J0D01*
G01*
X82805500Y-147464500D01*
G75*
G02*
X82895500Y-147554500I0J-90000D01*
G01*
X82895500Y-147974500D01*
G75*
G02*
X82805500Y-148064500I-90000J0D01*
G01*
X81075500Y-148064500D01*
G75*
G02*
X80985500Y-147974500I0J90000D01*
G01*
G37*
G36*
G01*
X80985500Y-146704500D02*
X80985500Y-146284500D01*
G75*
G02*
X81075500Y-146194500I90000J0D01*
G01*
X82805500Y-146194500D01*
G75*
G02*
X82895500Y-146284500I0J-90000D01*
G01*
X82895500Y-146704500D01*
G75*
G02*
X82805500Y-146794500I-90000J0D01*
G01*
X81075500Y-146794500D01*
G75*
G02*
X80985500Y-146704500I0J90000D01*
G01*
G37*
G36*
G01*
X80985500Y-145434500D02*
X80985500Y-145014500D01*
G75*
G02*
X81075500Y-144924500I90000J0D01*
G01*
X82805500Y-144924500D01*
G75*
G02*
X82895500Y-145014500I0J-90000D01*
G01*
X82895500Y-145434500D01*
G75*
G02*
X82805500Y-145524500I-90000J0D01*
G01*
X81075500Y-145524500D01*
G75*
G02*
X80985500Y-145434500I0J90000D01*
G01*
G37*
G36*
G01*
X80985500Y-144164500D02*
X80985500Y-143744500D01*
G75*
G02*
X81075500Y-143654500I90000J0D01*
G01*
X82805500Y-143654500D01*
G75*
G02*
X82895500Y-143744500I0J-90000D01*
G01*
X82895500Y-144164500D01*
G75*
G02*
X82805500Y-144254500I-90000J0D01*
G01*
X81075500Y-144254500D01*
G75*
G02*
X80985500Y-144164500I0J90000D01*
G01*
G37*
G36*
G01*
X80985500Y-142894500D02*
X80985500Y-142474500D01*
G75*
G02*
X81075500Y-142384500I90000J0D01*
G01*
X82805500Y-142384500D01*
G75*
G02*
X82895500Y-142474500I0J-90000D01*
G01*
X82895500Y-142894500D01*
G75*
G02*
X82805500Y-142984500I-90000J0D01*
G01*
X81075500Y-142984500D01*
G75*
G02*
X80985500Y-142894500I0J90000D01*
G01*
G37*
G36*
G01*
X80985500Y-141624500D02*
X80985500Y-141204500D01*
G75*
G02*
X81075500Y-141114500I90000J0D01*
G01*
X82805500Y-141114500D01*
G75*
G02*
X82895500Y-141204500I0J-90000D01*
G01*
X82895500Y-141624500D01*
G75*
G02*
X82805500Y-141714500I-90000J0D01*
G01*
X81075500Y-141714500D01*
G75*
G02*
X80985500Y-141624500I0J90000D01*
G01*
G37*
G36*
G01*
X80985500Y-140354500D02*
X80985500Y-139934500D01*
G75*
G02*
X81075500Y-139844500I90000J0D01*
G01*
X82805500Y-139844500D01*
G75*
G02*
X82895500Y-139934500I0J-90000D01*
G01*
X82895500Y-140354500D01*
G75*
G02*
X82805500Y-140444500I-90000J0D01*
G01*
X81075500Y-140444500D01*
G75*
G02*
X80985500Y-140354500I0J90000D01*
G01*
G37*
%TD*%
%TO.C,U4*%
G36*
G01*
X90205500Y-178454500D02*
X90205500Y-178034500D01*
G75*
G02*
X90295500Y-177944500I90000J0D01*
G01*
X92025500Y-177944500D01*
G75*
G02*
X92115500Y-178034500I0J-90000D01*
G01*
X92115500Y-178454500D01*
G75*
G02*
X92025500Y-178544500I-90000J0D01*
G01*
X90295500Y-178544500D01*
G75*
G02*
X90205500Y-178454500I0J90000D01*
G01*
G37*
G36*
G01*
X90205500Y-179724500D02*
X90205500Y-179304500D01*
G75*
G02*
X90295500Y-179214500I90000J0D01*
G01*
X92025500Y-179214500D01*
G75*
G02*
X92115500Y-179304500I0J-90000D01*
G01*
X92115500Y-179724500D01*
G75*
G02*
X92025500Y-179814500I-90000J0D01*
G01*
X90295500Y-179814500D01*
G75*
G02*
X90205500Y-179724500I0J90000D01*
G01*
G37*
G36*
G01*
X90205500Y-180994500D02*
X90205500Y-180574500D01*
G75*
G02*
X90295500Y-180484500I90000J0D01*
G01*
X92025500Y-180484500D01*
G75*
G02*
X92115500Y-180574500I0J-90000D01*
G01*
X92115500Y-180994500D01*
G75*
G02*
X92025500Y-181084500I-90000J0D01*
G01*
X90295500Y-181084500D01*
G75*
G02*
X90205500Y-180994500I0J90000D01*
G01*
G37*
G36*
G01*
X90205500Y-182264500D02*
X90205500Y-181844500D01*
G75*
G02*
X90295500Y-181754500I90000J0D01*
G01*
X92025500Y-181754500D01*
G75*
G02*
X92115500Y-181844500I0J-90000D01*
G01*
X92115500Y-182264500D01*
G75*
G02*
X92025500Y-182354500I-90000J0D01*
G01*
X90295500Y-182354500D01*
G75*
G02*
X90205500Y-182264500I0J90000D01*
G01*
G37*
G36*
G01*
X90205500Y-183534500D02*
X90205500Y-183114500D01*
G75*
G02*
X90295500Y-183024500I90000J0D01*
G01*
X92025500Y-183024500D01*
G75*
G02*
X92115500Y-183114500I0J-90000D01*
G01*
X92115500Y-183534500D01*
G75*
G02*
X92025500Y-183624500I-90000J0D01*
G01*
X90295500Y-183624500D01*
G75*
G02*
X90205500Y-183534500I0J90000D01*
G01*
G37*
G36*
G01*
X90205500Y-184804500D02*
X90205500Y-184384500D01*
G75*
G02*
X90295500Y-184294500I90000J0D01*
G01*
X92025500Y-184294500D01*
G75*
G02*
X92115500Y-184384500I0J-90000D01*
G01*
X92115500Y-184804500D01*
G75*
G02*
X92025500Y-184894500I-90000J0D01*
G01*
X90295500Y-184894500D01*
G75*
G02*
X90205500Y-184804500I0J90000D01*
G01*
G37*
G36*
G01*
X90205500Y-186074500D02*
X90205500Y-185654500D01*
G75*
G02*
X90295500Y-185564500I90000J0D01*
G01*
X92025500Y-185564500D01*
G75*
G02*
X92115500Y-185654500I0J-90000D01*
G01*
X92115500Y-186074500D01*
G75*
G02*
X92025500Y-186164500I-90000J0D01*
G01*
X90295500Y-186164500D01*
G75*
G02*
X90205500Y-186074500I0J90000D01*
G01*
G37*
G36*
G01*
X90205500Y-187344500D02*
X90205500Y-186924500D01*
G75*
G02*
X90295500Y-186834500I90000J0D01*
G01*
X92025500Y-186834500D01*
G75*
G02*
X92115500Y-186924500I0J-90000D01*
G01*
X92115500Y-187344500D01*
G75*
G02*
X92025500Y-187434500I-90000J0D01*
G01*
X90295500Y-187434500D01*
G75*
G02*
X90205500Y-187344500I0J90000D01*
G01*
G37*
G36*
G01*
X90205500Y-188614500D02*
X90205500Y-188194500D01*
G75*
G02*
X90295500Y-188104500I90000J0D01*
G01*
X92025500Y-188104500D01*
G75*
G02*
X92115500Y-188194500I0J-90000D01*
G01*
X92115500Y-188614500D01*
G75*
G02*
X92025500Y-188704500I-90000J0D01*
G01*
X90295500Y-188704500D01*
G75*
G02*
X90205500Y-188614500I0J90000D01*
G01*
G37*
G36*
G01*
X90205500Y-189884500D02*
X90205500Y-189464500D01*
G75*
G02*
X90295500Y-189374500I90000J0D01*
G01*
X92025500Y-189374500D01*
G75*
G02*
X92115500Y-189464500I0J-90000D01*
G01*
X92115500Y-189884500D01*
G75*
G02*
X92025500Y-189974500I-90000J0D01*
G01*
X90295500Y-189974500D01*
G75*
G02*
X90205500Y-189884500I0J90000D01*
G01*
G37*
G36*
G01*
X90205500Y-191154500D02*
X90205500Y-190734500D01*
G75*
G02*
X90295500Y-190644500I90000J0D01*
G01*
X92025500Y-190644500D01*
G75*
G02*
X92115500Y-190734500I0J-90000D01*
G01*
X92115500Y-191154500D01*
G75*
G02*
X92025500Y-191244500I-90000J0D01*
G01*
X90295500Y-191244500D01*
G75*
G02*
X90205500Y-191154500I0J90000D01*
G01*
G37*
G36*
G01*
X90205500Y-192424500D02*
X90205500Y-192004500D01*
G75*
G02*
X90295500Y-191914500I90000J0D01*
G01*
X92025500Y-191914500D01*
G75*
G02*
X92115500Y-192004500I0J-90000D01*
G01*
X92115500Y-192424500D01*
G75*
G02*
X92025500Y-192514500I-90000J0D01*
G01*
X90295500Y-192514500D01*
G75*
G02*
X90205500Y-192424500I0J90000D01*
G01*
G37*
G36*
G01*
X90205500Y-193694500D02*
X90205500Y-193274500D01*
G75*
G02*
X90295500Y-193184500I90000J0D01*
G01*
X92025500Y-193184500D01*
G75*
G02*
X92115500Y-193274500I0J-90000D01*
G01*
X92115500Y-193694500D01*
G75*
G02*
X92025500Y-193784500I-90000J0D01*
G01*
X90295500Y-193784500D01*
G75*
G02*
X90205500Y-193694500I0J90000D01*
G01*
G37*
G36*
G01*
X90205500Y-194964500D02*
X90205500Y-194544500D01*
G75*
G02*
X90295500Y-194454500I90000J0D01*
G01*
X92025500Y-194454500D01*
G75*
G02*
X92115500Y-194544500I0J-90000D01*
G01*
X92115500Y-194964500D01*
G75*
G02*
X92025500Y-195054500I-90000J0D01*
G01*
X90295500Y-195054500D01*
G75*
G02*
X90205500Y-194964500I0J90000D01*
G01*
G37*
G36*
G01*
X80985500Y-194964500D02*
X80985500Y-194544500D01*
G75*
G02*
X81075500Y-194454500I90000J0D01*
G01*
X82805500Y-194454500D01*
G75*
G02*
X82895500Y-194544500I0J-90000D01*
G01*
X82895500Y-194964500D01*
G75*
G02*
X82805500Y-195054500I-90000J0D01*
G01*
X81075500Y-195054500D01*
G75*
G02*
X80985500Y-194964500I0J90000D01*
G01*
G37*
G36*
G01*
X80985500Y-193694500D02*
X80985500Y-193274500D01*
G75*
G02*
X81075500Y-193184500I90000J0D01*
G01*
X82805500Y-193184500D01*
G75*
G02*
X82895500Y-193274500I0J-90000D01*
G01*
X82895500Y-193694500D01*
G75*
G02*
X82805500Y-193784500I-90000J0D01*
G01*
X81075500Y-193784500D01*
G75*
G02*
X80985500Y-193694500I0J90000D01*
G01*
G37*
G36*
G01*
X80985500Y-192424500D02*
X80985500Y-192004500D01*
G75*
G02*
X81075500Y-191914500I90000J0D01*
G01*
X82805500Y-191914500D01*
G75*
G02*
X82895500Y-192004500I0J-90000D01*
G01*
X82895500Y-192424500D01*
G75*
G02*
X82805500Y-192514500I-90000J0D01*
G01*
X81075500Y-192514500D01*
G75*
G02*
X80985500Y-192424500I0J90000D01*
G01*
G37*
G36*
G01*
X80985500Y-191154500D02*
X80985500Y-190734500D01*
G75*
G02*
X81075500Y-190644500I90000J0D01*
G01*
X82805500Y-190644500D01*
G75*
G02*
X82895500Y-190734500I0J-90000D01*
G01*
X82895500Y-191154500D01*
G75*
G02*
X82805500Y-191244500I-90000J0D01*
G01*
X81075500Y-191244500D01*
G75*
G02*
X80985500Y-191154500I0J90000D01*
G01*
G37*
G36*
G01*
X80985500Y-189884500D02*
X80985500Y-189464500D01*
G75*
G02*
X81075500Y-189374500I90000J0D01*
G01*
X82805500Y-189374500D01*
G75*
G02*
X82895500Y-189464500I0J-90000D01*
G01*
X82895500Y-189884500D01*
G75*
G02*
X82805500Y-189974500I-90000J0D01*
G01*
X81075500Y-189974500D01*
G75*
G02*
X80985500Y-189884500I0J90000D01*
G01*
G37*
G36*
G01*
X80985500Y-188614500D02*
X80985500Y-188194500D01*
G75*
G02*
X81075500Y-188104500I90000J0D01*
G01*
X82805500Y-188104500D01*
G75*
G02*
X82895500Y-188194500I0J-90000D01*
G01*
X82895500Y-188614500D01*
G75*
G02*
X82805500Y-188704500I-90000J0D01*
G01*
X81075500Y-188704500D01*
G75*
G02*
X80985500Y-188614500I0J90000D01*
G01*
G37*
G36*
G01*
X80985500Y-187344500D02*
X80985500Y-186924500D01*
G75*
G02*
X81075500Y-186834500I90000J0D01*
G01*
X82805500Y-186834500D01*
G75*
G02*
X82895500Y-186924500I0J-90000D01*
G01*
X82895500Y-187344500D01*
G75*
G02*
X82805500Y-187434500I-90000J0D01*
G01*
X81075500Y-187434500D01*
G75*
G02*
X80985500Y-187344500I0J90000D01*
G01*
G37*
G36*
G01*
X80985500Y-186074500D02*
X80985500Y-185654500D01*
G75*
G02*
X81075500Y-185564500I90000J0D01*
G01*
X82805500Y-185564500D01*
G75*
G02*
X82895500Y-185654500I0J-90000D01*
G01*
X82895500Y-186074500D01*
G75*
G02*
X82805500Y-186164500I-90000J0D01*
G01*
X81075500Y-186164500D01*
G75*
G02*
X80985500Y-186074500I0J90000D01*
G01*
G37*
G36*
G01*
X80985500Y-184804500D02*
X80985500Y-184384500D01*
G75*
G02*
X81075500Y-184294500I90000J0D01*
G01*
X82805500Y-184294500D01*
G75*
G02*
X82895500Y-184384500I0J-90000D01*
G01*
X82895500Y-184804500D01*
G75*
G02*
X82805500Y-184894500I-90000J0D01*
G01*
X81075500Y-184894500D01*
G75*
G02*
X80985500Y-184804500I0J90000D01*
G01*
G37*
G36*
G01*
X80985500Y-183534500D02*
X80985500Y-183114500D01*
G75*
G02*
X81075500Y-183024500I90000J0D01*
G01*
X82805500Y-183024500D01*
G75*
G02*
X82895500Y-183114500I0J-90000D01*
G01*
X82895500Y-183534500D01*
G75*
G02*
X82805500Y-183624500I-90000J0D01*
G01*
X81075500Y-183624500D01*
G75*
G02*
X80985500Y-183534500I0J90000D01*
G01*
G37*
G36*
G01*
X80985500Y-182264500D02*
X80985500Y-181844500D01*
G75*
G02*
X81075500Y-181754500I90000J0D01*
G01*
X82805500Y-181754500D01*
G75*
G02*
X82895500Y-181844500I0J-90000D01*
G01*
X82895500Y-182264500D01*
G75*
G02*
X82805500Y-182354500I-90000J0D01*
G01*
X81075500Y-182354500D01*
G75*
G02*
X80985500Y-182264500I0J90000D01*
G01*
G37*
G36*
G01*
X80985500Y-180994500D02*
X80985500Y-180574500D01*
G75*
G02*
X81075500Y-180484500I90000J0D01*
G01*
X82805500Y-180484500D01*
G75*
G02*
X82895500Y-180574500I0J-90000D01*
G01*
X82895500Y-180994500D01*
G75*
G02*
X82805500Y-181084500I-90000J0D01*
G01*
X81075500Y-181084500D01*
G75*
G02*
X80985500Y-180994500I0J90000D01*
G01*
G37*
G36*
G01*
X80985500Y-179724500D02*
X80985500Y-179304500D01*
G75*
G02*
X81075500Y-179214500I90000J0D01*
G01*
X82805500Y-179214500D01*
G75*
G02*
X82895500Y-179304500I0J-90000D01*
G01*
X82895500Y-179724500D01*
G75*
G02*
X82805500Y-179814500I-90000J0D01*
G01*
X81075500Y-179814500D01*
G75*
G02*
X80985500Y-179724500I0J90000D01*
G01*
G37*
G36*
G01*
X80985500Y-178454500D02*
X80985500Y-178034500D01*
G75*
G02*
X81075500Y-177944500I90000J0D01*
G01*
X82805500Y-177944500D01*
G75*
G02*
X82895500Y-178034500I0J-90000D01*
G01*
X82895500Y-178454500D01*
G75*
G02*
X82805500Y-178544500I-90000J0D01*
G01*
X81075500Y-178544500D01*
G75*
G02*
X80985500Y-178454500I0J90000D01*
G01*
G37*
%TD*%
%TO.C,U1*%
G36*
G01*
X90205500Y-121304500D02*
X90205500Y-120884500D01*
G75*
G02*
X90295500Y-120794500I90000J0D01*
G01*
X92025500Y-120794500D01*
G75*
G02*
X92115500Y-120884500I0J-90000D01*
G01*
X92115500Y-121304500D01*
G75*
G02*
X92025500Y-121394500I-90000J0D01*
G01*
X90295500Y-121394500D01*
G75*
G02*
X90205500Y-121304500I0J90000D01*
G01*
G37*
G36*
G01*
X90205500Y-122574500D02*
X90205500Y-122154500D01*
G75*
G02*
X90295500Y-122064500I90000J0D01*
G01*
X92025500Y-122064500D01*
G75*
G02*
X92115500Y-122154500I0J-90000D01*
G01*
X92115500Y-122574500D01*
G75*
G02*
X92025500Y-122664500I-90000J0D01*
G01*
X90295500Y-122664500D01*
G75*
G02*
X90205500Y-122574500I0J90000D01*
G01*
G37*
G36*
G01*
X90205500Y-123844500D02*
X90205500Y-123424500D01*
G75*
G02*
X90295500Y-123334500I90000J0D01*
G01*
X92025500Y-123334500D01*
G75*
G02*
X92115500Y-123424500I0J-90000D01*
G01*
X92115500Y-123844500D01*
G75*
G02*
X92025500Y-123934500I-90000J0D01*
G01*
X90295500Y-123934500D01*
G75*
G02*
X90205500Y-123844500I0J90000D01*
G01*
G37*
G36*
G01*
X90205500Y-125114500D02*
X90205500Y-124694500D01*
G75*
G02*
X90295500Y-124604500I90000J0D01*
G01*
X92025500Y-124604500D01*
G75*
G02*
X92115500Y-124694500I0J-90000D01*
G01*
X92115500Y-125114500D01*
G75*
G02*
X92025500Y-125204500I-90000J0D01*
G01*
X90295500Y-125204500D01*
G75*
G02*
X90205500Y-125114500I0J90000D01*
G01*
G37*
G36*
G01*
X90205500Y-126384500D02*
X90205500Y-125964500D01*
G75*
G02*
X90295500Y-125874500I90000J0D01*
G01*
X92025500Y-125874500D01*
G75*
G02*
X92115500Y-125964500I0J-90000D01*
G01*
X92115500Y-126384500D01*
G75*
G02*
X92025500Y-126474500I-90000J0D01*
G01*
X90295500Y-126474500D01*
G75*
G02*
X90205500Y-126384500I0J90000D01*
G01*
G37*
G36*
G01*
X90205500Y-127654500D02*
X90205500Y-127234500D01*
G75*
G02*
X90295500Y-127144500I90000J0D01*
G01*
X92025500Y-127144500D01*
G75*
G02*
X92115500Y-127234500I0J-90000D01*
G01*
X92115500Y-127654500D01*
G75*
G02*
X92025500Y-127744500I-90000J0D01*
G01*
X90295500Y-127744500D01*
G75*
G02*
X90205500Y-127654500I0J90000D01*
G01*
G37*
G36*
G01*
X90205500Y-128924500D02*
X90205500Y-128504500D01*
G75*
G02*
X90295500Y-128414500I90000J0D01*
G01*
X92025500Y-128414500D01*
G75*
G02*
X92115500Y-128504500I0J-90000D01*
G01*
X92115500Y-128924500D01*
G75*
G02*
X92025500Y-129014500I-90000J0D01*
G01*
X90295500Y-129014500D01*
G75*
G02*
X90205500Y-128924500I0J90000D01*
G01*
G37*
G36*
G01*
X90205500Y-130194500D02*
X90205500Y-129774500D01*
G75*
G02*
X90295500Y-129684500I90000J0D01*
G01*
X92025500Y-129684500D01*
G75*
G02*
X92115500Y-129774500I0J-90000D01*
G01*
X92115500Y-130194500D01*
G75*
G02*
X92025500Y-130284500I-90000J0D01*
G01*
X90295500Y-130284500D01*
G75*
G02*
X90205500Y-130194500I0J90000D01*
G01*
G37*
G36*
G01*
X90205500Y-131464500D02*
X90205500Y-131044500D01*
G75*
G02*
X90295500Y-130954500I90000J0D01*
G01*
X92025500Y-130954500D01*
G75*
G02*
X92115500Y-131044500I0J-90000D01*
G01*
X92115500Y-131464500D01*
G75*
G02*
X92025500Y-131554500I-90000J0D01*
G01*
X90295500Y-131554500D01*
G75*
G02*
X90205500Y-131464500I0J90000D01*
G01*
G37*
G36*
G01*
X90205500Y-132734500D02*
X90205500Y-132314500D01*
G75*
G02*
X90295500Y-132224500I90000J0D01*
G01*
X92025500Y-132224500D01*
G75*
G02*
X92115500Y-132314500I0J-90000D01*
G01*
X92115500Y-132734500D01*
G75*
G02*
X92025500Y-132824500I-90000J0D01*
G01*
X90295500Y-132824500D01*
G75*
G02*
X90205500Y-132734500I0J90000D01*
G01*
G37*
G36*
G01*
X90205500Y-134004500D02*
X90205500Y-133584500D01*
G75*
G02*
X90295500Y-133494500I90000J0D01*
G01*
X92025500Y-133494500D01*
G75*
G02*
X92115500Y-133584500I0J-90000D01*
G01*
X92115500Y-134004500D01*
G75*
G02*
X92025500Y-134094500I-90000J0D01*
G01*
X90295500Y-134094500D01*
G75*
G02*
X90205500Y-134004500I0J90000D01*
G01*
G37*
G36*
G01*
X90205500Y-135274500D02*
X90205500Y-134854500D01*
G75*
G02*
X90295500Y-134764500I90000J0D01*
G01*
X92025500Y-134764500D01*
G75*
G02*
X92115500Y-134854500I0J-90000D01*
G01*
X92115500Y-135274500D01*
G75*
G02*
X92025500Y-135364500I-90000J0D01*
G01*
X90295500Y-135364500D01*
G75*
G02*
X90205500Y-135274500I0J90000D01*
G01*
G37*
G36*
G01*
X90205500Y-136544500D02*
X90205500Y-136124500D01*
G75*
G02*
X90295500Y-136034500I90000J0D01*
G01*
X92025500Y-136034500D01*
G75*
G02*
X92115500Y-136124500I0J-90000D01*
G01*
X92115500Y-136544500D01*
G75*
G02*
X92025500Y-136634500I-90000J0D01*
G01*
X90295500Y-136634500D01*
G75*
G02*
X90205500Y-136544500I0J90000D01*
G01*
G37*
G36*
G01*
X90205500Y-137814500D02*
X90205500Y-137394500D01*
G75*
G02*
X90295500Y-137304500I90000J0D01*
G01*
X92025500Y-137304500D01*
G75*
G02*
X92115500Y-137394500I0J-90000D01*
G01*
X92115500Y-137814500D01*
G75*
G02*
X92025500Y-137904500I-90000J0D01*
G01*
X90295500Y-137904500D01*
G75*
G02*
X90205500Y-137814500I0J90000D01*
G01*
G37*
G36*
G01*
X80985500Y-137814500D02*
X80985500Y-137394500D01*
G75*
G02*
X81075500Y-137304500I90000J0D01*
G01*
X82805500Y-137304500D01*
G75*
G02*
X82895500Y-137394500I0J-90000D01*
G01*
X82895500Y-137814500D01*
G75*
G02*
X82805500Y-137904500I-90000J0D01*
G01*
X81075500Y-137904500D01*
G75*
G02*
X80985500Y-137814500I0J90000D01*
G01*
G37*
G36*
G01*
X80985500Y-136544500D02*
X80985500Y-136124500D01*
G75*
G02*
X81075500Y-136034500I90000J0D01*
G01*
X82805500Y-136034500D01*
G75*
G02*
X82895500Y-136124500I0J-90000D01*
G01*
X82895500Y-136544500D01*
G75*
G02*
X82805500Y-136634500I-90000J0D01*
G01*
X81075500Y-136634500D01*
G75*
G02*
X80985500Y-136544500I0J90000D01*
G01*
G37*
G36*
G01*
X80985500Y-135274500D02*
X80985500Y-134854500D01*
G75*
G02*
X81075500Y-134764500I90000J0D01*
G01*
X82805500Y-134764500D01*
G75*
G02*
X82895500Y-134854500I0J-90000D01*
G01*
X82895500Y-135274500D01*
G75*
G02*
X82805500Y-135364500I-90000J0D01*
G01*
X81075500Y-135364500D01*
G75*
G02*
X80985500Y-135274500I0J90000D01*
G01*
G37*
G36*
G01*
X80985500Y-134004500D02*
X80985500Y-133584500D01*
G75*
G02*
X81075500Y-133494500I90000J0D01*
G01*
X82805500Y-133494500D01*
G75*
G02*
X82895500Y-133584500I0J-90000D01*
G01*
X82895500Y-134004500D01*
G75*
G02*
X82805500Y-134094500I-90000J0D01*
G01*
X81075500Y-134094500D01*
G75*
G02*
X80985500Y-134004500I0J90000D01*
G01*
G37*
G36*
G01*
X80985500Y-132734500D02*
X80985500Y-132314500D01*
G75*
G02*
X81075500Y-132224500I90000J0D01*
G01*
X82805500Y-132224500D01*
G75*
G02*
X82895500Y-132314500I0J-90000D01*
G01*
X82895500Y-132734500D01*
G75*
G02*
X82805500Y-132824500I-90000J0D01*
G01*
X81075500Y-132824500D01*
G75*
G02*
X80985500Y-132734500I0J90000D01*
G01*
G37*
G36*
G01*
X80985500Y-131464500D02*
X80985500Y-131044500D01*
G75*
G02*
X81075500Y-130954500I90000J0D01*
G01*
X82805500Y-130954500D01*
G75*
G02*
X82895500Y-131044500I0J-90000D01*
G01*
X82895500Y-131464500D01*
G75*
G02*
X82805500Y-131554500I-90000J0D01*
G01*
X81075500Y-131554500D01*
G75*
G02*
X80985500Y-131464500I0J90000D01*
G01*
G37*
G36*
G01*
X80985500Y-130194500D02*
X80985500Y-129774500D01*
G75*
G02*
X81075500Y-129684500I90000J0D01*
G01*
X82805500Y-129684500D01*
G75*
G02*
X82895500Y-129774500I0J-90000D01*
G01*
X82895500Y-130194500D01*
G75*
G02*
X82805500Y-130284500I-90000J0D01*
G01*
X81075500Y-130284500D01*
G75*
G02*
X80985500Y-130194500I0J90000D01*
G01*
G37*
G36*
G01*
X80985500Y-128924500D02*
X80985500Y-128504500D01*
G75*
G02*
X81075500Y-128414500I90000J0D01*
G01*
X82805500Y-128414500D01*
G75*
G02*
X82895500Y-128504500I0J-90000D01*
G01*
X82895500Y-128924500D01*
G75*
G02*
X82805500Y-129014500I-90000J0D01*
G01*
X81075500Y-129014500D01*
G75*
G02*
X80985500Y-128924500I0J90000D01*
G01*
G37*
G36*
G01*
X80985500Y-127654500D02*
X80985500Y-127234500D01*
G75*
G02*
X81075500Y-127144500I90000J0D01*
G01*
X82805500Y-127144500D01*
G75*
G02*
X82895500Y-127234500I0J-90000D01*
G01*
X82895500Y-127654500D01*
G75*
G02*
X82805500Y-127744500I-90000J0D01*
G01*
X81075500Y-127744500D01*
G75*
G02*
X80985500Y-127654500I0J90000D01*
G01*
G37*
G36*
G01*
X80985500Y-126384500D02*
X80985500Y-125964500D01*
G75*
G02*
X81075500Y-125874500I90000J0D01*
G01*
X82805500Y-125874500D01*
G75*
G02*
X82895500Y-125964500I0J-90000D01*
G01*
X82895500Y-126384500D01*
G75*
G02*
X82805500Y-126474500I-90000J0D01*
G01*
X81075500Y-126474500D01*
G75*
G02*
X80985500Y-126384500I0J90000D01*
G01*
G37*
G36*
G01*
X80985500Y-125114500D02*
X80985500Y-124694500D01*
G75*
G02*
X81075500Y-124604500I90000J0D01*
G01*
X82805500Y-124604500D01*
G75*
G02*
X82895500Y-124694500I0J-90000D01*
G01*
X82895500Y-125114500D01*
G75*
G02*
X82805500Y-125204500I-90000J0D01*
G01*
X81075500Y-125204500D01*
G75*
G02*
X80985500Y-125114500I0J90000D01*
G01*
G37*
G36*
G01*
X80985500Y-123844500D02*
X80985500Y-123424500D01*
G75*
G02*
X81075500Y-123334500I90000J0D01*
G01*
X82805500Y-123334500D01*
G75*
G02*
X82895500Y-123424500I0J-90000D01*
G01*
X82895500Y-123844500D01*
G75*
G02*
X82805500Y-123934500I-90000J0D01*
G01*
X81075500Y-123934500D01*
G75*
G02*
X80985500Y-123844500I0J90000D01*
G01*
G37*
G36*
G01*
X80985500Y-122574500D02*
X80985500Y-122154500D01*
G75*
G02*
X81075500Y-122064500I90000J0D01*
G01*
X82805500Y-122064500D01*
G75*
G02*
X82895500Y-122154500I0J-90000D01*
G01*
X82895500Y-122574500D01*
G75*
G02*
X82805500Y-122664500I-90000J0D01*
G01*
X81075500Y-122664500D01*
G75*
G02*
X80985500Y-122574500I0J90000D01*
G01*
G37*
G36*
G01*
X80985500Y-121304500D02*
X80985500Y-120884500D01*
G75*
G02*
X81075500Y-120794500I90000J0D01*
G01*
X82805500Y-120794500D01*
G75*
G02*
X82895500Y-120884500I0J-90000D01*
G01*
X82895500Y-121304500D01*
G75*
G02*
X82805500Y-121394500I-90000J0D01*
G01*
X81075500Y-121394500D01*
G75*
G02*
X80985500Y-121304500I0J90000D01*
G01*
G37*
%TD*%
M02*
